# Blender 4.0.2
# www.blender.org
o mesh0
v -0.029937 -0.060187 -0.014426
v -0.020094 -0.060277 -0.012414
v -0.019880 -0.058707 -0.014980
v -0.031356 -0.060114 0.013770
v -0.040542 -0.049757 -0.013473
v -0.038980 -0.054428 -0.013244
v -0.036351 -0.057631 -0.013116
v -0.033427 -0.054762 -0.013742
v -0.038530 -0.053687 -0.014999
v -0.036510 -0.050102 -0.013742
v -0.040500 -0.050561 0.013306
v -0.037092 -0.056883 0.012723
v -0.034557 -0.053767 0.014818
v -0.036558 -0.049178 0.014820
v -0.040841 -0.038074 -0.006587
v -0.040643 -0.025183 -0.007799
v -0.036539 -0.011535 0.014815
v -0.030029 -0.056305 -0.013742
v -0.031798 -0.051614 -0.013742
v -0.031731 -0.051624 -0.014992
v 0.000297 -0.058986 -0.014966
v 0.000536 -0.060378 -0.009391
v 0.000098 -0.060612 0.006247
v -0.000530 -0.058706 -0.009940
v 0.003341 -0.060485 -0.008072
v -0.019164 -0.058707 0.006208
v 0.028595 -0.051595 -0.013746
v 0.026214 -0.051797 -0.014992
v -0.019664 -0.060307 0.006208
v -0.034003 -0.058250 0.014799
v -0.038910 -0.052444 0.014767
v -0.040659 -0.039593 0.006961
v -0.030056 -0.056306 0.014808
v 0.034700 -0.060272 0.013544
v 0.003185 -0.060582 0.006393
v -0.000463 -0.058707 0.006225
v -0.040546 -0.013073 -0.013465
v -0.036545 -0.012920 -0.013742
v -0.031830 -0.011496 -0.014992
v -0.038939 -0.011842 -0.014989
v -0.038466 -0.007260 -0.013691
v -0.033570 -0.007925 -0.013739
v -0.040518 -0.012876 0.013314
v -0.039384 -0.009244 0.014408
v -0.031770 -0.011438 -0.013742
v -0.031020 -0.006324 0.014810
v -0.036876 -0.005487 0.012921
v -0.034307 -0.005166 -0.015010
v -0.029898 -0.006318 -0.013742
v -0.031736 -0.002505 -0.013700
v -0.030179 -0.002335 0.012892
v -0.023645 -0.002316 -0.003355
v -0.021737 -0.004853 -0.003902
v -0.022844 -0.006309 -0.000221
v 0.026033 -0.011212 -0.014992
v 0.034736 -0.006307 -0.013742
v -0.020361 -0.004338 -0.007270
v -0.018114 -0.002395 -0.009529
v -0.017214 -0.006307 -0.007820
v 0.016649 -0.004943 -0.007878
v 0.040926 -0.003766 -0.009406
v 0.037639 -0.002318 -0.009528
v -0.040612 -0.025994 0.006792
v -0.033531 -0.004223 0.014781
v -0.023066 -0.002408 0.004978
v -0.023650 -0.004481 -0.000387
v 0.040255 -0.003651 0.014709
v -0.017327 -0.006200 0.007244
v -0.018419 -0.002427 0.009267
v 0.018065 -0.006306 0.007494
v 0.034839 -0.058884 -0.014969
v 0.017680 -0.060467 -0.008447
v 0.034736 -0.056307 -0.013742
v 0.029214 -0.051121 -0.016834
v 0.030136 -0.052065 -0.009338
v 0.029437 -0.013922 -0.016877
v 0.034569 -0.060325 -0.013193
v 0.038237 -0.063280 -0.014192
v 0.037693 -0.063111 0.015810
v 0.043271 -0.064351 -0.013189
v 0.048573 -0.061634 -0.014653
v 0.050989 -0.057999 -0.013568
v 0.046570 -0.063242 0.016600
v 0.029956 -0.051234 -0.014992
v 0.043681 -0.050836 -0.015029
v 0.043646 -0.050663 -0.016991
v 0.034736 -0.052245 -0.009470
v 0.032686 -0.039914 -0.016832
v 0.032128 -0.039678 -0.014990
v 0.044151 -0.039719 -0.015060
v 0.044136 -0.039307 -0.016992
v 0.044137 -0.040107 -0.016992
v 0.047227 -0.047890 -0.014626
v 0.049335 -0.051553 -0.014949
v 0.051116 -0.052324 -0.013086
v 0.047454 -0.047471 0.012746
v 0.045845 -0.042787 -0.014973
v 0.045825 -0.042017 -0.009447
v 0.047717 -0.042758 -0.010327
v 0.045836 -0.023302 0.006198
v 0.017679 -0.060457 0.006565
v 0.030136 -0.052204 0.008334
v 0.030136 -0.010565 0.008437
v 0.043299 -0.064297 0.015721
v 0.035431 -0.059782 0.017862
v 0.050044 -0.059997 0.015769
v 0.034417 -0.056287 0.013883
v 0.034736 -0.052279 0.008500
v 0.034286 -0.050651 0.015540
v 0.036584 -0.049291 0.017686
v 0.040006 -0.046071 0.014891
v 0.048440 -0.059704 0.018016
v 0.046440 -0.048186 0.017932
v 0.034736 -0.006307 0.014808
v 0.049899 -0.050142 0.015864
v 0.046214 -0.046901 0.014750
v 0.051473 -0.055044 0.016093
v 0.047440 -0.042788 0.006380
v 0.047492 -0.022375 0.006223
v 0.028997 -0.014072 -0.014996
v 0.028285 -0.011329 -0.013738
v 0.039482 -0.003545 -0.014924
v 0.024136 -0.014331 -0.004387
v 0.024136 -0.012216 -0.003874
v 0.030136 -0.014362 -0.004298
v 0.030136 -0.010757 -0.009433
v 0.030136 -0.012209 -0.003846
v 0.016930 -0.006306 -0.007813
v 0.022602 -0.004807 -0.002056
v 0.035993 -0.004842 -0.007799
v 0.022724 -0.006307 -0.001337
v 0.032751 -0.025588 -0.016905
v 0.032093 -0.025375 -0.014991
v 0.044137 -0.025007 -0.016992
v 0.044158 -0.025419 -0.015030
v 0.044137 -0.025807 -0.016992
v 0.043612 -0.014491 -0.016999
v 0.034736 -0.010378 -0.009323
v 0.038183 -0.011958 -0.004902
v 0.042688 -0.016656 -0.005074
v 0.042152 -0.011839 -0.008844
v 0.045849 -0.022143 -0.014891
v 0.043693 -0.014374 -0.015036
v 0.047674 -0.022580 -0.012644
v 0.047312 -0.011817 -0.013363
v 0.047402 -0.018505 -0.000019
v 0.045624 -0.008388 -0.014809
v 0.047455 -0.013913 -0.008066
v 0.046128 -0.008367 -0.009793
v 0.038402 -0.002352 -0.013246
v 0.037816 -0.006776 -0.005609
v 0.030136 -0.014607 0.003227
v 0.024136 -0.014607 0.003227
v 0.024136 -0.012432 0.003680
v 0.030136 -0.012302 0.003692
v 0.037457 -0.002329 0.009356
v 0.018076 -0.004990 0.007586
v 0.034736 -0.010377 0.008451
v 0.039776 -0.016459 0.000542
v 0.037983 -0.012573 0.003045
v 0.037809 -0.007040 0.004827
v 0.041623 -0.012212 0.008331
v 0.046020 -0.011033 0.014793
v 0.047376 -0.012677 0.013143
v 0.042514 -0.017393 0.003551
v 0.047500 -0.013398 0.008298
v 0.036046 -0.004852 0.007661
v 0.037434 -0.002379 0.013138
v 0.040686 -0.003916 0.009194
v 0.044332 -0.005555 0.009889
s 0
f 1 4 7
f 11 5 6
f 20 3 1
f 20 1 9
f 19 20 39
f 17 14 10
f 20 21 3
f 24 26 3
f 27 20 19
f 26 2 3
f 29 4 1
f 7 12 6
f 14 31 13
f 13 18 8
f 11 32 5
f 31 11 12
f 4 30 12
f 23 34 29
f 35 23 22
f 23 35 34
f 36 26 24
f 26 29 2
f 26 23 29
f 23 36 24
f 37 40 5
f 17 38 42
f 43 44 37
f 45 38 19
f 40 39 9
f 16 37 5
f 50 48 41
f 47 50 41
f 66 53 57
f 52 50 65
f 56 45 121
f 55 45 39
f 150 122 50
f 60 58 57
f 58 150 50
f 62 150 58
f 56 59 49
f 59 53 54
f 49 59 54
f 44 47 41
f 48 55 39
f 49 45 56
f 32 63 15
f 11 63 32
f 63 16 15
f 17 44 31
f 44 43 31
f 64 44 17
f 46 17 42
f 65 50 51
f 49 46 42
f 69 65 51
f 168 64 67
f 51 50 47
f 169 68 69
f 68 169 157
f 68 157 70
f 70 46 68
f 68 46 54
f 65 68 66
f 66 68 54
f 65 69 68
f 46 64 17
f 71 77 21
f 72 35 25
f 27 18 73
f 28 71 21
f 74 84 27
f 71 78 77
f 71 81 78
f 80 79 78
f 106 81 82
f 80 81 83
f 81 80 78
f 74 85 84
f 86 85 74
f 90 88 89
f 91 89 88
f 85 93 94
f 93 95 94
f 95 82 94
f 94 82 81
f 115 93 96
f 85 86 92
f 100 98 97
f 92 86 88
f 99 93 97
f 126 87 75
f 103 75 102
f 77 79 34
f 79 105 34
f 104 105 79
f 107 108 73
f 105 107 34
f 113 105 112
f 106 117 112
f 117 115 113
f 100 119 118
f 109 114 108
f 115 96 116
f 107 18 33
f 30 4 34
f 121 120 27
f 27 76 74
f 121 55 120
f 122 120 55
f 127 126 125
f 127 123 124
f 129 130 60
f 56 131 128
f 61 60 130
f 131 129 128
f 135 132 133
f 134 133 132
f 126 138 87
f 122 143 120
f 143 76 120
f 160 159 139
f 139 140 141
f 135 142 90
f 135 91 136
f 143 142 135
f 143 134 137
f 144 100 142
f 148 146 145
f 165 146 140
f 147 149 145
f 136 91 132
f 143 147 142
f 138 56 73
f 146 144 145
f 151 61 130
f 150 61 147
f 48 122 55
f 151 139 141
f 103 152 75
f 155 153 152
f 103 155 152
f 56 114 70
f 157 131 70
f 56 70 131
f 157 167 129
f 157 169 167
f 162 165 159
f 160 161 162
f 160 162 159
f 96 119 164
f 166 119 146
f 162 170 166
f 166 165 162
f 163 164 170
f 170 156 168
f 158 103 108
f 169 170 162
f 169 162 161
f 77 22 21
f 128 60 59
f 64 46 114
f 17 10 38
f 43 37 16
f 65 66 52
f 54 46 49
f 72 101 35
f 77 34 72
f 118 96 99
f 87 102 75
f 154 124 123
f 155 126 127
f 152 125 75
f 161 139 151
f 161 160 139
f 158 56 138
f 158 126 103
f 1 3 2
f 9 1 7
f 9 7 6
f 8 19 10
f 5 9 6
f 10 13 8
f 5 32 15
f 15 16 5
f 18 19 8
f 19 38 10
f 9 39 20
f 24 21 22
f 22 23 24
f 25 35 22
f 21 24 3
f 27 19 18
f 27 28 20
f 20 28 21
f 12 11 6
f 7 4 12
f 14 13 10
f 30 13 31
f 13 33 18
f 33 13 30
f 12 30 31
f 29 34 4
f 23 26 36
f 40 41 48
f 40 48 39
f 41 40 37
f 37 44 41
f 45 19 39
f 45 42 38
f 50 122 48
f 52 66 57
f 58 52 57
f 52 58 50
f 55 121 45
f 59 57 53
f 59 60 57
f 60 61 58
f 62 58 61
f 45 49 42
f 11 43 63
f 14 17 31
f 31 43 11
f 168 51 64
f 47 44 64
f 64 51 47
f 168 69 51
f 30 34 107 33
f 77 72 25
f 77 25 22
f 71 27 84
f 28 27 71
f 77 78 79
f 88 86 74
f 84 85 71
f 73 121 27
f 88 132 91
f 91 90 89
f 71 85 94
f 85 90 97
f 92 90 85
f 90 92 88
f 85 97 93
f 93 99 96
f 93 115 95
f 98 99 97
f 74 76 88
f 81 71 94
f 72 34 101
f 79 80 104
f 112 105 83
f 104 83 105
f 83 104 80
f 81 106 83
f 83 106 112
f 107 73 18
f 107 109 108
f 105 110 109
f 107 105 109
f 109 111 114
f 113 111 110
f 110 111 109
f 113 110 105
f 114 158 108
f 111 163 114
f 95 117 82
f 117 106 82
f 113 115 116
f 117 113 112
f 100 118 98
f 118 99 98
f 96 118 119
f 164 163 116
f 111 113 116
f 164 116 96
f 116 163 111
f 108 103 102
f 27 120 76
f 125 153 123
f 127 125 123
f 155 127 124
f 75 125 126
f 128 129 60
f 132 76 134
f 134 135 133
f 76 137 134
f 122 147 143
f 143 137 76
f 165 140 159
f 140 139 159
f 135 90 91
f 142 145 144
f 143 135 134
f 100 97 142
f 140 148 141
f 145 149 148
f 141 148 149
f 140 146 148
f 135 136 132
f 73 56 121
f 142 147 145
f 146 119 144
f 87 138 73
f 150 147 122
f 130 161 151
f 62 61 150
f 61 149 147
f 76 132 88
f 141 61 151
f 149 61 141
f 155 154 153
f 67 64 114
f 157 129 131
f 163 67 114
f 144 119 100
f 166 146 165
f 170 164 166
f 166 164 119
f 169 156 170
f 167 169 161
f 67 170 168
f 67 163 170
f 35 101 34
f 56 128 59
f 169 69 156
f 168 156 69
f 70 114 46
f 5 40 9
f 90 142 97
f 2 29 1
f 63 43 16
f 53 66 54
f 73 108 87
f 95 115 117
f 87 108 102
f 125 152 153
f 155 103 126
f 153 154 123
f 154 155 124
f 130 167 161
f 158 114 56
f 158 138 126
f 167 130 129
