# Blender 4.0.2
# www.blender.org
o mesh148.001
v -0.035030 -0.051068 -0.011057
v -0.035085 -0.051195 -0.010500
v -0.035119 -0.050501 -0.011222
v -0.035011 -0.048277 -0.012012
v -0.035235 -0.048567 -0.011598
v -0.034003 -0.053005 -0.011005
v -0.034159 -0.052501 -0.011251
v -0.034815 -0.050501 -0.011722
v -0.034998 -0.048944 -0.011997
v -0.033310 -0.052501 -0.012218
v -0.033810 -0.052501 -0.011751
v -0.033598 -0.051596 -0.012398
v -0.033996 -0.051993 -0.011996
v -0.032500 -0.052501 -0.012642
v -0.032478 -0.051551 -0.012911
v -0.036492 -0.024500 -0.004500
v -0.035875 -0.023283 -0.004500
v -0.035006 -0.013939 -0.012007
v -0.035608 -0.013500 -0.010500
v -0.035684 -0.013500 -0.009500
v -0.035646 -0.013500 -0.008500
v -0.035183 -0.012500 -0.011340
v -0.035447 -0.012500 -0.010500
v -0.034581 -0.013564 -0.012301
v -0.034924 -0.012097 -0.008121
v -0.034222 -0.011500 -0.012192
v -0.034081 -0.010856 -0.012074
v -0.034290 -0.010514 -0.011508
v -0.034276 -0.009630 -0.009500
v -0.033421 -0.012505 -0.012845
v -0.033500 -0.011500 -0.012635
v -0.034886 -0.012145 -0.007500
v -0.034394 -0.011500 -0.007500
v -0.029328 -0.056073 -0.009500
v -0.031239 -0.055127 -0.011221
v -0.031544 -0.055191 -0.010423
v -0.030145 -0.055056 -0.012057
v -0.029531 -0.055935 -0.010589
v -0.029828 -0.055961 -0.009500
v -0.031143 -0.007921 -0.012074
v -0.031486 -0.007711 -0.011507
v -0.031037 -0.006982 -0.010113
v -0.029500 -0.006819 -0.011338
v -0.029500 -0.006556 -0.010500
v -0.028430 -0.007420 -0.012299
v -0.028050 -0.006995 -0.012006
v -0.021057 -0.009053 -0.003291
v -0.021044 -0.008306 -0.004066
v -0.020052 -0.009041 -0.005060
v -0.020285 -0.009208 -0.004500
v -0.020597 -0.009323 -0.003574
v -0.020711 -0.008584 -0.004440
v -0.019057 -0.009036 -0.006042
v -0.019434 -0.009192 -0.005436
v -0.017041 -0.009009 -0.007009
v -0.017424 -0.009273 -0.006552
v -0.016986 -0.009009 -0.007009
v -0.016592 -0.009260 -0.006518
v -0.022500 -0.006255 -0.004500
v -0.022401 -0.006592 -0.002403
v -0.021429 -0.006577 -0.004444
v -0.021887 -0.006817 -0.002671
v -0.020487 -0.006609 -0.005497
v -0.020812 -0.006791 -0.004740
v -0.019488 -0.006599 -0.006468
v -0.019812 -0.006807 -0.005828
v -0.017583 -0.006688 -0.007476
v -0.017972 -0.006961 -0.006987
v -0.015011 -0.009010 -0.007011
v -0.015407 -0.009218 -0.006518
v -0.006426 -0.009282 -0.003447
v -0.005986 -0.009014 -0.007014
v -0.005880 -0.009118 -0.003745
v -0.005765 -0.008500 -0.007213
v -0.005425 -0.008500 -0.006500
v -0.005500 -0.006254 -0.009500
v -0.005534 -0.006216 -0.008534
v -0.005223 -0.005820 -0.008223
v -0.001449 -0.006141 -0.008534
v -0.005062 -0.007500 -0.006500
v -0.005579 -0.006514 -0.007562
v -0.005151 -0.005492 -0.007400
v -0.005021 -0.005500 -0.006500
v -0.005000 -0.002600 -0.001600
v -0.005000 -0.003000 -0.000500
v -0.005000 -0.000500 -0.003000
v -0.003500 -0.005208 -0.007802
v -0.003500 -0.002128 -0.001184
v -0.003500 -0.002379 -0.000500
v -0.003500 -0.000500 -0.002421
v -0.001099 -0.006084 -0.007500
v -0.001679 -0.005492 -0.007400
v -0.002000 -0.004500 -0.007000
v -0.002000 -0.002600 -0.001600
v -0.002000 -0.003000 -0.000500
v -0.002000 -0.000500 -0.003000
v -0.035083 -0.051190 0.020093
v -0.034057 -0.053074 0.020062
v -0.034544 -0.051514 0.020232
v -0.033098 -0.054091 0.020086
v -0.033459 -0.053444 0.020177
v -0.032008 -0.055005 0.020006
v -0.032405 -0.054455 0.020144
v -0.036489 -0.024500 0.004500
v -0.036205 -0.024500 0.005296
v -0.035096 -0.028575 0.014451
v -0.035508 -0.026500 0.012500
v -0.035169 -0.026500 0.013317
v -0.034879 -0.028292 0.014751
v -0.034323 -0.026543 0.014515
v -0.034167 -0.024500 0.014111
v -0.032904 -0.026080 0.015898
v -0.032565 -0.025468 0.015530
v -0.032536 -0.024496 0.014777
v -0.032226 -0.024826 0.015161
v -0.035017 -0.028966 0.020023
v -0.034500 -0.028580 0.020186
v -0.034166 -0.027768 0.020140
v -0.033543 -0.027461 0.020261
v -0.033238 -0.026763 0.020147
v -0.032539 -0.026458 0.020261
v -0.032232 -0.025835 0.020140
v -0.036031 -0.023921 0.005080
v -0.035850 -0.023552 0.005448
v -0.034306 -0.011405 0.006496
v -0.034102 -0.010586 0.006496
v -0.034125 -0.010471 0.007500
v -0.033994 -0.011009 0.006826
v -0.033993 -0.010971 0.007500
v -0.035714 -0.014500 0.011500
v -0.035682 -0.013500 0.009500
v -0.035287 -0.012456 0.008474
v -0.035495 -0.012500 0.009500
v -0.035499 -0.012500 0.011500
v -0.035019 -0.010963 0.008982
v -0.034052 -0.012786 0.014033
v -0.034999 -0.011004 0.011977
v -0.034901 -0.011402 0.012583
v -0.034462 -0.010640 0.008493
v -0.034501 -0.010500 0.012500
v -0.034141 -0.010500 0.013151
v -0.034193 -0.009681 0.008500
v -0.034115 -0.009842 0.012500
v -0.033574 -0.012472 0.014172
v -0.033996 -0.011006 0.008004
v -0.033996 -0.010984 0.008004
v -0.033477 -0.010478 0.013691
v -0.033211 -0.008789 0.012500
v -0.029323 -0.056072 0.019500
v -0.029212 -0.056047 0.020061
v -0.031500 -0.055277 0.019500
v -0.031500 -0.055134 0.020115
v -0.029823 -0.055943 0.019500
v -0.029527 -0.055570 0.020213
v -0.031703 -0.025163 0.015828
v -0.031422 -0.024701 0.015497
v -0.028500 -0.024158 0.015808
v -0.031420 -0.025501 0.020185
v -0.031055 -0.024973 0.016500
v -0.031033 -0.024984 0.020022
v -0.028500 -0.024315 0.016500
v -0.031422 -0.007210 0.011581
v -0.031037 -0.006982 0.011301
v -0.030597 -0.007100 0.012582
v -0.029942 -0.007015 0.012970
v -0.029211 -0.007949 0.014033
v -0.029565 -0.006776 0.012582
v -0.021402 -0.009355 0.001500
v -0.021062 -0.009057 0.003233
v -0.020587 -0.009318 0.003540
v -0.020265 -0.009193 0.004500
v -0.020042 -0.009034 0.005046
v -0.019424 -0.009177 0.005428
v -0.019040 -0.009026 0.006029
v -0.018556 -0.009307 0.005554
v -0.018926 -0.009026 0.006029
v -0.018556 -0.008554 0.006223
v -0.017552 -0.009404 0.005554
v -0.017253 -0.009246 0.006314
v -0.017560 -0.008603 0.006627
v -0.017200 -0.008283 0.007084
v -0.022437 -0.006690 0.001583
v -0.021995 -0.006981 0.001972
v -0.021415 -0.006569 0.004422
v -0.020777 -0.006779 0.004703
v -0.020466 -0.006592 0.005471
v -0.019761 -0.006789 0.005786
v -0.019457 -0.006581 0.006443
v -0.018500 -0.006734 0.006765
v -0.017880 -0.006883 0.006948
v -0.017528 -0.006634 0.007452
v -0.018500 -0.006254 0.008500
v -0.008515 -0.056083 0.012576
v -0.009941 -0.056018 0.020024
v -0.008192 -0.055992 0.012960
v -0.008515 -0.055924 0.013439
v -0.009565 -0.055532 0.020191
v -0.009500 -0.024299 0.015657
v -0.008144 -0.025067 0.015921
v -0.008510 -0.024502 0.015486
v -0.008489 -0.025458 0.020232
v -0.008815 -0.024920 0.020092
v -0.009500 -0.023321 0.014792
v -0.007500 -0.055771 0.013500
v -0.007077 -0.054970 0.014953
v -0.007177 -0.054897 0.015500
v -0.006500 -0.054823 0.014788
v -0.006442 -0.054394 0.015535
v -0.006069 -0.053931 0.015891
v -0.005455 -0.053581 0.015551
v -0.005108 -0.052839 0.015878
v -0.004500 -0.054950 0.013966
v -0.004471 -0.053539 0.014773
v -0.004786 -0.053232 0.015211
v -0.004507 -0.052495 0.015481
v -0.004082 -0.050728 0.015902
v -0.003682 -0.050437 0.015541
v -0.002584 -0.049463 0.014791
v -0.002973 -0.049105 0.015017
v -0.007743 -0.055154 0.019500
v -0.007831 -0.055101 0.020105
v -0.007243 -0.054827 0.019500
v -0.007498 -0.054527 0.020240
v -0.006748 -0.054211 0.020147
v -0.006449 -0.053552 0.020265
v -0.005790 -0.053252 0.020147
v -0.005474 -0.052502 0.020239
v -0.004845 -0.052259 0.016500
v -0.004900 -0.052169 0.020105
v -0.004469 -0.050434 0.020190
v -0.003974 -0.050091 0.016500
v -0.003984 -0.050057 0.020023
v -0.006581 -0.025557 0.015427
v -0.004028 -0.030123 0.015961
v -0.004134 -0.029500 0.015845
v -0.004294 -0.028409 0.015499
v -0.003624 -0.030474 0.015577
v -0.003179 -0.029500 0.014849
v -0.002573 -0.031442 0.014813
v -0.002956 -0.031736 0.015028
v -0.006558 -0.026543 0.020174
v -0.006930 -0.025946 0.020060
v -0.005548 -0.027598 0.020141
v -0.005912 -0.026905 0.020084
v -0.004042 -0.030184 0.016500
v -0.004061 -0.030188 0.019500
v -0.004432 -0.030477 0.020212
v -0.004997 -0.027996 0.020004
v -0.003930 -0.030684 0.016500
v -0.003931 -0.030688 0.019500
v -0.003955 -0.030795 0.020059
v -0.006425 -0.009282 0.003445
v -0.005880 -0.009118 0.003742
v -0.005880 -0.009118 0.006191
v -0.005584 -0.008543 0.006515
v -0.005760 -0.008238 0.007200
v -0.005154 -0.007500 0.006500
v -0.005624 -0.006490 0.007520
v -0.005050 -0.005500 0.006500
v -0.005157 -0.005521 0.007400
v -0.005000 -0.002600 0.001600
v -0.005000 -0.002500 0.007000
v -0.005000 -0.001600 0.002600
v -0.005000 -0.000500 0.003000
v -0.003500 -0.005283 0.007745
v -0.003500 -0.002093 0.001132
v -0.003500 -0.000500 0.002299
v -0.001127 -0.006088 0.007500
v -0.001702 -0.005521 0.007400
v -0.002000 -0.004500 0.007000
v -0.002000 -0.002600 0.001600
v -0.002000 -0.000500 0.003000
v -0.005516 -0.006192 0.008516
v -0.005194 -0.005868 0.008194
v -0.004500 -0.006127 0.008791
v -0.001472 -0.006145 0.008516
v -0.005000 0.000500 -0.003000
v -0.005000 0.002000 -0.007000
v -0.005000 0.002400 -0.006400
v -0.005000 0.002600 -0.001600
v -0.005000 0.003000 -0.000500
v -0.005000 0.004000 -0.006000
v -0.005000 0.006000 -0.004000
v -0.005000 0.006000 -0.003500
v -0.005000 0.006400 -0.002400
v -0.005000 0.007000 -0.002000
v -0.004500 0.006212 -0.003500
v -0.004600 0.006692 -0.002400
v -0.005000 0.007000 -0.002000
v -0.003500 0.000500 -0.002418
v -0.003500 0.002394 -0.007137
v -0.003500 0.002123 -0.001178
v -0.003500 0.002369 -0.000500
v -0.003500 0.006134 -0.004225
v -0.002500 0.006213 -0.003500
v -0.002400 0.006691 -0.002400
v -0.002001 0.007000 -0.002000
v -0.002000 0.000500 -0.003000
v -0.002000 0.002001 -0.007000
v -0.002000 0.002400 -0.006400
v -0.002000 0.002600 -0.001600
v -0.002000 0.003000 -0.000500
v -0.002000 0.004000 -0.006000
v -0.002000 0.006000 -0.004000
v -0.002000 0.006000 -0.003500
v -0.002000 0.006400 -0.002400
v -0.002000 0.007000 -0.002000
v -0.005000 0.000500 0.003000
v -0.005000 0.000500 0.007000
v -0.005000 0.002600 0.001600
v -0.005000 0.002400 0.006400
v -0.005000 0.002000 0.007000
v -0.005000 0.004000 0.006000
v -0.005000 0.006400 0.002400
v -0.005000 0.006000 0.003500
v -0.005000 0.006000 0.004000
v -0.005000 0.007000 0.002000
v -0.004600 0.006678 0.002400
v -0.004500 0.006191 0.003500
v -0.005000 0.007000 0.002000
v -0.003500 0.000500 0.002296
v -0.003500 0.002088 0.001126
v -0.003500 0.002228 0.007078
v -0.003500 0.006103 0.004165
v -0.002400 0.006678 0.002400
v -0.002500 0.006191 0.003500
v -0.002500 0.007097 0.000500
v -0.002000 0.007000 0.002000
v -0.002000 0.000500 0.003000
v -0.002000 0.002600 0.001600
v -0.002000 0.002400 0.006400
v -0.002000 0.002000 0.007000
v -0.002000 0.004400 0.005400
v -0.002000 0.004000 0.006000
v -0.002000 0.006400 0.002400
v -0.002000 0.006000 0.003500
v -0.002000 0.006000 0.004000
v -0.002000 0.007000 0.002000
v 0.005805 -0.009125 -0.007130
v 0.005640 -0.009272 -0.006500
v 0.005715 -0.009238 -0.003762
v 0.005629 -0.008500 -0.007299
v 0.005166 -0.008500 -0.006500
v 0.005072 -0.008500 -0.004500
v 0.005465 -0.008551 -0.003457
v 0.006449 -0.009444 -0.003457
v 0.006500 -0.008500 -0.007599
v 0.006082 -0.008918 -0.003095
v 0.001449 -0.006141 -0.008534
v 0.005500 -0.006254 -0.009500
v 0.005534 -0.006216 -0.008534
v 0.005223 -0.005820 -0.008223
v 0.001099 -0.006084 -0.007500
v 0.001679 -0.005492 -0.007400
v 0.002000 -0.004500 -0.007000
v 0.002000 -0.004500 -0.002500
v 0.002000 -0.002600 -0.001600
v 0.002000 -0.003000 -0.000500
v 0.002000 -0.001600 -0.002600
v 0.002000 -0.000500 -0.003000
v 0.003500 -0.005208 -0.007802
v 0.003500 -0.002128 -0.001184
v 0.003500 -0.002378 -0.000500
v 0.003500 -0.000500 -0.002421
v 0.005000 -0.007500 -0.004500
v 0.005579 -0.006514 -0.007562
v 0.005151 -0.005492 -0.007400
v 0.005021 -0.005500 -0.006500
v 0.005000 -0.002600 -0.001600
v 0.005000 -0.003000 -0.000500
v 0.005000 -0.000500 -0.003000
v 0.006500 -0.006785 -0.007904
v 0.014211 -0.009125 -0.007130
v 0.014527 -0.008580 -0.007396
v 0.015888 -0.009039 -0.007037
v 0.015533 -0.008580 -0.007309
v 0.017041 -0.009009 -0.007009
v 0.017424 -0.009274 -0.006552
v 0.019057 -0.009036 -0.006042
v 0.019434 -0.009192 -0.005436
v 0.020052 -0.009041 -0.005060
v 0.020285 -0.009208 -0.004500
v 0.020597 -0.009323 -0.003574
v 0.020711 -0.008584 -0.004440
v 0.020995 -0.008973 -0.003957
v 0.021057 -0.009053 -0.003291
v 0.021922 -0.008516 -0.001585
v 0.018500 -0.006254 -0.008500
v 0.018500 -0.006429 -0.007500
v 0.019500 -0.006271 -0.007500
v 0.019488 -0.006599 -0.006468
v 0.019812 -0.006807 -0.005828
v 0.020487 -0.006609 -0.005497
v 0.020812 -0.006791 -0.004740
v 0.021429 -0.006577 -0.004444
v 0.021887 -0.006817 -0.002670
v 0.022401 -0.006592 -0.002402
v 0.028531 -0.056112 -0.008530
v 0.028885 -0.055943 -0.008217
v 0.029484 -0.055815 -0.008530
v 0.030145 -0.055056 -0.012057
v 0.030500 -0.055653 -0.010500
v 0.030500 -0.055590 -0.008500
v 0.031239 -0.055127 -0.011221
v 0.031544 -0.055191 -0.010423
v 0.031500 -0.055288 -0.008500
v 0.028430 -0.007420 -0.012299
v 0.028050 -0.006995 -0.012006
v 0.028500 -0.006315 -0.009500
v 0.031143 -0.007921 -0.012074
v 0.031037 -0.006982 -0.010113
v 0.032500 -0.052501 -0.012642
v 0.032478 -0.051551 -0.012911
v 0.033310 -0.052501 -0.012218
v 0.033810 -0.052501 -0.011751
v 0.033598 -0.051596 -0.012398
v 0.033996 -0.051993 -0.011996
v 0.034003 -0.053005 -0.011005
v 0.034159 -0.052501 -0.011251
v 0.034815 -0.050501 -0.011722
v 0.035030 -0.051068 -0.011057
v 0.035086 -0.051196 -0.010500
v 0.035119 -0.050501 -0.011222
v 0.035011 -0.048277 -0.012012
v 0.035235 -0.048567 -0.011598
v 0.033421 -0.012505 -0.012845
v 0.033500 -0.011500 -0.012635
v 0.034388 -0.012500 -0.012314
v 0.034888 -0.012500 -0.011841
v 0.034222 -0.011500 -0.012192
v 0.034081 -0.010856 -0.012074
v 0.034290 -0.010514 -0.011508
v 0.035641 -0.013500 -0.010500
v 0.035860 -0.013538 -0.009537
v 0.035803 -0.013740 -0.008500
v 0.035085 -0.011763 -0.011163
v 0.036182 -0.013230 -0.009228
v 0.036081 -0.011753 -0.009095
v 0.036167 -0.011452 -0.008537
v 0.036046 -0.010899 -0.008228
v 0.032291 -0.007791 -0.010500
v 0.005715 -0.009238 0.003762
v 0.005715 -0.009238 0.006279
v 0.005467 -0.008551 0.003457
v 0.005072 -0.008500 0.004500
v 0.005485 -0.008559 0.006567
v 0.005760 -0.008264 0.007200
v 0.006449 -0.009444 0.003457
v 0.006082 -0.008918 0.003095
v 0.001127 -0.006088 0.007500
v 0.001702 -0.005521 0.007400
v 0.002000 -0.004500 0.007000
v 0.002000 -0.002600 0.001600
v 0.002000 -0.000500 0.003000
v 0.003500 -0.005283 0.007745
v 0.003500 -0.002093 0.001132
v 0.003500 -0.000500 0.002299
v 0.005000 -0.007500 0.004500
v 0.005624 -0.006490 0.007520
v 0.005157 -0.005521 0.007400
v 0.005000 -0.004500 0.007000
v 0.005000 -0.002600 0.001600
v 0.005000 -0.000500 0.003000
v 0.001472 -0.006145 0.008516
v 0.004500 -0.006127 0.008791
v 0.005516 -0.006192 0.008516
v 0.005194 -0.005868 0.008194
v 0.016500 -0.009372 0.006485
v 0.016500 -0.008961 0.006985
v 0.016500 -0.008461 0.007196
v 0.017551 -0.009449 0.005554
v 0.017252 -0.009246 0.006314
v 0.018556 -0.009307 0.005554
v 0.018926 -0.009026 0.006030
v 0.018556 -0.008554 0.006223
v 0.019424 -0.009177 0.005428
v 0.019040 -0.009026 0.006030
v 0.020587 -0.009318 0.003540
v 0.020042 -0.009034 0.005046
v 0.021402 -0.009355 0.001500
v 0.021062 -0.009057 0.003233
v 0.017880 -0.006883 0.006948
v 0.017528 -0.006634 0.007452
v 0.018500 -0.006734 0.006765
v 0.018500 -0.006361 0.007500
v 0.019761 -0.006789 0.005786
v 0.019457 -0.006581 0.006443
v 0.020777 -0.006779 0.004703
v 0.020466 -0.006592 0.005471
v 0.021995 -0.006981 0.001972
v 0.021415 -0.006569 0.004422
v 0.022437 -0.006690 0.001583
v 0.017500 -0.006257 0.008500
v 0.029295 -0.056060 0.009500
v 0.029265 -0.056059 0.011500
v 0.029134 -0.056030 0.012084
v 0.029500 -0.055591 0.007500
v 0.030500 -0.055451 0.007500
v 0.029795 -0.055962 0.009500
v 0.029765 -0.055947 0.011500
v 0.030500 -0.055596 0.008500
v 0.030500 -0.055130 0.013155
v 0.030577 -0.054472 0.013718
v 0.031500 -0.055288 0.008500
v 0.031262 -0.055140 0.012500
v 0.028500 -0.006570 0.012500
v 0.029942 -0.007015 0.012970
v 0.029211 -0.007949 0.014033
v 0.029565 -0.006777 0.012582
v 0.030597 -0.007100 0.012582
v 0.034037 -0.053047 0.012086
v 0.034762 -0.051489 0.012501
v 0.034019 -0.050063 0.014013
v 0.035065 -0.051149 0.012169
v 0.035156 -0.050463 0.012501
v 0.033957 -0.012119 0.013979
v 0.033575 -0.012472 0.014172
v 0.033477 -0.010478 0.013691
v 0.034052 -0.012786 0.014033
v 0.034765 -0.010486 0.010500
v 0.034791 -0.010595 0.011556
v 0.034141 -0.010500 0.013151
v 0.034240 -0.009668 0.011500
v 0.034115 -0.009842 0.012500
v 0.034004 -0.009995 0.013004
v 0.035850 -0.013539 0.009525
v 0.035797 -0.012500 0.009722
v 0.035965 -0.011087 0.008895
v 0.035227 -0.011500 0.010500
v 0.036182 -0.013231 0.009207
v 0.036196 -0.012500 0.009222
v 0.036166 -0.011452 0.008537
v 0.036046 -0.010899 0.008228
v 0.002000 0.000500 -0.003000
v 0.002000 0.001600 -0.002600
v 0.002000 0.002001 -0.007000
v 0.002000 0.002400 -0.006400
v 0.002000 0.002600 -0.001600
v 0.002000 0.003000 -0.000500
v 0.002000 0.004000 -0.006000
v 0.002000 0.006000 -0.004000
v 0.002000 0.006000 -0.003500
v 0.002000 0.006400 -0.002400
v 0.002000 0.007000 -0.002000
v 0.002500 0.006213 -0.003500
v 0.002400 0.006692 -0.002400
v 0.002001 0.007000 -0.002000
v 0.003500 0.000500 -0.002418
v 0.003500 0.002394 -0.007137
v 0.003500 0.002123 -0.001178
v 0.003500 0.002369 -0.000500
v 0.003500 0.006134 -0.004225
v 0.004500 0.006212 -0.003500
v 0.004600 0.006691 -0.002400
v 0.005000 0.007000 -0.002000
v 0.005000 0.000500 -0.003000
v 0.005000 0.002000 -0.007000
v 0.005000 0.002400 -0.006400
v 0.005000 0.002600 -0.001600
v 0.005000 0.003000 -0.000500
v 0.005000 0.004000 -0.006000
v 0.005000 0.005400 -0.004400
v 0.005000 0.006000 -0.004000
v 0.005000 0.006000 -0.003500
v 0.005000 0.006400 -0.002400
v 0.005000 0.007000 -0.002000
v 0.002000 0.000500 0.003000
v 0.002000 0.002600 0.001600
v 0.002000 0.002400 0.006400
v 0.002000 0.002000 0.007000
v 0.002000 0.004000 0.006000
v 0.002000 0.006400 0.002400
v 0.002000 0.006000 0.003500
v 0.002000 0.006000 0.004000
v 0.002000 0.007000 0.002000
v 0.002400 0.006679 0.002400
v 0.002500 0.006191 0.003500
v 0.002500 0.007097 0.000500
v 0.002000 0.007000 0.002000
v 0.003500 0.000500 0.002296
v 0.003500 0.002088 0.001126
v 0.003500 0.002228 0.007078
v 0.003500 0.006103 0.004165
v 0.004600 0.006679 0.002400
v 0.004500 0.006191 0.003500
v 0.005000 0.007000 0.002000
v 0.005000 0.000500 0.003000
v 0.005000 0.001600 0.002600
v 0.005000 0.002600 0.001600
v 0.005000 0.002400 0.006400
v 0.005000 0.002000 0.007000
v 0.005000 0.004400 0.005400
v 0.005000 0.004000 0.006000
v 0.005000 0.006400 0.002400
v 0.005000 0.006000 0.003500
v 0.005000 0.006000 0.004000
v 0.005000 0.007000 0.002000
s 0
f 240 238 237
f 440 432 410
f 16 105 123
f 361 557 367
f 31 45 407
f 414 415 404
f 523 528 441
f 239 218 517
f 253 75 73
f 52 51 50
f 420 416 426
f 322 302 330
f 192 191 189
f 36 151 102
f 269 270 323
f 203 233 238
f 15 1 8
f 270 268 92
f 107 2 7
f 246 233 244
f 82 74 80
f 78 81 82
f 526 527 511
f 358 362 357
f 85 88 84
f 135 133 140
f 79 92 91
f 593 596 583
f 112 113 114
f 204 212 207
f 329 335 336
f 460 461 582
f 266 95 89
f 10 35 11
f 548 559 550
f 128 126 125
f 370 456 462
f 146 127 129
f 62 59 60
f 152 153 150
f 41 27 28
f 421 425 436
f 572 540 539
f 413 30 426
f 180 179 178
f 364 369 371
f 90 84 88
f 479 486 490
f 51 170 173
f 34 398 193
f 76 79 349
f 115 156 198
f 326 327 319
f 112 116 159
f 379 384 394
f 202 199 161
f 93 87 299
f 62 47 48
f 166 148 147
f 389 351 372
f 169 183 184
f 509 167 166
f 354 450 452
f 255 258 259
f 222 228 229
f 261 264 267
f 267 271 266
f 64 53 55
f 274 258 273
f 269 276 268
f 534 364 548
f 560 550 559
f 285 287 284
f 289 285 286
f 178 176 177
f 276 265 274
f 493 459 466
f 87 278 291
f 282 294 278
f 297 289 327
f 306 295 296
f 297 306 296
f 587 457 580
f 322 281 293
f 319 314 315
f 518 524 507
f 320 314 318
f 310 321 308
f 571 570 583
f 567 457 454
f 330 321 322
f 581 560 589
f 445 444 345
f 326 335 325
f 585 578 577
f 328 335 338
f 37 14 412
f 179 181 255
f 95 271 93
f 561 557 552
f 267 308 321
f 348 341 345
f 354 355 549
f 354 349 353
f 90 94 96
f 95 88 89
f 360 357 362
f 352 366 351
f 378 375 373
f 448 471 476
f 556 364 371
f 385 382 383
f 266 85 261
f 387 386 480
f 21 20 18
f 334 337 324
f 456 358 453
f 370 362 363
f 405 38 35
f 263 262 309
f 376 377 391
f 313 312 324
f 475 473 471
f 468 446 447
f 281 292 293
f 449 442 448
f 340 342 367
f 457 453 454
f 462 457 463
f 451 450 464
f 467 459 460
f 464 467 455
f 111 140 108
f 372 342 347
f 560 564 594
f 475 472 469
f 368 562 371
f 485 482 483
f 505 512 515
f 225 227 158
f 258 181 191
f 139 145 132
f 231 249 250
f 522 519 515
f 310 308 311
f 482 487 475
f 506 465 276
f 290 280 277
f 505 499 501
f 74 67 57
f 303 299 294
f 434 530 526
f 527 530 531
f 298 90 96
f 302 292 301
f 540 552 536
f 543 545 542
f 547 543 544
f 534 550 538
f 277 90 290
f 290 301 292
f 539 550 551
f 360 537 536
f 547 578 597
f 565 553 554
f 555 565 554
f 452 455 570
f 190 172 187
f 577 572 573
f 579 572 576
f 568 580 567
f 329 267 321
f 589 587 580
f 581 539 551
f 262 265 312
f 585 594 584
f 586 594 597
f 217 216 215
f 215 214 213
f 213 218 219
f 240 239 238
f 213 219 240
f 217 215 213
f 235 234 237
f 217 213 240
f 238 235 237
f 237 217 240
f 410 441 440
f 440 439 436
f 432 431 410
f 440 436 432
f 124 17 16
f 16 104 105
f 123 124 16
f 361 549 557
f 410 431 430
f 427 426 30
f 410 430 427
f 46 408 407
f 407 410 427
f 427 30 31
f 31 26 27
f 27 40 45
f 45 46 407
f 407 427 31
f 31 27 45
f 414 416 417
f 415 419 418
f 414 417 415
f 404 401 414
f 415 418 404
f 523 521 520
f 520 529 528
f 528 532 533
f 533 440 441
f 441 411 510
f 510 524 523
f 523 520 528
f 528 533 441
f 441 510 523
f 508 166 144
f 144 136 111
f 111 114 203
f 144 111 203
f 517 508 144
f 513 519 517
f 212 503 513
f 218 213 212
f 240 219 218
f 239 240 218
f 218 212 513
f 517 144 203
f 517 203 238
f 218 513 517
f 517 238 239
f 253 254 255
f 255 257 80
f 75 74 72
f 255 80 75
f 71 252 253
f 253 255 75
f 75 72 73
f 73 71 253
f 426 427 430
f 428 429 424
f 426 430 428
f 412 413 426
f 416 414 412
f 421 417 416
f 420 423 421
f 424 425 420
f 426 428 424
f 416 412 426
f 420 421 416
f 426 424 420
f 322 293 302
f 192 273 258
f 191 190 189
f 192 258 191
f 100 101 98
f 6 35 36
f 36 38 34
f 39 153 151
f 36 34 39
f 98 6 36
f 102 103 100
f 100 98 36
f 36 39 151
f 151 152 102
f 102 100 36
f 323 265 269
f 270 332 323
f 203 198 200
f 200 199 233
f 236 235 238
f 203 200 233
f 233 236 238
f 24 26 31
f 31 30 15
f 15 14 10
f 12 13 1
f 15 10 12
f 24 31 15
f 4 18 24
f 9 5 4
f 1 3 8
f 8 9 4
f 4 24 15
f 15 12 1
f 8 4 15
f 92 93 270
f 270 269 268
f 268 91 92
f 7 6 98
f 98 99 97
f 97 116 106
f 106 108 107
f 107 138 137
f 137 134 130
f 124 123 105
f 107 137 130
f 130 124 105
f 105 104 2
f 2 1 13
f 13 11 7
f 7 98 97
f 97 106 107
f 107 130 105
f 2 13 7
f 107 105 2
f 7 97 107
f 245 249 237
f 245 237 234
f 251 250 246
f 246 245 234
f 235 236 233
f 246 234 235
f 247 251 246
f 244 243 248
f 248 247 246
f 246 235 233
f 233 242 241
f 244 248 246
f 233 241 244
f 80 83 82
f 82 81 74
f 74 75 80
f 78 77 81
f 422 433 434
f 422 434 435
f 417 421 422
f 419 415 417
f 511 418 419
f 514 512 511
f 524 515 514
f 521 523 524
f 529 520 521
f 532 528 529
f 440 533 532
f 437 438 439
f 439 440 532
f 529 521 524
f 439 532 529
f 530 437 439
f 531 530 439
f 529 524 514
f 531 439 529
f 527 531 529
f 529 514 511
f 511 419 417
f 422 435 526
f 511 417 422
f 527 529 511
f 511 422 526
f 358 363 362
f 85 89 88
f 140 143 148
f 148 164 162
f 162 163 42
f 42 44 43
f 43 41 28
f 28 22 23
f 23 19 20
f 23 20 29
f 43 28 23
f 148 162 42
f 42 43 23
f 42 23 29
f 140 148 42
f 137 138 140
f 133 134 137
f 21 131 133
f 32 25 21
f 125 33 32
f 145 128 125
f 132 145 125
f 125 32 21
f 133 137 140
f 42 29 142
f 142 139 135
f 132 125 21
f 132 21 133
f 140 42 142
f 135 132 133
f 140 142 135
f 583 582 591
f 591 590 593
f 593 592 596
f 583 591 593
f 114 110 112
f 113 115 114
f 204 196 195
f 195 193 496
f 496 505 502
f 502 503 212
f 212 213 214
f 214 215 211
f 210 209 208
f 214 211 210
f 496 502 212
f 212 214 210
f 210 208 207
f 207 205 204
f 204 195 496
f 212 210 207
f 204 496 212
f 337 333 329
f 329 330 335
f 336 337 329
f 582 455 460
f 461 591 582
f 266 271 95
f 10 37 35
f 35 6 7
f 11 13 12
f 35 7 11
f 11 12 10
f 548 556 559
f 370 363 456
f 146 139 127
f 62 61 59
f 150 154 152
f 152 151 153
f 153 149 150
f 41 40 27
f 438 437 434
f 433 422 421
f 438 434 433
f 436 439 438
f 431 432 436
f 428 430 431
f 425 424 429
f 429 428 431
f 436 438 433
f 429 431 436
f 423 420 425
f 425 429 436
f 436 433 421
f 421 423 425
f 357 359 356
f 452 570 569
f 569 571 574
f 569 574 573
f 358 357 356
f 453 358 356
f 452 569 573
f 572 575 544
f 452 573 572
f 453 356 452
f 454 453 452
f 572 544 543
f 542 541 540
f 572 543 542
f 567 454 452
f 568 567 452
f 572 542 540
f 540 537 535
f 540 535 538
f 568 452 572
f 540 538 539
f 539 568 572
f 413 15 30
f 364 362 369
f 90 86 84
f 492 480 481
f 481 478 479
f 479 476 477
f 477 487 486
f 486 489 488
f 488 491 490
f 490 492 481
f 479 477 486
f 490 481 479
f 486 488 490
f 71 73 72
f 72 69 70
f 58 57 55
f 71 72 70
f 58 55 56
f 71 70 58
f 254 253 252
f 252 71 58
f 58 56 53
f 54 49 50
f 58 53 54
f 254 252 58
f 178 179 254
f 174 176 175
f 178 254 58
f 173 174 175
f 175 178 58
f 58 54 50
f 51 47 168
f 58 50 51
f 173 175 58
f 171 172 173
f 168 169 170
f 170 171 173
f 173 58 51
f 51 168 170
f 194 150 149
f 149 153 39
f 34 38 402
f 149 39 34
f 221 197 194
f 194 149 34
f 403 406 504
f 504 501 498
f 498 497 400
f 400 399 398
f 494 499 500
f 494 500 495
f 495 496 193
f 193 195 196
f 196 204 205
f 205 207 208
f 206 222 220
f 205 208 206
f 196 205 206
f 206 220 221
f 221 194 34
f 403 504 498
f 403 498 400
f 206 221 34
f 196 206 34
f 402 403 400
f 398 494 495
f 402 400 398
f 193 196 34
f 398 495 193
f 34 402 398
f 507 510 411
f 411 441 410
f 410 407 408
f 46 45 40
f 411 410 408
f 46 40 41
f 411 408 46
f 509 507 411
f 409 506 509
f 352 351 350
f 409 509 411
f 350 409 411
f 411 46 41
f 43 44 76
f 411 41 43
f 350 411 43
f 76 77 78
f 350 43 76
f 361 367 352
f 352 350 76
f 78 82 87
f 354 361 352
f 349 354 352
f 76 78 87
f 87 92 79
f 349 352 76
f 76 87 79
f 198 203 114
f 115 113 155
f 198 114 115
f 156 157 198
f 115 155 156
f 316 324 337
f 337 336 326
f 325 328 327
f 316 337 326
f 326 325 327
f 327 320 318
f 319 315 316
f 327 318 319
f 319 316 326
f 157 156 155
f 155 113 112
f 112 110 109
f 109 106 116
f 116 117 118
f 118 119 120
f 120 121 122
f 122 158 160
f 159 161 157
f 122 160 159
f 116 118 120
f 120 122 159
f 159 157 155
f 112 109 116
f 159 155 112
f 116 120 159
f 394 393 392
f 392 391 379
f 379 380 381
f 381 382 384
f 384 385 387
f 387 396 395
f 394 392 379
f 387 395 394
f 379 381 384
f 384 387 394
f 202 201 242
f 242 233 199
f 199 200 198
f 198 157 161
f 161 159 160
f 202 242 199
f 161 160 202
f 199 198 161
f 93 92 87
f 87 291 299
f 62 60 182
f 182 168 47
f 47 51 52
f 48 61 62
f 47 52 48
f 62 182 47
f 166 167 165
f 165 164 148
f 148 143 141
f 147 144 166
f 148 141 147
f 166 165 148
f 391 390 389
f 389 388 351
f 351 366 372
f 372 391 389
f 184 171 170
f 169 168 182
f 184 170 169
f 169 182 183
f 166 508 509
f 509 506 167
f 356 355 354
f 354 353 450
f 450 451 452
f 452 356 354
f 259 257 255
f 255 256 258
f 258 260 259
f 222 206 208
f 209 210 211
f 222 208 209
f 221 220 222
f 224 223 221
f 226 225 224
f 229 227 226
f 232 230 229
f 228 231 232
f 211 215 228
f 222 209 211
f 224 221 222
f 229 226 224
f 228 232 229
f 222 211 228
f 229 224 222
f 267 266 261
f 261 263 264
f 267 272 271
f 68 65 66
f 66 63 64
f 64 61 48
f 52 50 49
f 64 48 52
f 68 66 64
f 55 67 68
f 53 56 55
f 49 54 53
f 64 52 49
f 55 68 64
f 64 49 53
f 274 260 258
f 534 360 364
f 560 551 550
f 285 288 287
f 289 288 285
f 177 180 178
f 178 175 176
f 273 275 276
f 276 269 265
f 265 260 274
f 274 273 276
f 493 483 459
f 87 82 278
f 282 283 294
f 294 291 278
f 278 279 282
f 295 305 304
f 304 294 283
f 283 284 287
f 304 283 287
f 295 304 287
f 295 287 288
f 296 295 288
f 289 286 317
f 296 288 289
f 338 307 297
f 297 296 289
f 289 317 320
f 327 328 338
f 289 320 327
f 327 338 297
f 306 305 295
f 297 307 306
f 587 463 457
f 322 310 281
f 319 318 314
f 508 517 516
f 518 522 525
f 508 516 518
f 507 509 508
f 524 510 507
f 518 525 524
f 507 508 518
f 320 317 314
f 310 322 321
f 571 569 570
f 570 582 583
f 583 574 571
f 567 580 457
f 330 329 321
f 581 551 560
f 344 365 458
f 445 446 443
f 344 458 445
f 340 343 344
f 345 341 340
f 448 346 348
f 345 340 344
f 448 348 345
f 449 448 345
f 345 344 445
f 445 443 442
f 444 449 345
f 445 442 444
f 326 336 335
f 574 583 596
f 596 595 585
f 584 586 578
f 574 596 585
f 585 584 578
f 578 579 576
f 577 573 574
f 578 576 577
f 577 574 585
f 328 325 335
f 414 401 37
f 37 10 14
f 14 15 413
f 412 414 37
f 14 413 412
f 255 254 179
f 179 180 181
f 181 256 255
f 306 307 338
f 338 335 330
f 338 330 302
f 305 306 338
f 303 304 305
f 93 299 300
f 300 303 305
f 305 338 302
f 305 302 301
f 93 300 305
f 331 332 270
f 333 334 331
f 272 329 333
f 272 333 331
f 93 305 301
f 93 301 298
f 272 331 270
f 271 272 270
f 93 298 96
f 93 96 94
f 271 270 93
f 93 94 95
f 563 562 561
f 561 558 557
f 557 549 552
f 552 563 561
f 267 264 308
f 348 346 341
f 549 361 354
f 355 536 549
f 90 88 94
f 95 94 88
f 362 364 360
f 360 359 357
f 352 367 366
f 339 340 378
f 378 377 375
f 375 376 374
f 373 339 378
f 375 374 373
f 378 340 341
f 378 341 346
f 380 379 378
f 382 381 380
f 480 386 383
f 383 382 380
f 380 378 346
f 448 442 443
f 380 346 448
f 480 383 380
f 478 481 480
f 476 479 478
f 474 477 476
f 473 474 476
f 476 478 480
f 480 380 448
f 448 443 468
f 468 472 471
f 471 473 476
f 476 480 448
f 448 468 471
f 556 548 364
f 385 384 382
f 266 89 85
f 385 383 386
f 480 492 397
f 397 396 387
f 387 385 386
f 480 397 387
f 2 104 16
f 17 124 130
f 2 16 17
f 3 1 2
f 9 8 3
f 18 4 5
f 5 9 3
f 3 2 17
f 17 130 134
f 134 133 131
f 17 134 131
f 5 3 17
f 26 24 18
f 18 5 17
f 17 131 21
f 25 32 33
f 18 17 21
f 27 26 18
f 22 28 27
f 19 23 22
f 22 27 18
f 33 125 126
f 128 145 146
f 128 146 129
f 126 128 129
f 127 139 142
f 126 129 127
f 33 126 127
f 127 142 29
f 33 127 29
f 25 33 29
f 25 29 20
f 19 22 18
f 21 25 20
f 20 19 18
f 324 323 332
f 332 331 334
f 334 333 337
f 324 332 334
f 456 363 358
f 370 369 362
f 35 37 401
f 401 404 405
f 405 402 38
f 38 36 35
f 35 401 405
f 263 261 262
f 347 342 339
f 339 373 374
f 376 375 377
f 347 339 374
f 347 374 376
f 391 372 347
f 378 379 391
f 377 378 391
f 391 347 376
f 313 311 312
f 312 323 324
f 324 316 313
f 475 474 473
f 447 469 468
f 468 443 446
f 281 280 292
f 449 444 442
f 368 343 340
f 340 339 342
f 342 366 367
f 367 368 340
f 457 456 453
f 462 456 457
f 467 466 459
f 455 451 464
f 464 465 466
f 467 460 455
f 464 466 467
f 110 114 111
f 136 144 147
f 109 110 111
f 136 147 141
f 106 109 111
f 111 136 141
f 141 143 140
f 140 138 107
f 108 106 111
f 140 107 108
f 111 141 140
f 372 366 342
f 595 596 592
f 592 588 589
f 560 559 562
f 592 589 560
f 594 595 592
f 566 597 594
f 565 566 594
f 594 592 560
f 560 562 563
f 564 565 594
f 560 563 564
f 469 470 475
f 475 471 472
f 472 468 469
f 460 459 447
f 447 446 445
f 447 445 458
f 461 460 447
f 590 591 461
f 592 593 590
f 587 588 592
f 463 587 592
f 592 590 461
f 461 447 458
f 365 344 343
f 461 458 365
f 463 592 461
f 462 463 461
f 365 343 368
f 462 461 365
f 370 462 365
f 368 367 557
f 370 365 368
f 369 370 368
f 368 557 558
f 558 561 562
f 562 559 556
f 371 369 368
f 562 556 371
f 368 558 562
f 485 484 482
f 515 513 503
f 503 502 505
f 505 511 512
f 512 514 515
f 515 503 505
f 119 118 117
f 117 116 97
f 99 98 101
f 117 97 99
f 121 120 119
f 119 117 99
f 101 100 103
f 119 99 101
f 158 122 121
f 121 119 101
f 103 102 152
f 121 101 103
f 202 160 158
f 158 121 103
f 103 152 154
f 154 150 194
f 197 221 223
f 154 194 197
f 158 103 154
f 201 202 158
f 241 242 201
f 243 244 241
f 247 248 243
f 232 251 247
f 227 229 230
f 230 232 247
f 247 243 241
f 241 201 158
f 158 154 197
f 223 224 225
f 158 197 223
f 247 241 158
f 227 230 247
f 225 226 227
f 158 223 225
f 227 247 158
f 258 256 181
f 132 135 139
f 139 146 145
f 231 228 215
f 216 217 237
f 231 215 216
f 251 232 231
f 245 246 250
f 250 251 231
f 231 216 237
f 249 245 250
f 231 237 249
f 522 518 516
f 516 517 519
f 519 513 515
f 515 524 525
f 522 516 519
f 515 525 522
f 83 80 257
f 259 260 262
f 83 257 259
f 278 82 83
f 283 282 279
f 279 278 83
f 83 259 262
f 262 261 85
f 83 262 85
f 283 279 83
f 284 283 83
f 83 85 84
f 83 84 86
f 285 284 83
f 317 286 285
f 314 317 285
f 83 86 277
f 285 83 277
f 315 314 285
f 313 316 315
f 309 312 311
f 311 313 315
f 285 277 280
f 285 280 281
f 311 315 285
f 263 309 311
f 264 263 311
f 311 285 281
f 311 281 310
f 308 264 311
f 447 459 483
f 482 484 487
f 447 483 482
f 470 469 447
f 477 474 475
f 470 447 482
f 487 477 475
f 475 470 482
f 409 350 351
f 388 389 390
f 409 351 388
f 164 165 167
f 163 162 164
f 44 42 163
f 77 76 44
f 67 81 77
f 65 68 67
f 63 66 65
f 61 64 63
f 182 60 59
f 59 61 63
f 59 63 65
f 184 183 182
f 186 185 184
f 188 187 186
f 192 189 188
f 275 273 192
f 192 188 186
f 192 186 184
f 67 77 44
f 44 163 164
f 44 164 167
f 65 67 44
f 59 65 44
f 409 388 390
f 390 391 392
f 393 394 395
f 390 392 393
f 59 44 167
f 182 59 167
f 409 390 393
f 395 396 397
f 409 393 395
f 184 182 167
f 192 184 167
f 409 395 397
f 492 490 491
f 409 397 492
f 192 167 506
f 275 192 506
f 506 409 492
f 491 488 489
f 506 492 491
f 276 275 506
f 506 491 489
f 489 486 487
f 487 484 485
f 485 483 493
f 493 466 465
f 489 487 485
f 349 79 91
f 353 349 91
f 353 91 268
f 450 353 268
f 506 489 485
f 506 485 493
f 450 268 276
f 464 450 276
f 506 493 465
f 465 464 276
f 290 292 280
f 418 511 505
f 505 496 495
f 505 495 500
f 405 404 418
f 403 402 405
f 406 403 405
f 505 500 499
f 499 494 398
f 399 400 497
f 499 398 399
f 406 405 418
f 504 406 418
f 499 399 497
f 497 498 501
f 504 418 505
f 499 497 501
f 501 504 505
f 57 58 70
f 69 72 74
f 57 70 69
f 67 55 57
f 74 81 67
f 57 69 74
f 303 300 299
f 299 291 294
f 294 304 303
f 526 435 434
f 434 437 530
f 527 526 530
f 298 290 90
f 302 293 292
f 540 541 552
f 552 549 536
f 536 537 540
f 543 546 545
f 547 546 543
f 538 535 534
f 534 548 550
f 277 86 90
f 290 298 301
f 539 538 550
f 536 355 356
f 356 359 360
f 534 535 537
f 536 356 360
f 360 534 537
f 553 564 563
f 563 552 541
f 541 542 545
f 563 541 545
f 553 563 545
f 553 545 546
f 554 553 546
f 547 544 575
f 554 546 547
f 597 566 555
f 555 554 547
f 547 575 579
f 578 586 597
f 547 579 578
f 597 555 547
f 565 564 553
f 555 566 565
f 452 451 455
f 455 582 570
f 188 189 190
f 190 191 181
f 181 180 177
f 177 176 174
f 174 173 172
f 172 171 184
f 185 186 187
f 172 184 185
f 177 174 172
f 190 181 177
f 187 188 190
f 172 185 187
f 190 177 172
f 577 576 572
f 579 575 572
f 568 581 580
f 329 272 267
f 580 581 589
f 589 588 587
f 581 568 539
f 262 260 265
f 265 323 312
f 312 309 262
f 585 595 594
f 586 584 594
