# Blender 4.0.2
# www.blender.org
o gopro
v -0.008987 -0.016793 0.006928
v -0.009481 -0.016790 0.007952
v -0.009045 -0.016879 0.007584
v -0.008649 -0.016914 0.008426
v -0.009481 -0.016791 0.043784
v -0.009186 -0.016856 0.043466
v -0.008645 -0.016914 0.043727
v -0.008925 -0.016802 0.044838
v -0.008800 -0.015877 0.004453
v -0.009346 -0.015641 0.004217
v -0.008654 -0.015516 0.003901
v -0.009919 -0.014973 0.003784
v -0.009008 -0.015084 0.003348
v -0.010500 -0.014486 0.004484
v -0.009732 -0.014048 0.002684
v -0.008651 -0.014626 0.002860
v -0.010068 -0.013776 0.002769
v -0.009307 -0.013509 0.002045
v -0.008593 -0.013907 0.002244
v -0.008820 -0.013088 0.001712
v -0.009747 -0.012690 0.001812
v -0.010500 -0.012688 0.002861
v -0.010517 -0.012602 0.003363
v 0.009850 -0.014658 0.002891
v 0.009646 -0.013932 0.002270
v -0.008795 -0.016267 0.005212
v -0.009466 -0.016310 0.005618
v -0.008613 -0.016577 0.006044
v -0.010076 -0.016373 0.007641
v -0.009924 -0.016359 0.006692
v -0.010001 -0.015861 0.005359
v -0.010326 -0.016013 0.007801
v -0.010531 -0.015404 0.006535
v -0.010489 -0.015693 0.007605
v -0.010531 -0.015133 0.006961
v -0.010431 -0.014875 0.007951
v -0.010521 -0.014272 0.005025
v -0.010353 -0.014371 0.006829
v 0.009948 -0.016302 0.005301
v 0.009622 -0.016569 0.006018
v -0.010326 -0.016012 0.044016
v -0.010530 -0.015127 0.045154
v -0.010352 -0.013444 0.046670
v -0.010074 -0.016376 0.043765
v -0.010431 -0.014875 0.043892
v -0.010531 -0.015384 0.045355
v -0.010359 -0.014437 0.044366
v -0.010488 -0.015694 0.044224
v -0.009974 -0.016318 0.045125
v -0.009037 -0.016612 0.045603
v -0.009190 -0.016384 0.046287
v -0.010002 -0.015785 0.046549
v -0.009361 -0.015843 0.047209
v -0.008781 -0.015830 0.047422
v -0.010488 -0.014694 0.047039
v -0.010513 -0.013845 0.047310
v 0.009575 -0.016100 0.046917
v -0.008899 -0.009535 0.000747
v -0.009011 -0.012188 0.001283
v -0.010106 -0.011960 0.001790
v -0.010352 -0.012179 0.003876
v -0.009710 -0.011224 0.001210
v -0.008599 -0.011448 0.001033
v -0.009017 -0.010543 0.000838
v -0.010535 -0.010736 0.002181
v -0.010372 -0.010241 0.003143
v -0.010033 -0.010021 0.001234
v -0.010476 -0.010039 0.001937
v -0.010535 -0.010369 0.002454
v -0.010452 -0.009735 0.002692
v -0.009773 -0.009645 0.001059
v -0.009197 -0.009549 0.000807
v -0.010259 -0.009482 0.001541
v 0.009774 -0.012187 0.001276
v 0.009641 -0.011015 0.000922
v 0.009752 -0.009914 0.000762
v -0.003895 0.001732 0.000722
v -0.000284 -0.001202 0.000723
v -0.002508 -0.000376 0.000717
v 0.001200 -0.000408 0.000448
v 0.009597 -0.016913 0.008117
v 0.010110 -0.016842 0.007416
v 0.009655 -0.016908 0.043813
v 0.010112 -0.016843 0.044123
v 0.009606 -0.016736 0.045182
v 0.009645 -0.015803 0.004325
v 0.009658 -0.015219 0.003505
v 0.009962 -0.013262 0.001818
v 0.010579 -0.016112 0.005466
v 0.010345 -0.015496 0.004092
v 0.011070 -0.015661 0.005545
v 0.010609 -0.014477 0.003098
v 0.011050 -0.014756 0.003976
v 0.011340 -0.014503 0.004661
v 0.010476 -0.013301 0.002040
v 0.011040 -0.013449 0.002722
v 0.011414 -0.014913 0.006026
v 0.009706 -0.016812 0.007016
v 0.010375 -0.016752 0.008108
v 0.010849 -0.016422 0.007337
v 0.011168 -0.016017 0.007473
v 0.011026 -0.016273 0.007896
v 0.011363 -0.015486 0.007075
v 0.011414 -0.011293 0.015833
v 0.011364 -0.015486 0.044744
v 0.010766 -0.016487 0.044080
v 0.011414 -0.014949 0.045142
v 0.010375 -0.016752 0.043734
v 0.011413 -0.011933 0.049002
v 0.009964 -0.016316 0.046457
v 0.010532 -0.016354 0.045757
v 0.011031 -0.016267 0.044213
v 0.010634 -0.015703 0.047043
v 0.011056 -0.015672 0.046254
v 0.011350 -0.014373 0.047273
v 0.009380 -0.009422 0.000746
v 0.011301 -0.012949 0.002989
v 0.010457 -0.011480 0.001226
v 0.011063 -0.011914 0.001889
v 0.011337 -0.010430 0.002063
v 0.011411 -0.011299 0.002643
v 0.010237 -0.010111 0.000884
v 0.010743 -0.010068 0.001147
v 0.010987 -0.009861 0.001349
v 0.011154 -0.010067 0.001612
v 0.011416 -0.005497 0.005400
v 0.011413 -0.007338 0.014282
v 0.011397 -0.010296 0.016333
v 0.011224 -0.008520 0.015802
v 0.011225 -0.010210 0.018628
v 0.011412 -0.011288 0.042164
v 0.011226 -0.010211 0.042203
v 0.011412 -0.010053 0.044817
v 0.011226 -0.007695 0.045084
v 0.010211 -0.002047 0.000832
v 0.011425 -0.005642 0.010593
v 0.011512 -0.005126 0.006330
v 0.011502 -0.005183 0.009416
v 0.012122 -0.004668 0.008089
v 0.011496 -0.004455 0.006019
v 0.011994 -0.004277 0.006483
v 0.012164 -0.004375 0.006897
v 0.012123 -0.004309 0.009325
v 0.011414 -0.005314 0.013046
v 0.012096 -0.004572 0.010084
v 0.011534 -0.005233 0.010998
v 0.012076 -0.004730 0.011455
v 0.011519 -0.004817 0.012408
v 0.012126 -0.004335 0.011831
v 0.011269 -0.006648 0.015186
v 0.011414 -0.007463 0.046161
v 0.011414 0.001621 0.046167
v 0.002757 -0.001162 0.000725
v 0.005239 0.000644 0.000724
v 0.010000 -0.000846 0.000759
v 0.011445 -0.000366 0.005728
v 0.012254 -0.003944 0.008319
v 0.012099 -0.001435 0.006574
v 0.012255 -0.000092 0.007355
v 0.011517 -0.000582 0.006067
v 0.012213 -0.002140 0.009705
v 0.012253 -0.001212 0.008484
v 0.012113 -0.000232 0.006803
v 0.012128 -0.000517 0.008859
v 0.012247 0.000316 0.008323
v 0.012161 -0.003927 0.009897
v 0.012114 -0.003973 0.010202
v 0.011544 -0.003679 0.010718
v 0.011520 -0.003677 0.011237
v 0.012097 -0.004137 0.010964
v 0.011833 -0.003757 0.011482
v 0.012132 -0.004017 0.011814
v 0.012002 -0.003877 0.012088
v 0.011489 -0.002890 0.012772
v 0.012126 -0.003227 0.009881
v 0.011485 -0.003149 0.010701
v 0.012125 -0.002626 0.010210
v 0.011916 -0.002722 0.012056
v 0.011641 -0.002360 0.011353
v 0.011570 -0.002552 0.011296
v 0.011488 -0.002045 0.011694
v 0.011421 -0.002309 0.012696
v 0.012170 -0.002031 0.010807
v 0.011689 -0.001685 0.011370
v 0.012107 -0.001329 0.009589
v 0.011519 -0.000525 0.009674
v 0.011691 -0.000537 0.009553
v 0.011838 -0.000751 0.009896
v 0.012182 -0.000952 0.010308
v 0.011997 -0.000556 0.010698
v 0.011965 -0.000790 0.010963
v 0.011455 -0.000464 0.011852
v 0.011835 -0.000288 0.009890
v 0.012137 -0.000186 0.010380
v 0.011363 0.015968 0.014658
v 0.011269 0.016011 0.015183
v 0.011224 0.018974 0.043643
v -0.009975 -0.015255 0.047525
v -0.009329 -0.015218 0.048158
v -0.008633 -0.015148 0.048371
v -0.009944 -0.014559 0.048453
v -0.010504 -0.013535 0.048280
v -0.009755 -0.014197 0.048952
v -0.008989 -0.014473 0.049065
v -0.010005 -0.013293 0.049424
v -0.009187 -0.013837 0.049587
v -0.008641 -0.013081 0.050080
v -0.010515 -0.011936 0.048808
v -0.010018 -0.012016 0.050089
v -0.009306 -0.012717 0.050187
v -0.010352 -0.010977 0.048253
v -0.010500 -0.012230 0.049124
v -0.008638 -0.012022 0.050571
v -0.009346 -0.011582 0.050633
v -0.010528 -0.010607 0.049664
v -0.010156 -0.010276 0.050381
v -0.009709 -0.010155 0.050771
v -0.008605 -0.010964 0.050874
v -0.010529 -0.009842 0.049423
v -0.009969 -0.009948 0.050617
v -0.009082 -0.010168 0.050992
v -0.010398 -0.009840 0.048783
v -0.010440 -0.009797 0.049929
v -0.008580 -0.009522 0.051037
v 0.009640 -0.011636 0.050703
v 0.009613 -0.009566 0.051035
v -0.009186 0.047913 0.050981
v -0.008670 0.047755 0.051035
v -0.007413 0.047410 0.051040
v -0.003523 -0.005622 0.051107
v -0.004717 -0.004917 0.051122
v -0.006013 -0.004472 0.051041
v -0.005341 -0.004032 0.051120
v -0.004408 -0.006018 0.051040
v 0.004391 -0.006028 0.051041
v -0.004004 -0.003926 0.052046
v -0.003009 -0.004914 0.051647
v 0.003136 -0.005038 0.051527
v -0.003188 -0.004199 0.052193
v -0.005636 -0.003270 0.051102
v -0.006027 0.004380 0.051040
v -0.004203 -0.003151 0.052193
v -0.005065 -0.002785 0.051507
v -0.004638 -0.002712 0.051892
v 0.009672 -0.014366 0.049166
v 0.009622 -0.015150 0.048363
v 0.009651 -0.012979 0.050138
v 0.009964 -0.015710 0.047600
v 0.011014 -0.014859 0.047737
v 0.010397 -0.015193 0.048064
v 0.010446 -0.014391 0.048915
v 0.011062 -0.014097 0.048501
v 0.011095 -0.012801 0.049400
v 0.009707 -0.013738 0.049658
v 0.010297 -0.013094 0.049947
v 0.010681 -0.012634 0.049959
v 0.009664 -0.010536 0.050950
v 0.011051 -0.011567 0.050014
v 0.010401 -0.011306 0.050642
v 0.011403 -0.010752 0.049309
v 0.011120 -0.010136 0.050242
v 0.011307 -0.010111 0.049831
v 0.010908 -0.009934 0.050502
v 0.010221 -0.010019 0.050917
v 0.010648 -0.009764 0.050724
v 0.003605 -0.005602 0.051113
v 0.006018 -0.004469 0.051041
v 0.004919 -0.004707 0.051123
v 0.005609 -0.003436 0.051108
v 0.010226 0.027925 0.050928
v 0.002719 -0.004638 0.051892
v 0.003152 -0.004202 0.052193
v 0.004106 -0.004304 0.051770
v 0.005638 0.003289 0.051102
v 0.004185 -0.003284 0.052193
v 0.005257 -0.003111 0.051346
v 0.004630 -0.002705 0.051898
v 0.004968 0.003044 0.051597
v -0.001846 0.000561 0.000382
v -0.002900 0.002059 0.000390
v -0.003956 0.011922 0.000696
v -0.003927 0.010742 0.000730
v -0.002863 0.011269 0.000357
v -0.010327 0.047492 0.001510
v -0.008638 0.047188 0.000609
v -0.003679 0.017872 0.000679
v -0.002877 0.017052 0.000343
v -0.010540 0.028735 0.002118
v -0.010540 0.029363 0.002426
v -0.009475 0.034856 0.000761
v -0.010355 0.048081 0.003104
v 0.004882 0.017046 0.000344
v 0.005440 0.018096 0.000678
v 0.004143 0.019665 0.000674
v 0.005965 0.020085 0.000668
v -0.003889 0.020319 0.000668
v -0.002877 0.021287 0.000333
v 0.004534 0.021216 0.000333
v -0.010481 0.047743 0.001811
v -0.010071 0.047505 0.001145
v -0.009183 0.033325 0.000698
v -0.002881 0.034173 0.000300
v -0.003931 0.034756 0.000638
v -0.010352 0.040886 0.036563
v -0.010432 0.047192 0.002627
v -0.002451 0.035489 0.000331
v -0.000948 0.036471 0.000297
v -0.002893 0.036341 0.000628
v -0.001233 0.037496 0.000626
v -0.010521 0.048822 0.002140
v -0.010523 0.048192 0.002395
v -0.010352 0.042795 0.017639
v -0.009482 0.047389 0.000729
v -0.010354 0.047502 0.006502
v -0.010358 0.043076 0.006852
v -0.010358 0.043036 0.011219
v -0.010445 0.043662 0.007178
v -0.010574 0.044071 0.007486
v -0.010604 0.044102 0.010788
v -0.010603 0.045913 0.007610
v -0.010586 0.046026 0.011169
v -0.010411 0.046244 0.006981
v -0.010589 0.043967 0.012356
v -0.010432 0.043353 0.012035
v -0.010455 0.043867 0.011570
v -0.010609 0.044289 0.015956
v -0.010577 0.045775 0.012222
v -0.010611 0.046818 0.013802
v -0.010424 0.046322 0.011812
v -0.010460 0.043407 0.016055
v -0.010482 0.043493 0.016927
v -0.010446 0.044108 0.016415
v -0.010605 0.044332 0.017236
v -0.010619 0.045608 0.015679
v -0.010518 0.046671 0.016316
v -0.010611 0.045849 0.017492
v -0.010569 0.046288 0.014725
v -0.010486 0.046453 0.016686
v -0.010429 0.043345 0.021192
v -0.010594 0.043954 0.022040
v -0.010605 0.043978 0.020621
v -0.010581 0.046091 0.020775
v -0.010476 0.046265 0.021269
v -0.010353 0.042877 0.026534
v -0.010458 0.043444 0.025892
v -0.010623 0.044564 0.025402
v -0.010608 0.045689 0.022313
v -0.010466 0.046254 0.026081
v -0.008990 0.048334 0.000732
v 0.009810 0.048321 0.000732
v -0.009979 0.048764 0.001263
v -0.009496 0.049611 0.001233
v -0.008609 0.049220 0.000959
v -0.010516 0.050803 0.003639
v -0.009960 0.050137 0.001759
v -0.008817 0.050099 0.001295
v -0.009310 0.051061 0.001898
v -0.010353 0.051427 0.005581
v 0.009902 0.049996 0.001250
v 0.009622 0.049385 0.001013
v -0.010506 0.046734 0.009236
v -0.010476 0.047065 0.007367
v -0.010577 0.047331 0.008203
v -0.010379 0.047889 0.008887
v -0.010583 0.048687 0.007509
v -0.010480 0.048337 0.008306
v -0.010416 0.048776 0.006908
v -0.010497 0.049430 0.007458
v -0.010536 0.049003 0.009180
v -0.010353 0.050093 0.007137
v -0.010540 0.049453 0.009561
v -0.010456 0.049624 0.009739
v -0.010353 0.050212 0.010092
v -0.010452 0.046858 0.012257
v -0.010556 0.047351 0.012639
v -0.010566 0.047454 0.009517
v -0.010437 0.047663 0.012821
v -0.010503 0.048469 0.009552
v -0.010581 0.048206 0.012452
v -0.010372 0.048789 0.010427
v -0.010517 0.048440 0.011482
v -0.010548 0.048887 0.012400
v -0.010555 0.048740 0.013374
v -0.010368 0.049405 0.012208
v -0.010449 0.046724 0.014985
v -0.010473 0.046762 0.015647
v -0.010383 0.047178 0.017005
v -0.010568 0.047392 0.014764
v -0.010412 0.047862 0.014195
v -0.010592 0.048476 0.014817
v -0.010600 0.047814 0.016841
v -0.010505 0.048676 0.015547
v -0.010618 0.048980 0.016517
v -0.010543 0.048901 0.014840
v -0.010384 0.049311 0.014995
v -0.010487 0.049570 0.015894
v -0.010354 0.050200 0.015705
v -0.010513 0.046519 0.020378
v -0.010375 0.047340 0.021507
v -0.010364 0.046985 0.019359
v -0.010542 0.048184 0.021032
v -0.010573 0.047814 0.019116
v -0.010449 0.047492 0.019649
v -0.010551 0.048370 0.020141
v -0.010603 0.049207 0.019389
v -0.010565 0.048818 0.021607
v -0.010470 0.049040 0.020537
v -0.010358 0.049875 0.019786
v -0.010353 0.049615 0.020536
v -0.010522 0.046647 0.022929
v -0.010624 0.046863 0.024098
v -0.010515 0.046733 0.025342
v -0.010547 0.047260 0.022377
v -0.010549 0.047292 0.025846
v -0.010552 0.047441 0.023132
v -0.010425 0.047678 0.023387
v -0.010565 0.047340 0.025120
v -0.010486 0.047982 0.021967
v -0.010486 0.048071 0.023290
v -0.010473 0.047820 0.025001
v -0.010507 0.048236 0.026037
v -0.010551 0.048472 0.022312
v -0.010574 0.048782 0.025312
v -0.010464 0.049022 0.022341
v -0.010425 0.049107 0.025624
v -0.010353 0.049188 0.026600
v -0.010361 0.047175 0.026553
v -0.010352 0.052260 0.044676
v -0.010352 0.049059 0.043468
v -0.010363 0.046850 0.044524
v -0.010352 0.049159 0.048238
v -0.010502 0.048278 0.044710
v -0.010354 0.049352 0.045931
v -0.010468 0.050530 0.002825
v -0.010514 0.051610 0.003888
v -0.008793 0.050960 0.001755
v -0.009992 0.051000 0.002314
v -0.008638 0.051725 0.002309
v -0.009676 0.052158 0.003003
v -0.008996 0.052273 0.002810
v -0.010043 0.052614 0.003891
v -0.010501 0.052431 0.004998
v -0.009565 0.052950 0.003866
v -0.008952 0.052957 0.003585
v -0.008645 0.053538 0.004475
v -0.009390 0.053636 0.004872
v 0.009620 0.053530 0.004461
v -0.010514 0.052265 0.005762
v -0.010392 0.052125 0.006908
v -0.010520 0.053088 0.006770
v -0.010527 0.052851 0.007639
v -0.010019 0.053540 0.005552
v -0.010447 0.053340 0.007646
v -0.008644 0.053886 0.005211
v -0.008773 0.054179 0.006022
v -0.009984 0.054031 0.007453
v -0.010218 0.053734 0.007976
v -0.009396 0.054109 0.006095
v -0.009188 0.054409 0.007471
v -0.008614 0.054395 0.007012
v -0.009733 0.054193 0.007664
v -0.008637 0.054475 0.007958
v 0.009643 0.054470 0.007688
v -0.010424 0.052629 0.025687
v -0.010540 0.053241 0.023581
v -0.003341 0.054665 0.022559
v -0.010503 0.053516 0.029217
v -0.008682 0.054595 0.017047
v -0.009117 0.054562 0.017418
v -0.009726 0.054318 0.017528
v -0.010352 0.052254 0.029208
v -0.010530 0.052936 0.026531
v -0.010076 0.054185 0.027214
v -0.009493 0.054595 0.027044
v -0.010357 0.053783 0.028015
v -0.009897 0.054555 0.043357
v -0.010509 0.052998 0.038742
v -0.010524 0.053332 0.043550
v -0.010519 0.053644 0.044410
v -0.010106 0.054359 0.043572
v -0.010427 0.052820 0.044013
v -0.010404 0.053902 0.043965
v -0.010371 0.051199 0.047048
v -0.010519 0.052784 0.046003
v -0.010487 0.052779 0.046961
v -0.010089 0.054066 0.045714
v -0.009616 0.054044 0.046632
v -0.009045 0.054072 0.047021
v -0.009417 0.054624 0.045304
v -0.008608 0.054508 0.046041
v 0.009592 0.054568 0.045850
v 0.009766 0.054117 0.046939
v 0.003821 0.054666 0.022569
v -0.005140 0.054694 0.024220
v -0.003682 0.054848 0.023723
v -0.009619 0.054735 0.044090
v -0.004686 0.054777 0.031736
v -0.003860 0.054848 0.031866
v -0.008620 0.054930 0.043718
v -0.009179 0.054877 0.043725
v -0.004989 0.054798 0.032825
v -0.001282 0.054870 0.038837
v 0.002666 0.054862 0.038057
v 0.000450 0.054892 0.042241
v -0.001055 0.054933 0.043090
v -0.002172 0.054914 0.043921
v -0.008895 0.054811 0.044854
v -0.000265 0.054866 0.044460
v 0.003464 0.000397 0.000390
v 0.004308 0.001234 0.000381
v 0.004989 0.002626 0.000404
v 0.006002 0.002417 0.000715
v 0.011363 0.034954 0.002054
v 0.012111 0.000615 0.006542
v 0.012247 0.004246 0.007320
v 0.012256 0.002688 0.008347
v 0.011514 0.004416 0.006050
v 0.012104 0.003541 0.006552
v 0.012155 0.004268 0.009333
v 0.012117 0.000295 0.009489
v 0.012157 0.000193 0.010764
v 0.012167 -0.000058 0.011239
v 0.011430 0.000235 0.012300
v 0.012127 0.000853 0.009909
v 0.011498 0.001023 0.010720
v 0.011846 0.000799 0.010472
v 0.012092 0.000671 0.011231
v 0.011978 0.000847 0.011520
v 0.011725 0.000895 0.011979
v 0.012192 0.002741 0.009291
v 0.011738 0.001601 0.010381
v 0.011778 0.001509 0.011052
v 0.012122 0.002178 0.009922
v 0.011510 0.002122 0.010730
v 0.011492 0.003118 0.012179
v 0.011767 0.002246 0.010699
v 0.012066 0.002402 0.011383
v 0.011996 0.003174 0.009673
v 0.012098 0.003159 0.009908
v 0.012122 0.002798 0.010652
v 0.012112 0.003408 0.011340
v 0.011442 0.003322 0.012554
v 0.012237 0.004274 0.010481
v 0.012095 0.004042 0.011925
v 0.011431 0.003825 0.012817
v 0.011758 0.004004 0.012468
v 0.011415 0.007075 0.046145
v 0.011459 0.005058 0.046945
v 0.011420 0.007540 0.005633
v 0.011414 0.011695 0.002605
v 0.012119 0.004424 0.006798
v 0.012208 0.004913 0.008685
v 0.011955 0.004869 0.009200
v 0.012094 0.005722 0.006580
v 0.012248 0.009261 0.008363
v 0.011990 0.007189 0.009105
v 0.012044 0.008368 0.006542
v 0.012251 0.008978 0.007319
v 0.011503 0.009260 0.006073
v 0.012114 0.008037 0.009056
v 0.012121 0.004255 0.009878
v 0.011994 0.004630 0.011367
v 0.012118 0.004495 0.011708
v 0.011475 0.005190 0.009656
v 0.012096 0.004944 0.010722
v 0.011974 0.005114 0.011046
v 0.011480 0.007334 0.012736
v 0.011599 0.005535 0.010091
v 0.012130 0.006933 0.011711
v 0.011415 0.008057 0.013078
v 0.011515 0.006780 0.010013
v 0.012166 0.006482 0.010642
v 0.012136 0.007071 0.011001
v 0.011985 0.006759 0.011321
v 0.011840 0.006913 0.012348
v 0.011500 0.007405 0.009636
v 0.011549 0.007385 0.010213
v 0.011990 0.007629 0.010723
v 0.011574 0.007722 0.009981
v 0.011506 0.008218 0.012160
v 0.012145 0.007406 0.011832
v 0.012151 0.007995 0.011239
v 0.011224 0.017631 0.015765
v 0.009188 0.014611 0.000687
v 0.011154 0.034930 0.001508
v 0.010427 0.047068 0.000790
v 0.012115 0.008495 0.009650
v 0.012161 0.009088 0.006868
v 0.012151 0.009316 0.008788
v 0.012036 0.010395 0.006560
v 0.012068 0.010399 0.009235
v 0.011469 0.013416 0.006000
v 0.012199 0.011853 0.009587
v 0.011906 0.008916 0.010145
v 0.012149 0.008688 0.010942
v 0.012109 0.009104 0.011343
v 0.011415 0.008720 0.012550
v 0.011500 0.009409 0.009686
v 0.011509 0.009448 0.010743
v 0.011877 0.009250 0.010953
v 0.011729 0.009298 0.011979
v 0.011499 0.009936 0.009659
v 0.012058 0.009805 0.011303
v 0.011489 0.010648 0.012215
v 0.012121 0.010479 0.010041
v 0.012170 0.010169 0.011223
v 0.012123 0.010804 0.009624
v 0.012160 0.010703 0.010776
v 0.012112 0.011266 0.010032
v 0.011505 0.011525 0.010721
v 0.011737 0.011400 0.010688
v 0.012018 0.011349 0.011469
v 0.011856 0.012044 0.010255
v 0.011785 0.012017 0.011049
v 0.011742 0.012756 0.011962
v 0.012147 0.012727 0.009897
v 0.011506 0.012624 0.010731
v 0.011415 0.014017 0.012548
v 0.011413 0.017475 0.014308
v 0.011416 0.022271 0.048282
v 0.010709 0.035666 0.001017
v 0.012091 0.013235 0.006671
v 0.012240 0.012820 0.009147
v 0.011416 0.014573 0.005792
v 0.012098 0.013630 0.008573
v 0.011499 0.014106 0.006350
v 0.012143 0.013577 0.007095
v 0.011486 0.014163 0.009171
v 0.011765 0.012747 0.010702
v 0.012100 0.012946 0.011354
v 0.011497 0.013733 0.012067
v 0.012121 0.013219 0.009589
v 0.012102 0.013654 0.010627
v 0.012098 0.013327 0.010647
v 0.012064 0.013547 0.011295
v 0.011535 0.014117 0.010115
v 0.011533 0.014134 0.011170
v 0.011418 0.014833 0.010704
v 0.011409 0.016863 0.046123
v 0.005982 0.017104 0.000675
v 0.011412 0.019993 0.016747
v 0.011225 0.019440 0.017997
v 0.011410 0.020682 0.018836
v 0.011249 0.019687 0.041536
v 0.011387 0.020508 0.041713
v 0.011226 0.016557 0.045099
v 0.011410 0.019456 0.044625
v 0.011434 0.021569 0.045699
v 0.004966 0.021342 0.000366
v 0.011414 0.033760 0.002584
v 0.011418 0.021516 0.022806
v 0.011502 0.022512 0.021814
v 0.011539 0.023309 0.020769
v 0.012311 0.023620 0.021208
v 0.011844 0.023852 0.020661
v 0.012338 0.024127 0.020651
v 0.011521 0.024161 0.019861
v 0.011415 0.024224 0.019019
v 0.012084 0.024741 0.020111
v 0.016296 0.023782 0.021005
v 0.016574 0.023887 0.021803
v 0.016303 0.024660 0.020180
v 0.016538 0.024746 0.020700
v 0.011455 0.021257 0.025653
v 0.011544 0.022046 0.022999
v 0.011518 0.021553 0.024315
v 0.011811 0.021807 0.025292
v 0.012338 0.022033 0.025357
v 0.012109 0.022202 0.024073
v 0.012057 0.022068 0.024926
v 0.012087 0.023075 0.021954
v 0.012114 0.022581 0.022922
v 0.016282 0.022035 0.025474
v 0.016405 0.022546 0.023315
v 0.015983 0.022202 0.024097
v 0.016439 0.022301 0.025031
v 0.015995 0.023077 0.021972
v 0.016395 0.023151 0.022063
v 0.015954 0.022610 0.022858
v 0.016583 0.022844 0.023851
v 0.016557 0.023308 0.024516
v 0.016403 0.024299 0.024551
v 0.012332 0.022032 0.043921
v 0.016285 0.022034 0.043815
v 0.011812 0.021806 0.043749
v 0.016438 0.022293 0.044074
v 0.011492 0.021495 0.043677
v 0.016403 0.024290 0.044646
v 0.016583 0.022859 0.045414
v 0.016563 0.023321 0.044903
v 0.012056 0.022070 0.044403
v 0.011856 0.022180 0.045896
v 0.012308 0.022236 0.045350
v 0.011502 0.022302 0.047128
v 0.012110 0.022550 0.046329
v 0.015985 0.022189 0.045167
v 0.016411 0.022540 0.045990
v 0.015967 0.022587 0.046419
v 0.016405 0.023070 0.047092
v 0.016587 0.023841 0.047263
v 0.004989 0.033973 0.000340
v 0.005986 0.034168 0.000640
v 0.011415 0.027864 0.017491
v 0.011500 0.025539 0.018884
v 0.011947 0.025252 0.019616
v 0.012325 0.025491 0.019588
v 0.011502 0.026990 0.018250
v 0.011882 0.026830 0.018754
v 0.012113 0.026367 0.019140
v 0.012307 0.027383 0.018807
v 0.011503 0.028842 0.018075
v 0.011813 0.028757 0.018356
v 0.012338 0.028831 0.018581
v 0.012056 0.028373 0.018623
v 0.016039 0.025549 0.019559
v 0.016373 0.025613 0.019626
v 0.016588 0.026233 0.019940
v 0.016555 0.025208 0.021712
v 0.016084 0.026713 0.019011
v 0.016369 0.026721 0.019103
v 0.016580 0.027308 0.019394
v 0.015926 0.028251 0.018639
v 0.016437 0.028445 0.018849
v 0.016571 0.027629 0.020005
v 0.016402 0.027419 0.021044
v 0.016288 0.028953 0.018583
v 0.016402 0.027059 0.047971
v 0.004287 0.035454 0.000298
v 0.010130 0.047653 0.000686
v 0.016482 0.029888 0.020226
v 0.016499 0.046233 0.020121
v 0.016402 0.049631 0.047945
v 0.002691 0.036470 0.000297
v 0.003321 0.037469 0.000632
v 0.004787 0.036475 0.000627
v 0.009610 0.047174 0.000611
v 0.011414 0.037166 0.008847
v 0.011414 0.041526 0.009347
v 0.011413 0.035784 0.013044
v 0.011388 0.036879 0.010133
v 0.011400 0.037154 0.011408
v 0.011419 0.037469 0.012878
v 0.011404 0.037203 0.014140
v 0.011497 0.047688 0.018065
v 0.016442 0.048007 0.018850
v 0.011172 0.047800 0.001513
v 0.011413 0.049070 0.002623
v 0.011365 0.047899 0.002049
v 0.011391 0.040071 0.009801
v 0.011398 0.039285 0.011346
v 0.011419 0.039557 0.012832
v 0.011413 0.041440 0.011654
v 0.011404 0.041521 0.013869
v 0.011416 0.049359 0.017534
v 0.011408 0.039540 0.014264
v 0.012338 0.047709 0.018582
v 0.011811 0.047673 0.018354
v 0.016283 0.047692 0.018583
v 0.016583 0.049252 0.019403
v 0.011029 0.047397 0.001255
v 0.010835 0.048491 0.001227
v 0.010445 0.049396 0.001205
v 0.011189 0.050192 0.002328
v 0.011005 0.050232 0.002007
v 0.011337 0.050925 0.003264
v 0.012067 0.048383 0.018655
v 0.011509 0.049501 0.018270
v 0.011899 0.049797 0.018827
v 0.012343 0.049290 0.018851
v 0.011487 0.051250 0.019013
v 0.012159 0.050156 0.019148
v 0.016402 0.048783 0.021012
v 0.016580 0.049347 0.020094
v 0.015996 0.048846 0.018742
v 0.016390 0.049883 0.019127
v 0.016080 0.050021 0.019093
v 0.016573 0.050968 0.020206
v 0.016564 0.051834 0.022137
v 0.009787 0.050946 0.001748
v 0.009652 0.051719 0.002305
v 0.009681 0.052312 0.002847
v 0.009793 0.052934 0.003556
v 0.010471 0.050424 0.001673
v 0.010408 0.051742 0.002520
v 0.011065 0.051732 0.003226
v 0.011414 0.052587 0.006354
v 0.010458 0.052495 0.003311
v 0.011049 0.052895 0.004651
v 0.011333 0.052657 0.005513
v 0.010396 0.053222 0.004265
v 0.010481 0.053593 0.004995
v 0.009639 0.054024 0.005544
v 0.009613 0.054311 0.006549
v 0.011047 0.053514 0.006121
v 0.011313 0.053253 0.007452
v 0.010369 0.054093 0.006210
v 0.011115 0.053673 0.007234
v 0.010794 0.054062 0.007801
v 0.010245 0.054351 0.007520
v 0.011412 0.052735 0.019154
v 0.011153 0.053778 0.020898
v 0.010743 0.054266 0.022496
v 0.010038 0.054592 0.019859
v 0.011365 0.053260 0.020520
v 0.010989 0.054053 0.022132
v 0.009636 0.054594 0.017054
v 0.011937 0.051264 0.019581
v 0.012364 0.050992 0.019569
v 0.012368 0.051893 0.020200
v 0.012065 0.052291 0.020541
v 0.011547 0.052748 0.020306
v 0.012083 0.052955 0.021272
v 0.011736 0.053345 0.021601
v 0.010148 0.054595 0.022710
v 0.016300 0.050994 0.019589
v 0.016411 0.051432 0.020027
v 0.016010 0.051846 0.020163
v 0.016429 0.051967 0.020505
v 0.016026 0.052467 0.020725
v 0.016428 0.052492 0.021021
v 0.016581 0.053290 0.022963
v 0.016008 0.053014 0.021356
v 0.016424 0.053052 0.021673
v 0.011881 0.053579 0.022208
v 0.011417 0.054029 0.023143
v 0.010524 0.054504 0.024500
v 0.011232 0.054350 0.024316
v 0.011358 0.054475 0.025444
v 0.016403 0.051483 0.023252
v 0.016402 0.052254 0.025006
v 0.016264 0.053560 0.022212
v 0.016417 0.053790 0.023056
v 0.016246 0.054074 0.023293
v 0.016583 0.053806 0.024325
v 0.016427 0.054254 0.024551
v 0.016008 0.054355 0.024343
v 0.015994 0.054474 0.025490
v 0.010769 0.054539 0.031989
v 0.016429 0.054260 0.044496
v 0.011312 0.054470 0.043805
v 0.016402 0.052248 0.044565
v 0.016582 0.053327 0.046154
v 0.010957 0.054532 0.043954
v 0.016582 0.053807 0.045115
v 0.015978 0.054476 0.044093
v 0.011293 0.053623 0.047042
v 0.011296 0.054374 0.044866
v 0.010221 0.054659 0.045156
v 0.011128 0.054106 0.045949
v 0.010524 0.054060 0.046612
v 0.016566 0.052080 0.046933
v 0.016300 0.054096 0.045938
v 0.016414 0.053764 0.046325
v 0.016277 0.053615 0.047039
v 0.003995 0.054848 0.023805
v 0.005485 0.054692 0.024582
v 0.009645 0.054734 0.028586
v 0.004483 0.054844 0.031707
v 0.007145 0.054799 0.033187
v 0.010286 0.054661 0.031294
v 0.004951 0.054791 0.032205
v 0.009640 0.054915 0.043746
v 0.006872 0.054929 0.043375
v 0.010275 0.054801 0.043885
v 0.001396 0.054939 0.043612
v 0.002820 0.054917 0.043839
v 0.002735 0.054803 0.044911
v 0.009632 0.054809 0.044866
v -0.005621 0.003518 0.051108
v -0.005052 0.004578 0.051125
v -0.004906 0.003005 0.051654
v -0.004200 0.003183 0.052193
v -0.003926 0.004004 0.052046
v -0.003115 0.004215 0.052193
v -0.009973 0.048162 0.050614
v -0.010398 0.047834 0.048781
v -0.010178 0.047724 0.050355
v -0.004459 0.006014 0.051040
v -0.003560 0.005618 0.051106
v 0.004295 0.006035 0.051040
v -0.003030 0.004998 0.051569
v -0.010439 0.048468 0.049929
v -0.010529 0.048480 0.049666
v -0.010528 0.047921 0.049425
v -0.009707 0.047965 0.050772
v -0.008622 0.048834 0.050905
v -0.010506 0.050357 0.049091
v -0.009511 0.049336 0.050642
v -0.008986 0.049855 0.050636
v -0.010032 0.050068 0.050043
v -0.009460 0.050834 0.050097
v 0.008943 0.050349 0.050441
v -0.010512 0.050031 0.048790
v -0.008674 0.050965 0.050156
v -0.010518 0.051332 0.048409
v -0.010055 0.051312 0.049358
v -0.009665 0.052038 0.049180
v -0.008910 0.051886 0.049570
v -0.010069 0.052481 0.048352
v -0.009005 0.052509 0.049054
v -0.008985 0.053019 0.048537
v -0.009927 0.053178 0.047762
v -0.009471 0.053609 0.047577
v -0.008612 0.053540 0.047891
v 0.009615 0.053511 0.047929
v 0.009839 0.051915 0.049550
v 0.005197 0.004365 0.051114
v 0.006802 0.027387 0.051040
v 0.004203 0.003149 0.052193
v 0.003274 0.004192 0.052192
v 0.004304 0.004106 0.051770
v 0.004139 0.005248 0.051139
v 0.003454 0.005628 0.051103
v 0.005991 0.004904 0.051040
v 0.011416 0.004590 0.048437
v 0.010906 0.025792 0.050507
v 0.011127 0.025015 0.050234
v 0.002964 0.004917 0.051645
v 0.010649 0.025915 0.050724
v 0.012069 0.023032 0.047296
v 0.011870 0.023653 0.048434
v 0.011470 0.023515 0.048961
v 0.012343 0.023806 0.048347
v 0.011338 0.023863 0.049768
v 0.011890 0.024386 0.049126
v 0.012384 0.024659 0.049156
v 0.011537 0.024597 0.049649
v 0.012058 0.025293 0.049617
v 0.015988 0.023112 0.047413
v 0.016076 0.023603 0.048103
v 0.016393 0.023685 0.048071
v 0.016329 0.024116 0.048657
v 0.016563 0.024848 0.048578
v 0.016291 0.024563 0.049071
v 0.016561 0.026473 0.048817
v 0.016417 0.025241 0.049312
v 0.009668 0.026919 0.051033
v 0.011272 0.026363 0.050361
v 0.011836 0.026452 0.050224
v 0.010989 0.027848 0.050628
v 0.010756 0.028922 0.050802
v 0.011285 0.028928 0.050746
v 0.015982 0.025514 0.049752
v 0.016415 0.025748 0.049731
v 0.016577 0.026847 0.049732
v 0.016223 0.026378 0.050184
v 0.016403 0.027351 0.050335
v 0.016242 0.027845 0.050626
v 0.016371 0.028804 0.050682
v 0.016526 0.028840 0.050356
v 0.016011 0.028948 0.050746
v 0.016413 0.029827 0.048793
v 0.006962 0.047383 0.051039
v 0.016582 0.049197 0.049822
v 0.011288 0.047627 0.050745
v 0.010721 0.047808 0.050816
v 0.016411 0.046722 0.048780
v 0.016009 0.047587 0.050746
v 0.016368 0.048241 0.050678
v 0.016504 0.048471 0.050375
v 0.009674 0.047798 0.051026
v 0.009831 0.049805 0.050651
v 0.009783 0.048874 0.050880
v 0.011024 0.048788 0.050603
v 0.011018 0.050141 0.050192
v 0.015908 0.048885 0.050586
v 0.016574 0.049391 0.049101
v 0.015972 0.050370 0.050084
v 0.016403 0.049981 0.050133
v 0.009833 0.051146 0.050054
v 0.011114 0.051276 0.049582
v 0.009878 0.052496 0.049065
v 0.011115 0.051957 0.049074
v 0.011086 0.053041 0.047941
v 0.009748 0.053033 0.048522
v 0.011095 0.052532 0.048534
v 0.010353 0.053350 0.047943
v 0.015964 0.051387 0.049501
v 0.016412 0.051070 0.049557
v 0.016572 0.051808 0.048510
v 0.016272 0.051981 0.049046
v 0.016304 0.052456 0.048587
v 0.015974 0.053163 0.047791
v 0.016416 0.052967 0.047723
s 1
f 4 3 81
f 5 3 6
f 6 4 7
f 11 9 10
f 13 10 12
f 14 12 31
f 13 12 15
f 12 17 15
f 19 13 18
f 23 14 37
f 18 15 21
f 19 20 88
f 25 19 88
f 30 1 2
f 29 30 2
f 2 1 3
f 27 31 10
f 26 10 9
f 30 31 27
f 34 31 29
f 32 34 29
f 14 31 33
f 37 14 33
f 37 33 35
f 38 37 35
f 61 37 38
f 28 39 40
f 29 2 5
f 34 32 41
f 36 35 42
f 41 29 44
f 38 36 45
f 42 33 46
f 43 38 47
f 46 34 48
f 49 44 5
f 49 5 8
f 50 49 8
f 41 44 49
f 52 51 53
f 48 41 49
f 52 46 49
f 43 47 42
f 42 56 43
f 50 8 85
f 57 51 110
f 21 17 60
f 59 21 62
f 65 60 22
f 69 22 23
f 62 60 67
f 68 60 65
f 62 67 71
f 64 71 72
f 58 64 72
f 68 73 67
f 20 59 74
f 74 59 63
f 74 63 75
f 63 64 75
f 75 64 76
f 78 58 79
f 58 77 79
f 78 79 80
f 3 1 98
f 3 98 81
f 83 82 84
f 7 81 83
f 8 83 85
f 11 87 86
f 13 24 87
f 24 19 25
f 88 20 74
f 86 90 39
f 87 24 90
f 93 90 92
f 24 25 95
f 93 92 96
f 117 93 96
f 94 93 117
f 94 117 97
f 117 96 119
f 1 40 98
f 39 9 86
f 82 40 39
f 100 82 89
f 101 100 91
f 94 91 93
f 103 94 97
f 100 102 112
f 101 103 105
f 99 100 106
f 105 97 107
f 84 99 108
f 107 104 109
f 51 85 110
f 111 85 84
f 110 85 111
f 111 112 114
f 113 110 111
f 115 105 107
f 58 116 76
f 119 95 118
f 117 120 121
f 118 122 123
f 119 123 124
f 125 119 124
f 120 119 125
f 122 75 76
f 97 126 127
f 128 104 127
f 128 127 129
f 104 128 130
f 133 131 132
f 116 58 78
f 122 76 135
f 123 122 135
f 138 126 137
f 137 140 141
f 142 137 141
f 139 137 142
f 127 136 144
f 146 136 138
f 136 146 148
f 148 146 147
f 145 138 143
f 149 147 145
f 151 133 134
f 116 78 153
f 140 126 156
f 139 142 157
f 142 158 159
f 140 156 160
f 157 159 162
f 163 158 160
f 143 157 166
f 167 145 166
f 170 168 169
f 149 167 170
f 172 170 171
f 149 170 172
f 172 171 173
f 149 173 148
f 175 167 166
f 176 168 167
f 176 167 175
f 169 168 176
f 176 175 177
f 169 176 180
f 178 171 180
f 173 178 174
f 183 179 177
f 178 180 179
f 177 161 183
f 183 184 179
f 184 181 179
f 185 161 162
f 189 161 185
f 185 164 187
f 185 162 164
f 185 187 188
f 189 185 188
f 190 189 188
f 191 184 183
f 193 186 187
f 188 186 193
f 190 188 193
f 522 190 194
f 191 190 192
f 127 144 182
f 150 195 196
f 198 53 199
f 199 54 200
f 198 55 52
f 199 201 198
f 55 56 46
f 201 55 198
f 204 201 199
f 200 204 199
f 202 56 55
f 201 202 55
f 205 202 201
f 206 205 203
f 207 210 206
f 207 206 254
f 212 208 202
f 205 212 202
f 209 212 205
f 210 209 205
f 213 210 207
f 208 211 43
f 209 215 212
f 218 214 213
f 215 219 212
f 220 216 209
f 217 220 209
f 221 217 214
f 218 221 214
f 222 211 208
f 219 222 208
f 216 223 215
f 227 217 221
f 228 221 224
f 234 232 224
f 231 232 230
f 230 234 235
f 236 231 230
f 239 230 237
f 240 232 233
f 241 224 232
f 242 233 236
f 243 240 233
f 244 233 242
f 871 243 244
f 239 242 236
f 874 242 239
f 874 239 272
f 874 872 242
f 206 204 245
f 54 57 248
f 200 248 246
f 245 200 246
f 248 57 110
f 113 250 248
f 251 246 250
f 251 254 245
f 255 254 251
f 251 252 256
f 213 207 247
f 225 213 247
f 226 221 257
f 258 256 253
f 253 109 258
f 255 225 247
f 256 258 259
f 259 257 225
f 261 263 259
f 264 257 259
f 234 224 226
f 235 234 226
f 226 267 235
f 267 268 266
f 270 226 264
f 266 238 230
f 237 238 271
f 266 272 238
f 268 273 266
f 268 275 273
f 276 277 275
f 276 269 274
f 275 277 909
f 79 77 280
f 61 38 43
f 77 58 281
f 282 77 281
f 279 283 292
f 58 285 281
f 282 281 283
f 281 285 286
f 283 281 287
f 289 288 69
f 71 67 290
f 291 70 66
f 61 291 66
f 287 286 293
f 293 286 294
f 294 296 295
f 298 296 297
f 68 288 299
f 299 284 68
f 284 300 67
f 285 58 301
f 290 301 58
f 305 289 70
f 306 302 303
f 303 285 308
f 307 302 306
f 307 306 308
f 734 309 285
f 311 310 289
f 312 211 304
f 301 290 313
f 314 291 61
f 315 61 211
f 319 317 316
f 314 61 315
f 319 320 318
f 322 318 320
f 322 314 317
f 329 323 327
f 321 320 319
f 329 321 325
f 324 316 312
f 331 332 330
f 330 326 323
f 331 333 338
f 338 332 331
f 334 328 323
f 332 335 326
f 334 337 328
f 339 340 343
f 336 333 341
f 343 342 341
f 344 312 304
f 340 339 345
f 345 312 344
f 345 346 340
f 347 340 346
f 348 346 345
f 344 348 345
f 313 300 351
f 349 313 351
f 291 311 305
f 349 351 352
f 354 311 291
f 353 349 352
f 351 355 352
f 310 355 351
f 354 310 311
f 352 355 357
f 434 355 310
f 353 356 359
f 361 362 322
f 363 362 361
f 362 365 367
f 367 314 362
f 366 365 363
f 367 365 368
f 370 291 314
f 370 314 367
f 369 368 365
f 372 370 368
f 329 361 321
f 328 374 327
f 328 375 374
f 374 376 361
f 378 376 375
f 377 379 375
f 383 377 389
f 381 380 378
f 379 381 378
f 371 369 372
f 380 369 378
f 381 382 384
f 335 386 334
f 338 335 332
f 386 388 385
f 388 377 375
f 391 388 335
f 392 390 391
f 384 382 394
f 394 383 390
f 392 394 390
f 393 396 392
f 395 373 384
f 397 395 396
f 398 336 342
f 399 342 343
f 400 338 398
f 401 398 342
f 403 391 387
f 403 400 398
f 404 402 403
f 404 403 398
f 401 404 398
f 402 393 391
f 405 402 404
f 406 404 401
f 406 407 404
f 409 404 407
f 397 396 408
f 411 347 346
f 412 346 348
f 410 413 399
f 417 411 412
f 415 413 410
f 415 410 411
f 416 415 417
f 415 422 413
f 416 419 415
f 421 417 414
f 422 401 418
f 423 419 420
f 423 420 421
f 423 424 422
f 409 407 424
f 409 424 425
f 471 409 426
f 414 412 427
f 421 414 427
f 426 427 471
f 421 425 423
f 426 425 421
f 432 429 430
f 433 432 430
f 433 429 432
f 356 357 436
f 354 434 310
f 434 437 355
f 436 357 438
f 440 357 439
f 440 438 357
f 439 437 441
f 439 441 443
f 444 439 443
f 442 441 435
f 446 445 444
f 447 444 445
f 358 291 370
f 448 354 358
f 358 370 373
f 448 442 354
f 449 448 358
f 451 448 449
f 450 452 442
f 458 446 452
f 455 446 458
f 453 456 450
f 456 458 452
f 459 455 458
f 459 458 461
f 792 454 455
f 462 463 460
f 465 453 450
f 358 373 397
f 471 464 449
f 457 453 467
f 469 468 459
f 470 469 461
f 466 462 468
f 472 465 451
f 473 470 456
f 471 408 409
f 473 457 475
f 428 464 471
f 477 478 472
f 479 475 467
f 478 479 467
f 476 473 480
f 481 477 464
f 482 480 475
f 428 304 429
f 428 429 433
f 484 428 483
f 486 479 485
f 486 496 480
f 488 489 487
f 488 490 489
f 494 468 501
f 496 474 476
f 469 474 496
f 855 495 498
f 497 495 494
f 500 499 469
f 499 501 468
f 503 501 502
f 506 505 502
f 506 502 499
f 508 499 507
f 867 508 507
f 490 867 507
f 80 279 509
f 509 279 510
f 154 153 509
f 116 154 512
f 116 512 584
f 512 154 511
f 76 116 584
f 126 550 549
f 159 163 514
f 165 515 516
f 160 549 517
f 514 517 518
f 515 514 518
f 193 187 520
f 194 193 520
f 521 194 520
f 192 522 523
f 520 165 524
f 521 526 527
f 529 522 528
f 531 525 526
f 524 530 533
f 531 533 536
f 532 534 536
f 537 532 536
f 529 537 535
f 541 537 540
f 523 542 545
f 530 519 538
f 543 539 519
f 541 543 544
f 542 544 546
f 130 129 583
f 152 134 547
f 512 511 292
f 121 513 550
f 518 517 551
f 516 515 552
f 552 553 519
f 515 551 554
f 552 515 555
f 515 554 558
f 560 556 552
f 552 555 560
f 517 549 559
f 563 543 562
f 561 553 564
f 543 564 565
f 572 565 571
f 573 566 565
f 565 572 573
f 562 566 574
f 575 567 546
f 546 544 575
f 569 544 563
f 556 576 564
f 572 571 578
f 569 574 573
f 581 575 569
f 571 576 579
f 569 573 582
f 581 569 582
f 567 575 581
f 579 560 587
f 578 579 582
f 129 196 583
f 130 583 197
f 513 125 585
f 135 155 586
f 588 557 559
f 589 555 591
f 559 549 592
f 596 582 595
f 594 587 598
f 594 598 599
f 595 594 600
f 596 595 600
f 599 598 602
f 599 602 603
f 600 599 603
f 601 596 603
f 597 580 604
f 605 602 591
f 606 602 605
f 591 593 607
f 608 605 607
f 607 593 609
f 612 608 611
f 612 604 606
f 613 610 611
f 123 586 621
f 590 592 622
f 558 622 627
f 558 627 623
f 549 550 624
f 623 627 625
f 632 623 625
f 622 626 627
f 638 626 624
f 624 650 638
f 593 623 616
f 613 616 629
f 614 617 629
f 630 614 629
f 618 604 631
f 630 634 633
f 615 635 631
f 632 628 636
f 637 633 636
f 635 637 631
f 636 628 638
f 618 631 638
f 547 646 639
f 584 512 640
f 640 292 293
f 584 640 293
f 584 293 294
f 196 195 619
f 619 650 641
f 642 583 641
f 643 642 641
f 197 642 644
f 644 643 645
f 197 645 647
f 647 645 648
f 550 513 650
f 641 650 643
f 651 658 652
f 643 650 658
f 653 658 657
f 653 657 655
f 655 656 654
f 657 658 704
f 650 703 658
f 705 657 704
f 659 657 705
f 660 656 662
f 663 660 662
f 661 660 663
f 643 651 664
f 666 651 665
f 665 651 652
f 670 667 669
f 672 652 671
f 669 679 675
f 676 675 674
f 668 670 673
f 679 671 677
f 679 678 674
f 683 673 684
f 666 667 685
f 684 676 686
f 645 664 687
f 681 682 688
f 685 668 683
f 686 680 689
f 689 681 690
f 691 687 685
f 683 691 685
f 692 694 648
f 695 692 693
f 691 684 696
f 696 686 697
f 695 696 698
f 699 698 697
f 699 689 700
f 700 689 690
f 701 298 728
f 702 649 701
f 124 621 760
f 585 124 760
f 659 705 706
f 704 658 703
f 704 703 707
f 704 707 708
f 709 704 708
f 709 708 710
f 710 708 714
f 707 711 712
f 714 707 712
f 715 662 706
f 662 715 716
f 663 662 716
f 661 717 718
f 716 715 720
f 717 716 720
f 718 717 724
f 718 724 725
f 717 721 724
f 719 710 722
f 723 719 722
f 721 720 723
f 713 726 722
f 722 726 723
f 681 718 725
f 155 736 729
f 724 721 730
f 730 721 731
f 728 302 733
f 733 309 734
f 701 728 735
f 736 735 734
f 584 702 736
f 737 650 738
f 650 737 739
f 739 740 741
f 741 740 737
f 703 739 743
f 743 739 742
f 711 703 744
f 723 726 745
f 713 756 726
f 585 760 746
f 650 513 747
f 513 746 748
f 737 738 749
f 750 741 749
f 742 750 751
f 750 738 752
f 751 752 753
f 755 742 751
f 713 712 756
f 712 711 757
f 725 731 772
f 726 756 758
f 721 745 759
f 760 621 586
f 738 786 752
f 755 753 754
f 732 772 841
f 736 349 350
f 729 736 350
f 350 353 360
f 761 586 729
f 729 360 762
f 746 761 764
f 748 764 763
f 747 748 763
f 761 762 764
f 783 762 359
f 747 763 765
f 766 756 757
f 744 754 767
f 768 766 767
f 769 766 768
f 772 731 773
f 758 766 774
f 745 774 775
f 774 769 776
f 777 759 775
f 772 829 830
f 779 359 436
f 436 438 780
f 438 440 781
f 781 444 782
f 783 359 779
f 783 779 784
f 764 783 784
f 785 763 764
f 765 763 785
f 786 747 765
f 784 779 780
f 781 784 780
f 785 784 787
f 789 765 788
f 782 787 781
f 790 782 447
f 790 447 791
f 792 447 454
f 793 455 460
f 789 788 794
f 795 789 794
f 792 791 447
f 793 796 792
f 799 793 463
f 798 797 796
f 795 797 801
f 799 463 806
f 802 799 803
f 804 800 795
f 801 798 805
f 771 770 807
f 808 771 807
f 754 786 800
f 810 809 807
f 770 800 811
f 810 811 812
f 812 811 813
f 814 802 803
f 776 808 815
f 777 815 816
f 773 777 778
f 808 809 817
f 816 815 817
f 777 816 818
f 818 817 819
f 777 818 820
f 821 777 820
f 810 812 819
f 822 819 812
f 822 820 819
f 821 820 823
f 825 824 813
f 825 805 802
f 825 814 826
f 829 772 778
f 830 829 778
f 831 812 824
f 831 823 822
f 821 831 832
f 832 831 833
f 834 821 832
f 832 833 835
f 836 825 827
f 836 835 833
f 837 827 828
f 835 836 837
f 828 826 838
f 834 835 839
f 830 821 842
f 843 840 838
f 842 834 844
f 839 837 845
f 846 849 850
f 847 843 849
f 850 849 848
f 492 850 491
f 842 844 853
f 854 849 846
f 854 853 852
f 852 847 849
f 852 844 839
f 493 806 466
f 856 806 493
f 855 493 495
f 856 493 855
f 803 806 857
f 857 814 803
f 856 855 858
f 860 826 814
f 861 858 498
f 861 498 501
f 859 861 501
f 863 859 503
f 862 859 863
f 860 857 862
f 864 843 860
f 865 503 502
f 866 503 865
f 863 503 866
f 508 865 504
f 867 866 865
f 862 863 866
f 868 866 867
f 868 864 862
f 843 864 848
f 869 241 240
f 871 869 243
f 871 870 869
f 872 870 871
f 874 873 872
f 875 216 220
f 876 211 222
f 877 223 216
f 229 224 241
f 878 241 869
f 870 878 869
f 874 879 873
f 882 215 223
f 884 876 219
f 883 219 215
f 885 875 217
f 875 882 877
f 886 227 228
f 893 431 876
f 227 888 885
f 483 433 431
f 889 891 888
f 896 895 887
f 896 887 890
f 891 896 890
f 483 893 895
f 897 896 891
f 894 898 891
f 899 485 895
f 899 895 896
f 897 899 896
f 485 484 895
f 897 901 902
f 902 485 899
f 904 903 901
f 902 487 486
f 903 488 487
f 894 889 892
f 900 898 906
f 914 274 267
f 915 152 548
f 109 915 620
f 909 874 275
f 910 874 909
f 274 278 276
f 907 909 278
f 907 278 274
f 880 879 913
f 914 912 907
f 880 913 914
f 915 548 547
f 917 263 261
f 261 262 917
f 265 263 916
f 918 874 910
f 913 881 918
f 912 910 911
f 908 878 880
f 229 878 908
f 919 270 265
f 265 916 919
f 922 620 694
f 921 922 694
f 925 922 921
f 923 925 921
f 925 927 922
f 917 924 927
f 926 928 925
f 920 698 929
f 931 929 699
f 923 930 932
f 932 930 931
f 931 700 933
f 926 932 934
f 934 933 936
f 928 938 927
f 937 908 226
f 940 916 938
f 939 940 938
f 941 270 940
f 935 690 727
f 943 926 934
f 936 943 934
f 944 943 936
f 933 700 935
f 939 943 946
f 946 943 944
f 946 944 947
f 727 688 732
f 948 939 946
f 948 947 949
f 945 935 952
f 951 940 948
f 949 951 948
f 949 947 950
f 945 957 954
f 956 270 941
f 955 956 942
f 956 961 270
f 952 727 957
f 958 942 951
f 959 951 949
f 949 950 959
f 950 954 960
f 961 229 953
f 886 228 961
f 962 892 889
f 962 886 963
f 956 963 961
f 964 956 955
f 964 962 963
f 964 963 956
f 965 962 964
f 957 732 967
f 966 955 958
f 965 964 966
f 968 965 966
f 970 906 898
f 972 901 900
f 901 905 904
f 970 894 892
f 975 905 901
f 905 488 904
f 970 892 962
f 906 970 971
f 906 971 973
f 976 977 972
f 977 905 975
f 977 492 905
f 954 967 980
f 979 968 969
f 979 954 980
f 967 851 980
f 971 965 968
f 981 971 978
f 981 978 979
f 981 980 982
f 980 842 984
f 984 983 982
f 976 983 974
f 976 982 983
f 982 973 981
f 982 980 984
f 974 983 846
f 854 846 983
f 854 983 984
f 854 842 853
f 5 2 3
f 6 3 4
f 5 6 7
f 8 5 7
f 8 7 83
f 10 31 12
f 11 10 13
f 14 17 12
f 18 13 15
f 19 16 13
f 19 18 20
f 14 22 17
f 37 61 23
f 21 15 17
f 23 22 14
f 24 16 19
f 24 13 16
f 28 27 26
f 1 27 28
f 30 27 1
f 26 27 10
f 30 29 31
f 34 33 31
f 36 38 35
f 28 26 39
f 41 32 29
f 42 35 33
f 44 29 5
f 45 36 42
f 46 33 34
f 47 38 45
f 48 34 41
f 51 49 50
f 51 52 49
f 54 53 51
f 49 46 48
f 42 47 45
f 52 55 46
f 46 56 42
f 57 54 51
f 51 50 85
f 59 18 21
f 20 18 59
f 22 60 17
f 62 21 60
f 64 59 62
f 63 59 64
f 69 65 22
f 66 69 23
f 61 66 23
f 68 67 60
f 66 70 69
f 64 62 71
f 76 64 58
f 81 98 82
f 7 4 81
f 83 81 82
f 84 85 83
f 86 9 11
f 87 11 13
f 86 87 90
f 89 39 90
f 90 24 92
f 93 89 90
f 91 89 93
f 92 24 95
f 95 25 88
f 96 92 95
f 96 95 119
f 97 117 121
f 1 28 40
f 39 26 9
f 82 39 89
f 82 98 40
f 99 82 100
f 100 89 91
f 101 102 100
f 103 101 91
f 103 91 94
f 112 102 101
f 105 103 97
f 84 82 99
f 106 100 112
f 107 97 104
f 108 99 106
f 106 84 108
f 111 84 106
f 112 111 106
f 112 101 105
f 114 112 105
f 113 111 114
f 115 114 105
f 118 88 74
f 95 88 118
f 118 74 75
f 117 119 120
f 122 118 75
f 119 118 123
f 97 121 126
f 104 97 127
f 130 128 129
f 109 104 131
f 131 104 130
f 131 130 132
f 132 130 197
f 133 109 131
f 134 133 132
f 126 121 550
f 136 127 126
f 138 136 126
f 139 138 137
f 140 137 126
f 146 138 145
f 144 136 148
f 143 138 139
f 147 146 145
f 149 148 147
f 129 127 150
f 134 132 197
f 152 151 134
f 646 134 197
f 80 153 78
f 116 153 154
f 135 76 155
f 143 139 157
f 158 141 140
f 142 141 158
f 157 142 159
f 158 140 160
f 161 157 162
f 159 158 163
f 162 159 165
f 164 162 165
f 166 145 143
f 170 167 168
f 149 145 167
f 169 171 170
f 149 172 173
f 173 174 148
f 144 148 174
f 161 166 157
f 175 166 161
f 180 171 169
f 178 173 171
f 177 175 161
f 176 179 180
f 176 177 179
f 178 179 181
f 182 178 181
f 182 174 178
f 182 144 174
f 189 183 161
f 184 191 181
f 182 181 192
f 188 187 186
f 191 189 190
f 191 183 189
f 191 192 181
f 523 182 192
f 520 187 164
f 190 193 194
f 522 192 190
f 150 127 195
f 129 150 196
f 53 198 52
f 54 199 53
f 204 203 201
f 205 201 203
f 206 203 204
f 202 208 56
f 208 43 56
f 210 205 206
f 200 54 248
f 210 214 209
f 213 214 210
f 216 215 209
f 217 209 214
f 212 219 208
f 225 218 213
f 226 224 221
f 228 227 221
f 229 228 224
f 234 230 232
f 231 233 232
f 238 237 230
f 239 236 230
f 271 239 237
f 272 239 271
f 240 241 232
f 236 233 231
f 233 244 243
f 243 869 240
f 245 204 200
f 254 206 245
f 247 207 254
f 113 248 110
f 249 113 114
f 250 246 248
f 249 114 115
f 113 249 250
f 251 245 246
f 252 249 115
f 251 250 249
f 251 249 252
f 109 115 107
f 253 252 115
f 251 256 255
f 253 256 252
f 109 253 115
f 255 247 254
f 257 218 225
f 257 221 218
f 255 259 225
f 256 259 255
f 258 109 260
f 261 259 258
f 262 258 260
f 261 258 262
f 259 265 264
f 265 259 263
f 109 133 151
f 264 226 257
f 266 230 235
f 267 266 235
f 267 269 268
f 270 937 226
f 265 270 264
f 266 273 272
f 238 272 271
f 267 274 269
f 226 914 267
f 109 151 152
f 273 275 272
f 275 874 272
f 268 269 275
f 276 275 269
f 277 276 278
f 80 79 279
f 279 79 280
f 211 61 43
f 279 280 283
f 280 77 282
f 283 280 282
f 73 284 67
f 68 284 73
f 290 72 71
f 72 290 58
f 292 283 287
f 68 65 288
f 69 288 65
f 70 289 69
f 287 281 286
f 294 286 296
f 298 295 296
f 290 67 300
f 296 286 285
f 298 297 302
f 296 285 303
f 297 296 303
f 302 297 303
f 291 305 70
f 308 306 303
f 309 307 308
f 299 288 310
f 289 310 288
f 309 308 285
f 313 290 300
f 305 311 289
f 312 316 211
f 285 301 313
f 315 316 317
f 319 318 317
f 317 314 315
f 322 317 318
f 316 315 211
f 316 324 325
f 325 319 316
f 325 321 319
f 329 324 323
f 324 329 325
f 328 327 323
f 330 323 324
f 330 324 312
f 312 331 330
f 332 326 330
f 326 334 323
f 326 335 334
f 336 338 333
f 339 331 312
f 341 331 339
f 331 341 333
f 339 343 341
f 341 342 336
f 345 339 312
f 347 343 340
f 471 344 304
f 344 427 348
f 471 427 344
f 285 313 349
f 736 734 285
f 284 351 300
f 299 351 284
f 299 310 351
f 353 352 356
f 352 357 356
f 358 354 291
f 360 353 359
f 361 322 320
f 322 362 314
f 363 365 362
f 364 366 363
f 364 369 366
f 366 369 365
f 367 368 370
f 369 371 368
f 371 372 368
f 372 373 370
f 321 361 320
f 327 374 329
f 374 361 329
f 361 376 363
f 376 364 363
f 374 375 376
f 376 378 364
f 379 378 375
f 383 379 377
f 378 369 364
f 379 382 381
f 379 383 382
f 380 372 369
f 381 384 380
f 380 373 372
f 384 373 380
f 334 386 337
f 386 385 337
f 337 388 328
f 385 388 337
f 338 387 335
f 328 388 375
f 388 389 377
f 335 388 386
f 387 391 335
f 389 390 383
f 389 388 390
f 391 390 388
f 393 392 391
f 394 382 383
f 395 384 394
f 392 395 394
f 392 396 395
f 395 397 373
f 398 338 336
f 338 400 387
f 399 401 342
f 403 402 391
f 400 403 387
f 402 405 393
f 405 396 393
f 408 396 405
f 404 408 405
f 409 408 404
f 347 410 343
f 411 410 347
f 346 412 411
f 410 399 343
f 414 417 412
f 418 399 413
f 417 415 411
f 417 420 416
f 418 401 399
f 422 418 413
f 415 419 422
f 420 419 416
f 421 420 417
f 422 406 401
f 419 423 422
f 406 424 407
f 422 424 406
f 425 424 423
f 426 409 425
f 348 427 412
f 427 426 421
f 428 471 304
f 431 430 304
f 430 429 304
f 431 433 430
f 354 435 434
f 357 355 437
f 437 439 357
f 434 441 437
f 434 435 441
f 354 442 435
f 444 440 439
f 446 443 441
f 446 444 443
f 448 450 442
f 448 451 450
f 452 441 442
f 452 446 441
f 454 445 446
f 455 454 446
f 450 456 452
f 453 457 456
f 459 460 455
f 461 458 456
f 459 462 460
f 449 464 451
f 451 465 450
f 466 463 462
f 471 449 358
f 465 467 453
f 459 468 462
f 461 469 459
f 456 470 461
f 471 397 408
f 471 358 397
f 464 472 451
f 474 469 470
f 473 456 457
f 473 474 470
f 472 467 465
f 475 457 467
f 476 474 473
f 464 477 472
f 472 478 467
f 475 480 473
f 428 481 464
f 479 482 475
f 481 478 477
f 483 428 433
f 484 481 428
f 478 481 484
f 479 478 484
f 485 479 484
f 479 486 482
f 480 496 476
f 486 480 482
f 486 489 496
f 486 487 489
f 494 466 468
f 495 493 466
f 494 495 466
f 497 494 501
f 497 498 495
f 469 499 468
f 500 469 496
f 501 498 497
f 501 503 859
f 499 502 501
f 505 504 502
f 496 507 500
f 507 499 500
f 489 507 496
f 489 490 507
f 505 508 504
f 508 505 506
f 508 506 499
f 490 491 867
f 509 153 80
f 510 154 509
f 511 154 510
f 513 120 125
f 121 120 513
f 514 163 160
f 515 159 514
f 165 159 515
f 549 156 126
f 160 156 549
f 514 160 517
f 521 522 194
f 520 164 165
f 524 526 521
f 524 521 520
f 527 526 525
f 527 528 522
f 522 521 527
f 529 523 522
f 530 524 165
f 531 526 524
f 532 527 525
f 528 527 532
f 531 534 525
f 531 524 533
f 532 525 534
f 529 535 523
f 530 165 516
f 531 536 534
f 540 536 533
f 537 528 532
f 529 528 537
f 538 539 530
f 539 533 530
f 540 533 539
f 537 536 540
f 537 541 535
f 542 523 535
f 530 516 519
f 543 540 539
f 541 540 543
f 539 538 519
f 535 541 544
f 542 546 545
f 542 535 544
f 182 523 545
f 127 182 545
f 548 152 547
f 510 279 292
f 292 511 510
f 515 518 551
f 519 516 552
f 551 517 554
f 552 556 553
f 557 554 517
f 555 515 558
f 558 554 588
f 557 517 559
f 588 554 557
f 543 519 561
f 563 544 543
f 561 519 553
f 543 561 564
f 565 566 562
f 565 562 543
f 546 567 545
f 565 564 568
f 569 563 562
f 570 545 567
f 553 556 564
f 568 564 571
f 571 565 568
f 569 562 574
f 573 574 566
f 569 575 544
f 571 564 576
f 577 578 571
f 578 573 572
f 577 571 579
f 567 581 580
f 576 556 560
f 579 576 560
f 578 577 579
f 582 579 587
f 573 578 582
f 580 581 582
f 127 545 570
f 547 134 646
f 585 125 124
f 123 135 586
f 587 560 555
f 589 587 555
f 588 559 590
f 593 591 555
f 590 559 592
f 595 587 594
f 595 582 587
f 580 582 596
f 597 567 580
f 570 567 597
f 589 598 587
f 599 600 594
f 601 580 596
f 602 598 589
f 603 596 600
f 601 604 580
f 602 589 591
f 606 603 602
f 601 606 604
f 601 603 606
f 607 605 591
f 608 606 605
f 609 611 608
f 609 608 607
f 606 608 612
f 593 613 609
f 613 611 609
f 614 611 610
f 612 611 614
f 615 604 612
f 593 616 613
f 613 617 610
f 614 610 617
f 618 597 604
f 127 570 619
f 619 570 597
f 195 127 619
f 197 583 642
f 124 123 621
f 588 590 622
f 558 588 622
f 555 558 623
f 593 555 623
f 592 549 624
f 622 592 626
f 628 627 626
f 625 627 628
f 626 592 624
f 624 550 650
f 638 628 626
f 619 638 650
f 613 629 617
f 634 629 616
f 630 612 614
f 615 631 604
f 615 612 630
f 616 623 632
f 633 634 632
f 634 616 632
f 630 629 634
f 630 633 635
f 615 630 635
f 628 632 625
f 633 632 636
f 633 637 635
f 638 637 636
f 638 631 637
f 618 638 619
f 619 597 618
f 620 547 639
f 640 512 292
f 292 287 293
f 295 584 294
f 583 196 619
f 641 583 619
f 644 642 643
f 197 644 645
f 639 646 197
f 647 620 639
f 639 197 647
f 620 647 648
f 649 295 298
f 702 295 649
f 584 295 702
f 736 76 584
f 155 76 736
f 651 643 658
f 653 652 658
f 671 652 653
f 671 653 654
f 654 653 655
f 659 655 657
f 656 655 659
f 654 656 660
f 661 678 660
f 656 659 662
f 666 664 651
f 669 666 665
f 669 665 672
f 667 666 669
f 668 667 670
f 672 665 652
f 669 672 679
f 675 679 674
f 670 669 675
f 673 670 675
f 673 675 676
f 679 672 671
f 679 677 678
f 680 676 674
f 671 654 660
f 677 671 660
f 677 660 678
f 661 674 678
f 680 674 661
f 680 661 681
f 681 661 718
f 683 668 673
f 645 643 664
f 685 667 668
f 684 673 676
f 686 676 680
f 687 664 666
f 689 680 681
f 690 681 688
f 688 682 732
f 687 648 645
f 687 666 685
f 691 648 687
f 692 648 691
f 693 692 691
f 620 648 694
f 694 692 695
f 691 683 684
f 686 696 684
f 693 691 696
f 695 693 696
f 697 698 696
f 697 686 689
f 699 697 689
f 728 298 302
f 701 649 298
f 709 705 704
f 706 705 709
f 711 707 703
f 714 708 707
f 714 712 713
f 662 659 706
f 661 663 717
f 709 715 706
f 663 716 717
f 715 709 719
f 720 715 719
f 710 719 709
f 717 720 721
f 723 720 719
f 722 710 714
f 722 714 713
f 725 724 730
f 682 681 725
f 727 690 688
f 586 155 729
f 703 650 739
f 725 730 731
f 682 725 772
f 732 682 772
f 733 302 307
f 728 733 735
f 733 307 309
f 735 733 734
f 702 701 735
f 736 702 735
f 739 737 740
f 742 739 741
f 703 743 754
f 721 723 745
f 513 585 746
f 738 650 747
f 747 513 748
f 741 737 749
f 750 742 741
f 751 750 752
f 750 749 738
f 755 743 742
f 754 743 755
f 753 755 751
f 744 703 754
f 756 712 757
f 757 711 744
f 731 721 759
f 786 738 747
f 754 753 752
f 745 726 758
f 736 285 349
f 350 349 353
f 761 760 586
f 746 760 761
f 729 350 360
f 761 729 762
f 748 746 764
f 359 762 360
f 783 764 762
f 766 757 744
f 767 766 744
f 770 768 767
f 771 769 768
f 773 731 759
f 758 756 766
f 745 758 774
f 774 766 769
f 759 745 775
f 775 774 776
f 776 769 771
f 777 773 759
f 778 772 773
f 841 772 830
f 359 356 436
f 780 438 781
f 781 440 444
f 779 436 780
f 447 782 444
f 785 764 784
f 781 787 784
f 765 785 788
f 789 786 765
f 790 788 787
f 788 785 787
f 790 787 782
f 791 788 790
f 454 447 445
f 793 792 455
f 463 793 460
f 795 786 789
f 792 796 791
f 791 794 788
f 796 794 791
f 795 794 797
f 799 796 793
f 797 794 796
f 799 798 796
f 795 800 786
f 801 797 798
f 802 798 799
f 803 799 806
f 806 463 466
f 804 795 801
f 802 805 798
f 754 752 786
f 800 767 754
f 770 767 800
f 771 768 770
f 809 808 807
f 811 807 770
f 810 807 811
f 804 811 800
f 813 811 804
f 776 771 808
f 815 775 776
f 777 775 815
f 815 808 817
f 817 818 816
f 817 809 819
f 810 819 809
f 819 820 818
f 821 778 777
f 822 823 820
f 813 824 812
f 805 813 801
f 813 804 801
f 825 813 805
f 825 802 814
f 826 827 825
f 828 827 826
f 831 822 812
f 821 830 778
f 821 823 831
f 825 833 824
f 833 831 824
f 836 833 825
f 834 832 835
f 837 836 827
f 839 835 837
f 838 840 828
f 841 830 842
f 842 821 834
f 845 837 828
f 845 828 840
f 844 834 839
f 492 491 490
f 847 840 843
f 850 848 491
f 732 841 851
f 851 841 842
f 854 852 849
f 847 845 840
f 852 845 847
f 852 839 845
f 852 853 844
f 857 806 856
f 856 859 857
f 861 856 858
f 861 859 856
f 857 860 814
f 860 838 826
f 858 855 498
f 862 857 859
f 860 843 838
f 864 860 862
f 504 865 502
f 867 865 508
f 868 862 866
f 491 868 867
f 848 864 868
f 848 849 843
f 848 868 491
f 242 872 244
f 244 872 871
f 872 873 870
f 217 875 220
f 219 876 222
f 875 877 216
f 878 229 241
f 870 879 878
f 880 878 879
f 873 879 870
f 874 881 879
f 918 881 874
f 877 882 223
f 882 883 215
f 883 884 219
f 227 885 217
f 876 431 211
f 431 304 211
f 893 876 884
f 883 893 884
f 883 887 893
f 885 888 875
f 227 889 888
f 886 889 227
f 882 887 883
f 875 890 882
f 875 888 890
f 882 890 887
f 888 891 890
f 431 893 483
f 887 895 893
f 894 891 889
f 483 895 484
f 891 898 897
f 898 900 897
f 897 902 899
f 900 901 897
f 902 901 903
f 902 486 485
f 903 487 902
f 903 904 488
f 488 492 490
f 914 907 274
f 226 908 914
f 109 152 915
f 260 109 620
f 278 909 277
f 907 911 909
f 911 910 909
f 914 913 912
f 914 908 880
f 915 547 620
f 917 916 263
f 918 910 912
f 913 879 881
f 912 913 918
f 907 912 911
f 920 694 695
f 922 260 620
f 262 260 922
f 921 694 920
f 923 921 920
f 924 262 922
f 917 262 924
f 923 926 925
f 924 922 927
f 927 925 928
f 920 695 698
f 699 929 698
f 930 920 929
f 931 930 929
f 923 920 930
f 931 699 700
f 932 926 923
f 932 931 933
f 935 700 690
f 934 932 933
f 928 939 938
f 917 938 916
f 917 927 938
f 919 940 270
f 940 919 916
f 942 941 940
f 943 928 926
f 945 936 933
f 943 939 928
f 944 936 945
f 945 933 935
f 947 944 945
f 939 948 940
f 947 948 946
f 952 935 727
f 950 947 945
f 951 942 940
f 945 952 957
f 950 945 954
f 953 229 908
f 942 956 941
f 270 961 937
f 937 953 908
f 958 955 942
f 959 958 951
f 961 953 937
f 957 727 732
f 959 950 960
f 961 228 229
f 962 889 886
f 963 886 961
f 954 957 967
f 966 964 955
f 959 960 966
f 959 966 958
f 960 969 966
f 969 960 954
f 969 968 966
f 970 898 894
f 972 900 906
f 972 975 901
f 905 492 488
f 965 971 970
f 965 970 962
f 972 973 976
f 973 972 906
f 972 977 975
f 974 846 850
f 977 976 974
f 977 974 850
f 492 977 850
f 967 732 851
f 979 969 954
f 968 978 971
f 979 978 968
f 981 973 971
f 981 979 980
f 980 851 842
f 982 976 973
f 854 984 842
