# Blender 4.0.2
# www.blender.org
o one_piece_wide_grasp_finray_finger
v -0.013000 -0.001500 0.042002
v 0.013000 -0.001452 0.042961
v -0.013000 -0.001500 0.043930
v 0.012992 -0.001768 0.150133
v 0.013000 -0.032932 0.041002
v -0.013000 -0.032822 0.042002
v 0.013000 -0.001500 0.037002
v 0.013000 -0.001500 0.040002
v -0.013000 -0.001500 0.040002
v -0.013000 -0.029546 0.064820
v 0.013000 -0.030345 0.060298
v 0.013000 -0.001500 0.049924
v 0.013000 -0.001500 0.051964
v -0.013000 -0.001500 0.058262
v 0.013000 -0.001500 0.060572
v -0.013000 -0.001500 0.060572
v -0.013000 -0.001500 0.047902
v 0.013000 -0.001451 0.046905
v -0.013000 -0.026462 0.079483
v 0.013000 -0.001500 0.067018
v -0.013000 -0.001500 0.056169
v 0.013000 -0.001500 0.054016
v 0.013000 -0.001500 0.056169
v 0.013000 -0.001500 0.062720
v -0.013000 -0.001500 0.065242
v 0.013000 -0.020868 0.099802
v 0.013000 -0.021504 0.097751
v -0.013000 -0.001500 0.075735
v -0.013000 -0.001500 0.078156
v 0.013000 -0.038677 0.043926
v 0.013000 -0.001229 0.027382
v -0.013000 -0.001204 0.027358
v 0.013000 -0.001500 0.084357
v 0.013000 -0.001500 0.088633
v 0.013000 -0.024827 0.086039
v 0.013000 -0.023549 0.090768
v 0.013000 -0.001500 0.081799
v 0.013000 -0.036513 0.061581
v -0.013000 -0.031267 0.054411
v 0.013000 -0.013396 0.120778
v 0.013000 -0.016286 0.113250
v -0.013000 -0.001500 0.105575
v 0.013000 -0.001500 0.097870
v 0.013000 -0.001500 0.105051
v 0.013000 -0.018931 0.118191
v 0.013000 -0.019002 0.105554
v 0.013000 -0.006443 0.034502
v 0.013000 -0.007887 0.032002
v 0.013000 -0.033955 0.064233
v -0.013000 -0.001574 0.150231
v 0.013000 -0.001500 0.089997
v 0.013000 -0.026782 0.078157
v -0.013000 -0.026927 0.077487
v -0.013000 -0.030619 0.058611
v -0.013000 -0.001500 0.051964
v 0.013000 -0.005394 0.029047
v 0.013000 -0.000002 0.029559
v 0.013000 -0.002113 0.032002
v 0.013000 -0.036443 0.029502
v 0.013000 -0.039647 0.028675
v 0.013000 -0.037647 0.027065
v -0.013000 -0.001500 0.146781
v 0.013000 -0.006727 0.136178
v -0.013000 -0.001500 0.083078
v -0.013000 -0.000157 0.150113
v 0.013000 -0.001500 0.106622
v -0.013000 -0.033060 0.064931
v -0.013000 -0.001500 0.049924
v -0.013000 -0.001500 0.054016
v 0.013000 -0.001500 0.116567
v 0.013000 -0.010236 0.128375
v 0.013000 -0.001500 0.114854
v -0.013000 -0.007126 0.135306
v 0.013000 -0.001500 0.126268
v -0.013000 -0.036139 0.069756
v 0.013000 -0.037037 0.069047
v 0.013000 -0.001500 0.096412
v -0.013000 -0.016590 0.112407
v -0.013000 -0.019171 0.105029
v -0.013000 -0.001500 0.045935
v -0.013000 -0.029175 0.066798
v 0.013000 -0.001500 0.058262
v 0.013000 -0.027982 0.072755
v -0.013000 -0.010140 0.128584
v -0.013000 -0.025249 0.084435
v -0.013000 -0.027981 0.094303
v -0.013000 -0.013744 0.119891
v -0.013000 -0.001500 0.127215
v 0.013000 -0.029371 0.065812
v 0.013000 -0.032210 0.067743
v 0.013000 -0.032319 0.046573
v 0.013000 -0.031420 0.053423
v -0.013000 -0.038660 0.070532
v -0.013000 -0.036482 0.061522
v -0.013000 -0.035753 0.064215
v -0.013000 -0.001500 0.072571
v 0.013000 -0.001500 0.076946
v -0.013000 -0.033298 0.037002
v 0.013000 -0.033298 0.037002
v -0.013000 -0.034024 0.072578
v -0.013000 -0.040003 0.065347
v 0.013000 -0.001500 0.128161
v -0.013000 -0.039746 0.028834
v -0.013000 -0.032210 0.067743
v -0.013000 -0.028321 0.071098
v -0.013000 -0.038282 0.047549
v -0.013000 -0.037474 0.030573
v -0.013000 -0.007756 0.033138
v -0.013000 -0.033557 0.029502
v -0.013000 -0.032113 0.032002
v -0.013002 -0.015428 0.126162
v -0.013000 -0.030278 0.060665
v 0.013000 -0.036443 0.034502
v 0.013000 -0.033557 0.034502
v -0.013000 -0.033023 0.040002
v 0.013000 -0.039871 0.068763
v -0.013000 -0.001500 0.089542
v -0.013000 -0.018821 0.106068
v -0.013000 -0.001500 0.037002
v -0.013000 -0.003557 0.034502
v -0.013000 -0.001500 0.062720
v -0.013000 -0.020983 0.099467
v 0.013000 -0.037887 0.032002
v -0.013000 -0.000003 0.029571
v -0.013000 -0.032351 0.046242
v 0.013000 -0.037273 0.071483
v -0.013000 -0.010602 0.127514
v -0.013000 -0.027904 0.073083
v -0.013000 -0.037993 0.027162
v -0.013000 -0.001500 0.115710
v -0.013000 -0.006622 0.136388
v -0.013000 -0.003557 0.029502
v -0.013000 -0.023078 0.092464
v -0.013000 -0.001500 0.070262
v -0.013000 -0.016205 0.113456
v 0.013000 -0.034247 0.069789
v -0.013000 -0.032109 0.048229
v -0.013000 -0.031551 0.052431
v 0.013000 -0.033557 0.029502
v -0.013000 -0.001500 0.097578
v 0.013000 -0.034089 0.072775
v -0.013000 -0.036443 0.034502
v -0.013000 -0.001500 0.067462
v 0.013000 -0.001500 0.071416
v 0.013000 -0.003557 0.034502
v 0.013000 -0.032113 0.032002
v 0.013000 -0.039559 0.064816
v 0.013000 -0.037790 0.066260
v -0.013000 -0.037790 0.066260
v 0.013000 -0.025345 0.084029
v -0.013000 -0.002113 0.032002
v -0.013000 -0.006443 0.029502
v 0.013000 -0.029718 0.088677
v 0.013000 -0.022974 0.092797
v -0.013000 -0.033557 0.034502
v -0.013000 -0.013322 0.120951
v 0.013000 -0.000263 0.150205
v 0.012962 -0.002232 0.006038
v -0.009464 -0.002232 0.014268
v 0.010280 -0.002232 0.014049
v 0.012917 -0.002232 0.016182
v -0.009687 -0.002232 0.018695
v -0.012994 -0.002232 0.021994
v 0.015000 -0.001432 -0.000000
v 0.010700 -0.017932 0.000000
v 0.010700 -0.001432 -0.000000
v -0.012513 -0.002232 0.017916
v -0.012921 -0.002232 0.005968
v 0.010629 -0.010432 0.019692
v 0.014700 -0.010432 0.023700
v 0.013032 -0.002232 0.021921
v 0.011402 -0.002232 0.018678
v 0.008192 -0.002232 0.016107
v -0.008192 -0.002232 0.016893
v -0.012962 -0.001432 0.021962
v -0.014700 -0.001432 0.023700
v -0.012302 -0.002232 0.015005
v 0.006700 -0.001432 -0.000000
v 0.012994 -0.001432 0.006006
v 0.009005 -0.002232 0.018302
v 0.009751 -0.003232 0.018471
v -0.009464 -0.003232 0.018732
v -0.009796 -0.003232 0.018033
v 0.010629 -0.007432 0.013308
v 0.010656 -0.007432 0.014821
v -0.012513 -0.003232 0.015084
v -0.011581 -0.003232 0.014959
v -0.012021 -0.003232 0.017815
v 0.010602 -0.003232 0.014559
v 0.012302 -0.003232 0.015005
v 0.007664 -0.007432 0.015197
v 0.008718 -0.007432 0.016103
v 0.012247 -0.003232 0.016804
v -0.009687 -0.003232 0.014305
v -0.008520 -0.003232 0.016064
v -0.007270 -0.007432 0.015634
v 0.008396 -0.007432 0.019018
v 0.012513 -0.003232 0.017916
v 0.010577 -0.007432 0.018324
v 0.011942 -0.007432 0.019203
v 0.012247 -0.007432 0.016196
v 0.013768 -0.007432 0.016207
v 0.008505 -0.003232 0.016902
v 0.009005 -0.003232 0.014698
v 0.014625 -0.019057 0.009000
v 0.014700 -0.019132 0.000000
v 0.008396 -0.010432 0.013982
v 0.007664 -0.010432 0.017803
v 0.012921 -0.001432 0.022032
v 0.014625 -0.001432 0.023625
v -0.011512 -0.010432 0.019724
v -0.010577 -0.007432 0.014676
v 0.013768 -0.010432 0.016793
v -0.008718 -0.007432 0.016897
v -0.008098 -0.010432 0.014507
v -0.010951 -0.007432 0.018182
v -0.007595 -0.010432 0.017703
v 0.010700 -0.001432 -0.013051
v 0.010700 -0.017932 -0.013051
v -0.013560 -0.010432 0.015680
v -0.013722 -0.007432 0.016500
v -0.010357 -0.007432 0.019876
v 0.006700 -0.017932 0.000000
v 0.006700 -0.001432 -0.013051
v 0.006700 -0.017932 -0.013051
v -0.011025 -0.010432 0.013423
v 0.011942 -0.010432 0.013797
v -0.014700 -0.019132 0.009000
v -0.014625 -0.019057 0.000000
v -0.013032 -0.001432 0.006079
v -0.011202 -0.007432 0.013384
v -0.012212 -0.007432 0.016500
v -0.015000 -0.010432 0.009000
v -0.014625 -0.010432 0.023625
v 0.015000 -0.010432 0.009000
v -0.015000 -0.001432 -0.000000
v -0.013300 -0.000167 0.033539
v -0.017000 -0.000207 0.033859
v -0.017000 -0.013437 0.039416
v -0.013300 -0.012305 0.039076
v -0.017000 -0.029361 0.059927
v -0.017000 -0.024709 0.049235
v -0.013300 -0.002385 0.036412
v -0.017000 -0.002712 0.036518
v -0.013300 -0.021771 0.045787
v -0.017000 -0.030677 0.070256
v -0.017000 -0.036392 0.071984
v -0.013300 -0.036040 0.072069
v 0.010992 -0.030734 0.020234
v 0.017000 -0.034458 0.023866
v -0.013300 -0.039686 0.069155
v -0.017000 -0.039785 0.068894
v 0.017000 -0.029480 0.060329
v 0.006850 -0.025500 0.013000
v -0.006850 -0.025500 0.013000
v 0.015200 -0.013224 0.009408
v 0.014150 -0.025500 0.013000
v 0.014047 -0.025500 0.017892
v 0.013029 -0.025500 0.015822
v 0.007016 -0.028705 0.018219
v 0.006929 -0.025500 0.017791
v 0.008071 -0.025500 0.016500
v 0.008313 -0.005500 0.017889
v -0.013246 -0.040003 0.027126
v -0.013200 0.000003 0.027086
v -0.017000 -0.000325 0.025036
v 0.017000 -0.030328 0.069167
v 0.013300 -0.030638 0.070221
v -0.006850 -0.028304 0.013436
v 0.006850 -0.028036 0.013210
v 0.017000 -0.000126 0.033448
v 0.013300 -0.000147 0.033411
v 0.015399 -0.016924 0.016296
v 0.015200 -0.005500 0.009000
v 0.012886 -0.005500 0.015861
v -0.008071 -0.005500 0.016500
v -0.013029 -0.005500 0.017178
v -0.011699 -0.025500 0.018796
v -0.012558 -0.025500 0.015053
v -0.009771 -0.005500 0.018838
v -0.007972 -0.025500 0.017064
v -0.010390 -0.005500 0.013912
v -0.009669 -0.025500 0.014256
v 0.015391 -0.005500 0.022458
v 0.013300 -0.011128 0.038655
v 0.017000 -0.011884 0.038852
v -0.015200 -0.028196 0.013304
v -0.014150 -0.028177 0.013323
v 0.014150 -0.028177 0.013323
v 0.010390 -0.025500 0.019088
v 0.017000 -0.039882 0.025809
v 0.013239 -0.040004 0.027103
v -0.015391 -0.005500 0.022458
v -0.015394 -0.016945 0.016281
v -0.015448 -0.028607 0.017806
v -0.013953 -0.028665 0.018053
v -0.015200 -0.013172 0.009264
v -0.015200 -0.013954 0.012804
v -0.015200 -0.005500 0.009000
v 0.015200 -0.013755 0.012644
v 0.013300 -0.002238 0.036356
v 0.017000 -0.002327 0.036363
v 0.009724 -0.005500 0.014028
v 0.009771 -0.025500 0.014162
v 0.017000 -0.017000 0.016500
v 0.017000 -0.002301 0.024101
v 0.017000 -0.035180 0.072403
v 0.013300 -0.039686 0.069155
v 0.017000 -0.039785 0.068894
v -0.013300 -0.030682 0.070141
v 0.013300 -0.036210 0.072001
v 0.010371 -0.025500 0.020416
v -0.015200 -0.005360 0.023720
v 0.015448 -0.028607 0.017806
v 0.013210 0.000002 0.027107
v 0.015200 -0.005414 0.023719
v 0.015467 -0.027084 0.016335
v 0.017000 -0.000135 0.025714
v 0.013953 -0.028665 0.018053
v 0.017000 -0.037993 0.024096
v 0.011715 -0.005500 0.018604
v -0.017000 -0.034322 0.023737
v 0.015200 -0.028196 0.013304
v -0.015467 -0.027084 0.016335
v -0.017000 -0.039946 0.026107
v -0.009962 -0.030900 0.020408
v -0.017000 -0.017000 0.016500
v 0.013300 -0.019637 0.043805
v 0.017000 -0.023799 0.047788
v -0.006929 -0.025500 0.017791
v -0.006958 -0.028562 0.017690
v -0.014047 -0.025500 0.017892
v -0.010371 -0.025500 0.020416
v -0.014150 -0.025500 0.013000
v 0.013300 -0.027779 0.054387
v -0.013300 -0.028962 0.057528
v -0.017000 -0.038445 0.024242
v -0.018736 -0.035000 0.067774
v -0.017806 -0.035000 0.067000
v -0.018817 -0.033364 0.066534
v -0.018658 -0.035755 0.068711
v -0.018824 -0.036631 0.067218
v -0.018787 -0.033633 0.068164
v -0.018753 -0.035000 0.066216
v -0.016993 -0.033126 0.068137
v -0.016993 -0.036137 0.068874
v -0.018527 -0.036606 0.066009
v -0.018740 -0.034806 0.065112
v -0.016987 -0.034144 0.064934
v -0.016997 -0.036980 0.066180
v -0.018770 -0.034898 0.032905
v -0.018859 -0.033763 0.032054
v -0.017810 -0.035000 0.032000
v -0.018664 -0.034311 0.033738
v -0.018528 -0.036947 0.031958
v -0.018819 -0.036134 0.033209
v -0.017000 -0.035000 0.034143
v -0.018734 -0.035338 0.031217
v -0.018528 -0.033053 0.031958
v -0.016999 -0.033014 0.032736
v -0.018740 -0.035963 0.030518
v -0.018703 -0.034297 0.030289
v -0.016999 -0.033560 0.030446
v -0.016999 -0.036986 0.032736
v -0.016995 -0.036200 0.030203
v -0.018811 -0.003870 0.033233
v -0.017810 -0.005000 0.032000
v -0.018756 -0.005102 0.032895
v -0.018652 -0.006098 0.033603
v -0.016997 -0.003518 0.033482
v -0.018748 -0.004659 0.031209
v -0.018847 -0.006587 0.031788
v -0.018528 -0.003053 0.031958
v -0.016997 -0.003126 0.030863
v -0.016997 -0.006137 0.033874
v -0.018660 -0.005756 0.030288
v -0.018729 -0.004040 0.030501
v -0.016996 -0.006633 0.030367
v 0.017806 -0.035000 0.067000
v 0.018783 -0.034325 0.068610
v 0.018764 -0.035923 0.067100
v 0.018716 -0.036859 0.066630
v 0.018781 -0.035936 0.068424
v 0.016991 -0.034578 0.069119
v 0.018845 -0.033418 0.067178
v 0.018766 -0.035102 0.066095
v 0.016995 -0.032883 0.067080
v 0.016992 -0.037310 0.067000
v 0.018745 -0.033647 0.065822
v 0.016993 -0.034479 0.064871
v 0.018637 -0.035065 0.065117
v 0.018859 -0.033763 0.031946
v 0.017810 -0.035000 0.032000
v 0.018703 -0.034297 0.033711
v 0.018721 -0.035487 0.032768
v 0.018528 -0.036947 0.032042
v 0.018740 -0.035963 0.033482
v 0.018528 -0.033053 0.032042
v 0.016996 -0.035884 0.034134
v 0.016995 -0.032881 0.032422
v 0.018836 -0.034296 0.030566
v 0.018861 -0.036158 0.031549
v 0.018664 -0.035689 0.030262
v 0.016999 -0.034566 0.029818
v 0.016997 -0.036936 0.031198
v 0.018771 -0.004898 0.032905
v 0.018777 -0.003538 0.032937
v 0.017810 -0.005000 0.032000
v 0.018700 -0.005442 0.033858
v 0.018850 -0.006562 0.032398
v 0.016996 -0.003367 0.033633
v 0.018758 -0.005000 0.031216
v 0.018805 -0.003361 0.031594
v 0.016997 -0.006873 0.033137
v 0.018762 -0.006344 0.030808
v 0.018700 -0.004296 0.030301
v 0.016991 -0.004144 0.029934
v 0.016999 -0.006684 0.030810
vn 0.0018 -1.0000 -0.0000
vn -0.0000 0.9940 -0.1094
vn -0.0000 -1.0000 -0.0000
vn 1.0000 -0.0000 -0.0000
vn -1.0000 -0.0000 -0.0000
vn 0.0256 -0.4337 -0.9007
vn -0.0000 -0.2225 -0.9749
vn -0.0369 -0.0000 0.9993
vn -0.0080 -0.3760 0.9266
vn -0.0081 -0.3773 0.9261
vn -0.0081 -0.3772 0.9261
vn 1.0000 -0.0001 -0.0000
vn 0.0292 -0.8841 -0.4663
vn -0.0000 0.9512 -0.3086
vn -0.0000 0.2948 0.9556
vn -0.0006 0.2135 0.9769
vn -0.0016 0.2134 0.9770
vn -0.0001 0.2133 0.9770
vn -1.0000 0.0006 -0.0003
vn 0.0313 -0.7972 -0.6029
vn -0.0000 0.9958 -0.0910
vn -0.0175 0.8659 -0.4999
vn -0.0137 0.8660 0.4999
vn 0.0002 0.9939 -0.1104
vn -1.0000 0.0006 -0.0002
vn -0.0080 -0.9331 0.3596
vn -0.0134 -0.9256 0.3783
vn -0.0085 -0.9332 0.3593
vn -0.0000 0.1490 0.9888
vn -0.0000 -0.7085 -0.7057
vn -0.0000 -0.0000 1.0000
vn 0.0002 0.9763 -0.2165
vn -0.0000 0.8660 -0.5000
vn 0.0154 0.4338 0.9009
vn 0.0190 -0.6950 -0.7188
vn -0.0184 0.8302 0.5572
vn -0.0000 -0.8660 0.5000
vn -0.0002 0.9714 -0.2376
vn -0.0000 -0.8660 -0.5000
vn -0.0153 -0.5124 -0.8586
vn -0.0001 0.9806 -0.1962
vn 0.0651 -0.2770 -0.9587
vn -0.0373 0.0747 0.9965
vn 0.0632 -0.4171 -0.9066
vn -0.0000 -0.0000 -1.0000
vn 0.0175 -0.0000 0.9998
vn 0.0196 -0.8762 0.4815
vn 0.0277 -0.8902 0.4548
vn 0.0176 -0.8771 0.4800
vn 0.0007 -0.6359 -0.7718
vn -0.0022 -0.7213 -0.6926
vn -0.0016 -0.7213 -0.6926
vn 0.0004 0.9653 -0.2611
vn 0.0003 0.9580 -0.2867
vn -0.0000 0.7085 0.7057
vn -0.0000 0.9433 -0.3319
vn -0.0196 0.7641 0.6448
vn -0.0000 0.9883 -0.1526
vn -0.0004 0.9913 -0.1315
vn 0.0382 -0.3267 -0.9443
vn 0.0006 -0.9999 0.0128
vn -0.0038 -0.9964 0.0842
vn -0.0037 -0.9964 0.0841
vn -0.0127 0.5938 0.8045
vn -0.0320 -0.7005 -0.7129
vn 0.0196 0.9405 0.3394
vn 0.0394 -0.5307 -0.8466
vn 0.0196 0.9041 -0.4268
vn -0.0044 -0.9642 0.2651
vn -0.0263 -0.6589 -0.7518
vn -0.0376 -0.1489 -0.9881
vn 0.0037 -0.9976 0.0697
vn 0.0060 -1.0000 -0.0018
vn 0.0039 -1.0000 -0.0019
vn 0.0063 0.7928 0.6095
vn 0.0298 -0.8396 -0.5424
vn 0.0034 -0.7945 -0.6073
vn -0.0017 -0.7271 -0.6865
vn 0.0003 -0.7946 -0.6072
vn -0.0177 0.8730 0.4874
vn 0.0019 -0.9988 0.0489
vn 0.0007 -0.9940 0.1091
vn -0.0376 0.6433 0.7647
vn 0.0001 0.9848 -0.1736
vn 0.0384 0.1160 0.9925
vn 1.0000 -0.0059 0.0027
vn 1.0000 -0.0053 0.0024
vn -0.0002 0.9587 -0.2844
vn -0.0000 -0.9572 0.2893
vn -0.0384 -0.6230 -0.7813
vn -0.0623 0.4460 0.8928
vn -0.0055 -0.9639 0.2661
vn -0.0076 -0.9577 0.2875
vn -0.0056 -0.9640 0.2660
vn -0.0006 -0.0471 0.9989
vn -0.0037 0.2101 0.9777
vn -0.0028 0.2101 0.9777
vn -0.0000 0.3544 0.9351
vn -0.0000 1.0000 -0.0000
vn 0.7813 0.4284 -0.4539
vn 0.6114 0.4536 -0.6484
vn 0.6190 0.4284 -0.6583
vn 0.9364 0.1600 0.3124
vn 0.9861 0.1562 0.0562
vn 0.9855 0.1600 0.0561
vn 0.0026 0.0084 1.0000
vn -0.8813 0.1998 0.4281
vn -0.7347 0.2557 0.6284
vn -0.7370 0.1998 0.6457
vn -0.3785 0.1048 -0.9197
vn -0.6045 0.1090 -0.7891
vn -0.6048 0.1048 -0.7895
vn -0.0333 -0.0687 -0.9971
vn 0.2263 -0.0615 -0.9721
vn -0.0335 -0.0615 -0.9975
vn 0.8344 0.1576 -0.5281
vn 0.6692 0.1429 -0.7292
vn 0.6669 0.1576 -0.7283
vn 0.8423 0.4299 0.3251
vn 0.8861 0.4580 0.0712
vn 0.9001 0.4299 0.0705
vn -0.8341 0.1601 0.5279
vn -0.6687 0.1464 0.7289
vn -0.6665 0.1601 0.7281
vn -0.8264 -0.3402 -0.4486
vn -0.6871 -0.3005 -0.6615
vn -0.8407 -0.3005 -0.4505
vn -0.0446 0.4636 -0.8849
vn -0.2959 0.4856 -0.8226
vn -0.3005 0.4636 -0.8335
vn 0.5609 0.0486 0.8265
vn 0.7513 0.0035 0.6600
vn 0.7558 0.0486 0.6529
vn 0.6313 0.2041 -0.7482
vn 0.4116 0.2002 -0.8891
vn 0.4112 0.2041 -0.8884
vn 0.4469 0.2504 -0.8588
vn 0.2653 0.1453 -0.9531
vn 0.2013 0.2504 -0.9470
vn -0.8092 -0.4804 -0.3381
vn -0.8058 -0.4874 -0.3363
vn -0.6739 -0.4804 -0.5614
vn 0.1377 -0.0232 0.9902
vn 0.3465 -0.1206 0.9303
vn 0.3893 -0.0232 0.9208
vn 0.0627 0.1371 -0.9886
vn -0.0682 0.1374 -0.9882
vn -0.0682 0.1371 -0.9882
vn -0.9973 0.0401 -0.0610
vn -0.9967 0.0412 0.0699
vn -0.9967 0.0401 0.0699
vn 0.9967 -0.0412 -0.0699
vn 0.9973 -0.0401 0.0610
vn 0.9967 -0.0401 -0.0699
vn -0.8992 -0.0865 -0.4290
vn -0.7590 -0.0676 -0.6476
vn -0.9010 -0.0676 -0.4285
vn -0.7467 0.0383 0.6640
vn -0.5533 0.0793 0.8292
vn -0.5493 0.0383 0.8347
vn 0.6448 0.1306 0.7531
vn 0.8191 0.1300 0.5587
vn 0.8190 0.1306 0.5587
vn -0.8838 0.4631 -0.0668
vn -0.8518 0.4885 0.1893
vn -0.8649 0.4631 0.1935
vn 0.4370 0.0585 0.8975
vn 0.6531 0.0302 0.7567
vn 0.6548 0.0585 0.7536
vn -0.9102 0.1002 0.4019
vn -0.7790 0.0690 0.6232
vn -0.7744 0.1002 0.6248
vn 0.8951 0.4449 -0.0286
vn 0.8225 0.5049 -0.2618
vn 0.8489 0.4449 -0.2855
vn -0.0795 0.1808 0.9803
vn 0.1812 0.1773 0.9673
vn 0.1812 0.1808 0.9667
vn -0.4668 -0.0081 0.8843
vn -0.2351 0.0504 0.9707
vn -0.2219 -0.0081 0.9750
vn -0.9779 0.2078 0.0216
vn -0.9332 0.2289 0.2770
vn -0.9374 0.2078 0.2795
vn -0.7629 0.5009 -0.4086
vn -0.8259 0.5399 -0.1625
vn -0.8501 0.5009 -0.1626
vn 0.5911 -0.2286 -0.7735
vn 0.5908 -0.2822 -0.7559
vn 0.7754 -0.2286 -0.5887
vn 0.0026 -1.0000 0.0084
vn 0.0682 -0.1374 0.9882
vn -0.0627 -0.1371 0.9886
vn 0.0682 -0.1371 0.9882
vn -0.0542 0.4683 0.8819
vn 0.1979 0.4241 0.8837
vn 0.2059 0.4684 0.8592
vn -0.3592 0.3772 0.8536
vn -0.1186 0.4400 0.8901
vn -0.1068 0.3772 0.9199
vn -0.5664 0.1732 -0.8057
vn -0.7588 0.1662 -0.6297
vn -0.7581 0.1732 -0.6287
vn -0.9996 -0.0085 0.0256
vn -0.9998 0.0127 0.0127
vn -0.9988 -0.0344 -0.0344
vn -0.9997 -0.0213 -0.0085
vn 0.9990 -0.0434 0.0087
vn 0.9997 -0.0169 -0.0169
vn 0.9996 0.0204 0.0204
vn 0.9998 0.0085 0.0159
vn -0.6965 0.0883 -0.7121
vn -0.8523 0.1226 -0.5085
vn -0.8576 0.0883 -0.5067
vn 0.0204 -0.9942 -0.1060
vn 0.0253 -0.9855 -0.1680
vn 0.0199 -0.9855 -0.1683
vn 0.0046 0.3138 0.9495
vn -0.0022 0.2908 0.9568
vn 0.0026 0.2914 0.9566
vn -0.1216 0.5314 0.8383
vn -0.1013 0.6196 0.7783
vn -0.1013 0.5294 0.8423
vn -0.0632 0.1718 0.9831
vn 0.0002 0.3933 0.9194
vn -0.0424 0.1715 0.9843
vn 0.0383 -0.0699 -0.9968
vn -0.0000 -0.0170 -0.9999
vn -0.0452 -0.7567 0.6522
vn 0.0069 -0.5846 0.8113
vn -0.0283 -0.7574 0.6524
vn -0.0001 -1.0000 -0.0001
vn 0.0003 -1.0000 -0.0001
vn -0.0000 -0.0826 -0.9966
vn 0.0640 -0.0956 -0.9934
vn -0.6512 0.0150 0.7588
vn -0.8249 -0.0020 0.5653
vn -0.8254 0.0150 0.5643
vn 0.8524 -0.0480 0.5207
vn 0.6882 -0.0510 0.7237
vn 0.6883 -0.0480 0.7238
vn 0.9993 0.0230 -0.0300
vn 0.9959 0.0405 -0.0805
vn 0.9992 0.0240 -0.0331
vn -0.9984 -0.0020 -0.0573
vn -0.9940 0.0154 -0.1078
vn -0.9921 -0.0694 -0.1044
vn -0.9955 -0.0717 -0.0613
vn -0.9832 -0.1304 -0.1278
vn -0.9917 0.0633 -0.1122
vn -0.9991 0.0207 -0.0379
vn -0.9954 0.0312 -0.0903
vn -0.9999 -0.0064 -0.0142
vn -0.9954 0.0340 -0.0899
vn -0.0160 0.8613 0.5078
vn 0.0307 0.7210 0.6922
vn 0.0164 0.7208 0.6930
vn 0.0021 0.2294 -0.9733
vn 0.0103 0.4586 -0.8886
vn -0.0056 0.2925 -0.9563
vn -0.0095 -0.5143 0.8576
vn 0.0549 -0.6961 0.7158
vn 0.0343 -0.6973 0.7159
vn 0.0235 -0.9974 0.0681
vn 0.0263 -0.9996 0.0076
vn 0.0234 -0.9974 0.0681
vn -0.0459 0.9597 -0.2774
vn 0.0001 0.9874 -0.1581
vn 0.0001 0.9882 -0.1529
vn 0.1664 0.2401 -0.9564
vn 0.1497 0.4702 -0.8698
vn 0.1378 0.2417 -0.9605
vn 0.8600 0.2432 -0.4486
vn 0.9043 0.3825 -0.1896
vn 0.9228 0.2404 -0.3011
vn 0.0014 0.9999 -0.0163
vn 0.0328 -0.9975 0.0628
vn 0.0330 -0.9995 0.0023
vn 0.0246 -0.9977 -0.0626
vn -0.0090 0.9965 0.0831
vn -0.0060 0.9997 0.0238
vn -0.0061 0.9965 0.0832
vn 0.1265 -0.0030 -0.9920
vn 0.1695 0.2381 -0.9563
vn 0.1426 0.2397 -0.9603
vn 0.0041 0.9998 -0.0196
vn 0.9750 -0.0441 0.2177
vn 0.8859 -0.0349 0.4626
vn 0.9755 -0.0349 0.2174
vn -0.0560 0.9871 0.1503
vn -0.0451 0.9910 0.1264
vn -0.0499 0.9906 0.1276
vn 0.0125 0.2978 -0.9546
vn 0.0225 0.3687 -0.9293
vn -0.0073 0.3730 -0.9278
vn 0.1605 -0.1097 -0.9809
vn 0.1693 -0.0450 -0.9845
vn 0.1689 -0.1102 -0.9794
vn -0.0253 -0.9855 -0.1680
vn -0.0204 -0.9942 -0.1060
vn -0.0199 -0.9855 -0.1683
vn 0.0018 0.9996 -0.0267
vn 0.0760 -0.0433 -0.9962
vn 0.3314 -0.0370 -0.9428
vn 0.0759 -0.0370 -0.9964
vn 0.0093 0.9998 -0.0183
vn -0.1814 0.9801 -0.0812
vn 0.0089 0.2823 0.9593
vn 0.0040 0.3051 0.9523
vn 0.0045 0.2827 0.9592
vn -0.1811 -0.6842 -0.7065
vn -0.1949 -0.6910 -0.6961
vn -0.1737 -0.6496 -0.7401
vn 0.0753 -0.7383 -0.6703
vn 0.1031 -0.7601 -0.6416
vn 0.0914 -0.6946 -0.7136
vn 0.0148 -0.7127 -0.7013
vn 0.0021 -0.6790 -0.7342
vn 0.0436 -0.6824 -0.7297
vn -0.0031 -0.6941 -0.7199
vn -0.9942 0.0459 -0.0973
vn -0.9989 0.0276 -0.0387
vn -0.9980 0.0294 -0.0563
vn -0.1702 0.2403 -0.9557
vn -0.1415 0.2417 -0.9600
vn -0.1508 0.4702 -0.8696
vn 0.0304 0.2251 -0.9739
vn 0.0386 0.2882 -0.9568
vn 0.0232 0.4560 -0.8897
vn 0.9918 0.0643 -0.1103
vn 0.9955 0.0312 -0.0891
vn 0.9991 0.0205 -0.0367
vn -0.6067 -0.0000 -0.7949
vn -0.6900 0.0312 -0.7231
vn -0.5605 0.0055 -0.8282
vn 0.0001 -1.0000 -0.0000
vn -0.0003 -1.0000 -0.0001
vn 0.4358 -0.0217 -0.8998
vn 0.5771 -0.0299 -0.8161
vn 0.6662 -0.0213 -0.7455
vn 0.0087 -0.6630 -0.7486
vn -0.0001 -0.6984 -0.7158
vn 0.0068 -0.6629 -0.7487
vn 0.0001 -1.0000 0.0001
vn 0.9941 0.0150 -0.1071
vn 0.9984 -0.0026 -0.0567
vn -0.3844 0.0043 0.9232
vn -0.6099 -0.0052 0.7925
vn -0.3841 -0.0052 0.9233
vn 0.1930 0.6408 0.7430
vn 0.1088 0.4728 0.8744
vn 0.1172 0.4663 0.8768
vn -0.1831 0.1817 0.9662
vn -0.1396 0.4063 0.9030
vn -0.1660 0.1840 0.9688
vn -0.5165 0.0094 -0.8562
vn -0.6353 -0.0579 -0.7701
vn -0.5155 -0.0401 -0.8560
vn -0.8377 0.5180 -0.1732
vn -0.8109 0.3878 -0.4383
vn -0.8811 0.3792 -0.2825
vn -0.0009 -0.9741 -0.2260
vn 0.0001 -0.9741 -0.2260
vn -0.0007 -0.9741 -0.2260
vn -0.0146 0.9874 0.1574
vn 0.0045 0.9850 0.1727
vn -0.0250 0.9832 0.1810
vn -0.0020 -0.1300 -0.9915
vn -0.0034 -0.1138 -0.9935
vn -0.0028 -0.1300 -0.9915
vn -0.1851 0.5446 0.8180
vn -0.1829 0.6332 0.7521
vn -0.1829 0.5448 0.8184
vn 0.0002 -1.0000 -0.0002
vn 0.1575 0.9262 0.3426
vn 0.1401 0.8857 0.4425
vn 0.1575 0.8821 0.4440
vn -0.0210 -0.1844 -0.9826
vn -0.0204 -0.1198 -0.9926
vn -0.0257 -0.1842 -0.9825
vn 0.0613 0.9964 -0.0584
vn 0.1779 0.6870 0.7046
vn 0.1743 0.6041 0.7776
vn 0.1779 0.6036 0.7772
vn -0.6759 -0.0225 -0.7367
vn -0.4959 -0.0491 -0.8670
vn -0.7163 -0.0457 -0.6963
vn -0.0083 0.9996 0.0263
vn -0.0016 0.9964 0.0852
vn -0.0052 0.9963 0.0855
vn -0.9940 -0.0199 0.1080
vn -1.0000 0.0018 0.0014
vn 0.9999 -0.0063 -0.0142
vn 0.9954 0.0343 -0.0899
vn -0.0000 -0.0303 -0.9995
vn 0.0007 -0.0956 -0.9954
vn -0.0755 -0.7374 -0.6712
vn -0.0914 -0.6936 -0.7145
vn -0.1036 -0.7591 -0.6427
vn -0.9998 -0.0025 -0.0211
vn -0.9966 -0.0080 -0.0823
vn 0.9921 -0.0694 -0.1043
vn 0.9832 -0.1304 -0.1278
vn 0.9955 -0.0717 -0.0613
vn -0.9630 -0.0058 -0.2695
vn -0.8605 0.0026 -0.5094
vn -0.8604 -0.0057 -0.5096
vn 0.9998 -0.0025 -0.0211
vn 0.9966 -0.0080 -0.0824
vn 0.9942 0.0460 -0.0974
vn 0.9980 0.0294 -0.0563
vn 0.9989 0.0276 -0.0387
vn -0.9996 0.0104 -0.0248
vn -0.9995 0.0112 -0.0279
vn -0.9968 0.0264 -0.0758
vn -0.9975 -0.0026 -0.0700
vn -0.9999 -0.0026 -0.0165
vn 0.0210 -0.1844 -0.9826
vn 0.0257 -0.1842 -0.9825
vn 0.0204 -0.1198 -0.9926
vn -0.1866 -0.0992 -0.9774
vn -0.1949 -0.0997 -0.9758
vn -0.1953 -0.0344 -0.9801
vn -0.0006 -0.0823 -0.9966
vn -0.0612 0.6409 0.7652
vn 0.0229 0.7912 0.6111
vn 0.0116 0.7956 0.6057
vn -0.0181 -0.7130 -0.7009
vn -0.0045 -0.6794 -0.7337
vn -0.2405 0.8600 0.4501
vn -0.2366 0.9064 0.3500
vn -0.2366 0.8608 0.4507
vn -0.0000 -0.0344 -0.9994
vn -0.0063 -0.0994 -0.9950
vn 0.0549 -0.9760 -0.2107
vn -0.0001 -0.9956 -0.0936
vn -0.0001 -0.9961 -0.0884
vn 0.9975 -0.0014 -0.0700
vn 0.9999 -0.0014 -0.0165
vn 0.1800 -0.6843 -0.7066
vn 0.1728 -0.6497 -0.7403
vn 0.1938 -0.6912 -0.6962
vn -0.1304 0.8667 -0.4815
vn 0.0483 0.9292 -0.3664
vn 0.0614 0.9263 -0.3718
vn -0.8160 -0.5759 0.0493
vn -0.8237 -0.5667 -0.0162
vn -0.8294 -0.5559 0.0553
vn -0.6282 0.1913 -0.7542
vn -0.6136 0.2844 -0.7366
vn -0.6282 -0.1718 0.7588
vn -0.5703 0.4479 0.6886
vn -0.0934 0.0621 0.9937
vn -0.1555 0.4455 0.8817
vn -0.2063 0.0686 0.9761
vn -0.2332 -0.8917 0.3880
vn -0.0153 -0.9941 0.1073
vn -0.1071 -0.8842 0.4547
vn -0.9579 0.0848 0.2744
vn -0.9979 -0.0509 0.0400
vn -0.9489 -0.0665 0.3086
vn -0.0753 0.9080 -0.4122
vn 0.1147 0.9872 -0.1108
vn 0.0435 0.8871 -0.4595
vn -0.9717 -0.2054 -0.1168
vn -0.9991 0.0435 -0.0019
vn -0.9648 -0.0538 -0.2573
vn 0.0078 -0.5672 -0.8235
vn -0.1068 -0.2276 -0.9679
vn 0.0097 -0.2225 -0.9749
vn -0.6214 -0.5005 -0.6028
vn -0.6867 -0.1479 -0.7118
vn -0.4806 -0.4408 0.7581
vn -0.5215 0.8358 0.1719
vn -0.5149 0.8227 0.2409
vn -0.5280 0.8321 0.1699
vn -0.9496 0.2772 0.1466
vn -0.9931 0.0066 0.1171
vn -0.9340 0.2198 0.2817
vn -0.0765 -0.4076 0.9099
vn -0.2500 -0.6749 0.6943
vn -0.1205 -0.7142 0.6895
vn -0.1869 0.7098 0.6791
vn -0.4391 0.8307 0.3423
vn -0.3580 0.6183 0.6996
vn -0.1796 0.0088 -0.9837
vn 0.0627 0.2831 -0.9570
vn -0.0529 -0.0734 -0.9959
vn -0.9618 -0.0480 -0.2694
vn -0.9998 0.0208 -0.0071
vn -0.9592 0.0745 -0.2727
vn -0.1356 0.9385 -0.3175
vn 0.0972 0.9946 -0.0375
vn -0.0084 0.9203 -0.3912
vn -0.8774 -0.4792 -0.0224
vn -0.9989 -0.0479 -0.0022
vn -0.9788 -0.0874 -0.1854
vn -0.9741 -0.2213 0.0453
vn -0.9987 0.0423 -0.0275
vn -0.9699 -0.2152 -0.1144
vn -0.2322 -0.6962 -0.6793
vn -0.3066 -0.8969 -0.3188
vn -0.3677 -0.6716 -0.6432
vn 0.1298 -0.9862 -0.1024
vn -0.1080 -0.9234 -0.3685
vn 0.0146 -0.8949 -0.4460
vn -0.6874 0.1634 -0.7077
vn -0.6264 0.4901 -0.6061
vn -0.5638 0.2637 0.7827
vn 0.1384 0.9892 -0.0484
vn -0.0711 0.9656 0.2501
vn 0.0509 0.9490 0.3112
vn -0.1798 -0.0431 0.9828
vn -0.2769 0.3496 0.8950
vn -0.3001 -0.0476 0.9527
vn -0.2419 0.7249 0.6450
vn -0.3303 0.9037 0.2724
vn -0.3894 0.6943 0.6053
vn -0.1716 -0.9241 0.3415
vn -0.1125 -0.9927 -0.0439
vn -0.0666 -0.9421 0.3285
vn -0.9995 -0.0063 -0.0305
vn -0.9657 0.2558 0.0439
vn -0.9611 0.2500 -0.1177
vn -0.9526 0.0607 0.2982
vn -0.9965 -0.0616 0.0571
vn -0.9404 -0.1170 0.3194
vn 0.0766 -0.0480 -0.9959
vn -0.0467 0.3056 -0.9510
vn 0.0652 0.3191 -0.9455
vn -0.9499 -0.2352 -0.2057
vn -0.9934 0.0207 -0.1129
vn -0.9400 -0.1886 -0.2843
vn 0.8158 -0.5038 -0.2840
vn 0.6938 0.7202 -0.0019
vn 0.9518 -0.2999 0.0644
vn 0.9990 -0.0407 -0.0166
vn 0.9588 -0.1876 0.2132
vn 0.5833 -0.4584 0.6706
vn 0.5619 0.6402 0.5238
vn -0.1176 -0.7485 0.6527
vn 0.0491 -0.4992 0.8651
vn -0.0668 -0.4651 0.8828
vn 0.2325 0.6176 0.7513
vn 0.1120 0.8715 0.4774
vn 0.1108 0.6281 0.7702
vn 0.2401 0.2333 -0.9423
vn 0.4199 0.5480 -0.7235
vn 0.3826 0.1915 -0.9039
vn 0.9464 0.1951 -0.2573
vn 0.9976 0.0001 -0.0699
vn 0.9973 -0.0017 -0.0736
vn 0.9124 -0.2126 -0.3497
vn 0.9893 -0.0647 -0.1308
vn 0.9237 -0.3209 -0.2095
vn 0.0626 -0.4380 -0.8968
vn -0.0307 -0.7378 -0.6743
vn -0.0459 -0.4387 -0.8974
vn 0.9295 0.1612 -0.3317
vn 0.9916 -0.0120 -0.1287
vn 0.9222 0.0724 -0.3798
vn 0.4471 -0.4139 -0.7930
vn -0.2084 0.3074 0.9285
vn -0.0201 0.5898 0.8073
vn -0.1347 0.6279 0.7665
vn 0.7474 -0.6237 0.2287
vn 0.6696 0.3537 0.6531
vn 0.6903 -0.5099 -0.5133
vn 0.9035 -0.3902 -0.1774
vn 0.7241 -0.6723 -0.1537
vn 0.9885 -0.1509 -0.0041
vn 0.9917 0.1179 0.0511
vn 0.9786 -0.1342 0.1563
vn 0.2287 -0.7004 0.6761
vn 0.2547 -0.9099 0.3274
vn 0.3481 -0.6906 0.6339
vn 0.2158 0.6370 -0.7401
vn 0.2195 0.8825 -0.4160
vn 0.3320 0.6375 -0.6953
vn 0.9671 -0.0334 0.2522
vn 0.9996 0.0237 -0.0136
vn 0.9643 0.0824 0.2515
vn -0.0940 -0.3236 -0.9415
vn 0.1108 -0.5938 -0.7969
vn -0.0131 -0.6431 -0.7657
vn 0.8489 -0.5282 0.0179
vn 0.9909 -0.1113 0.0756
vn 0.9619 -0.1496 0.2288
vn 0.6850 0.0138 -0.7284
vn 0.6500 0.2500 -0.7177
vn 0.9542 -0.2193 0.2032
vn 0.9962 0.0258 0.0833
vn 0.9444 -0.1397 0.2976
vn 0.6258 -0.1923 0.7559
vn 0.6212 -0.2257 0.7504
vn 0.9423 0.0477 -0.3314
vn 0.9976 -0.0115 -0.0679
vn 0.9974 -0.0144 -0.0704
vn 0.2207 0.6526 -0.7248
vn 0.3262 0.8611 -0.3900
vn 0.3442 0.6270 -0.6988
vn -0.1892 0.9819 -0.0107
vn -0.0180 0.9447 -0.3275
vn -0.1308 0.9212 -0.3664
vn 0.2991 -0.2658 -0.9165
vn 0.0220 -0.4999 -0.8658
vn 0.1738 -0.1672 -0.9705
vn 0.3003 -0.9095 -0.2876
vn 0.2310 -0.9666 0.1108
vn 0.1838 -0.9446 -0.2720
vn 0.9491 0.0103 -0.3150
vn 0.9988 0.0188 -0.0458
vn 0.9539 -0.1348 -0.2681
vn -0.0000 0.9847 -0.1740
vn 0.0019 -1.0000 -0.0000
vn 0.0516 0.4027 0.9139
vn 0.0624 -0.4024 -0.9133
vn 0.0119 0.9081 -0.4185
vn 0.0381 -0.0621 0.9973
vn 0.0171 -0.2569 0.9663
vn -0.0175 0.2569 -0.9663
vn 0.0302 -0.7511 -0.6595
vn -0.0002 0.9508 -0.3097
vn 0.0385 0.2613 0.9645
vn 0.0001 0.9762 -0.2168
vn 0.0076 -0.5321 -0.8467
vn 0.0012 -0.6820 -0.7313
vn 0.0002 -0.6820 -0.7314
vn -0.0131 -0.7599 -0.6499
vn -0.0000 0.9958 -0.0913
vn 0.0401 -0.9976 0.0560
vn 0.0376 0.5308 0.8467
vn -1.0000 0.0002 -0.0002
vn -1.0000 0.0002 -0.0000
vn 0.0343 -0.4556 -0.8895
vn 0.0001 0.9238 -0.3829
vn -0.0625 -0.6115 -0.7888
vn -0.0253 -0.9312 0.3637
vn -0.0214 -0.9907 0.1344
vn -0.0280 -0.9677 0.2507
vn 0.0001 0.9340 -0.3572
vn -0.0128 0.6234 0.7818
vn -0.0208 -0.8209 -0.5708
vn 0.0293 0.2637 0.9642
vn 0.0293 0.9668 -0.2537
vn 0.0194 0.6642 0.7473
vn -0.0127 0.6903 0.7235
vn 0.0077 0.8039 0.5947
vn -0.0368 -0.1162 -0.9926
vn -0.0189 -0.8953 0.4451
vn -0.0000 0.9654 -0.2607
vn -0.0078 0.7209 0.6930
vn -0.0001 0.9713 -0.2379
vn 0.0392 -0.4672 -0.8833
vn -0.0004 0.9808 -0.1949
vn 0.0001 0.8970 -0.4420
vn -0.0003 0.9233 -0.3841
vn -0.0002 0.9120 -0.4101
vn 0.0635 -0.0107 0.9979
vn 0.0281 -0.0428 -0.9987
vn -0.0125 0.0727 -0.9973
vn -0.0065 0.0737 -0.9973
vn -0.0000 1.0000 0.0013
vn -0.0000 -0.3653 -0.9309
vn -0.0343 -0.6688 0.7426
vn 0.0005 0.9653 -0.2610
vn -0.0329 0.4670 0.8836
vn -0.0003 0.9430 -0.3328
vn -0.0004 0.9880 -0.1544
vn -0.0001 0.9915 -0.1302
vn -0.0000 -0.2948 -0.9556
vn 0.0130 -0.9445 0.3284
vn 0.0082 -0.9372 0.3487
vn 0.0077 -0.9373 0.3484
vn 0.0001 0.9125 -0.4091
vn 0.0388 0.5522 0.8328
vn 0.0146 -0.9804 -0.1964
vn 0.0136 -0.9804 -0.1964
vn 0.0123 -0.9991 0.0400
vn 0.0128 -0.0747 -0.9971
vn -1.0000 0.0007 -0.0002
vn -0.0119 -0.4037 0.9148
vn -0.0068 -0.5092 0.8606
vn -0.0080 -0.5093 0.8606
vn 0.0383 -0.2124 -0.9764
vn -0.0259 0.7653 0.6431
vn 0.0081 -0.8012 -0.5984
vn 0.0007 -0.7348 -0.6782
vn 0.0006 -0.7348 -0.6783
vn 0.0078 0.8377 0.5461
vn -0.0000 -0.9985 0.0550
vn -0.0015 -0.9985 0.0550
vn -0.0013 -0.9933 0.1152
vn 0.0077 0.7337 0.6795
vn 0.0385 -0.0318 -0.9988
vn 0.1316 -0.0440 0.9903
vn -0.0602 -0.1606 0.9852
vn -0.0466 -0.1672 0.9848
vn -0.0244 -0.6631 0.7481
vn -0.0334 -0.6665 0.7448
vn 0.0872 -0.7242 0.6840
vn 1.0000 -0.0008 0.0007
vn -0.0003 0.9336 -0.3584
vn -0.0633 -0.6425 -0.7637
vn 0.0128 0.2243 0.9744
vn 0.0128 0.2245 0.9744
vn 0.0113 0.2247 0.9744
vn -0.0201 -0.7917 -0.6105
vn 0.0128 0.3653 0.9308
vn 0.0343 0.3087 -0.9505
vn 0.8382 0.2058 -0.5051
vn 0.8458 0.1716 -0.5052
vn 0.6834 0.1716 -0.7096
vn -0.0026 -0.0084 1.0000
vn -0.4560 -0.1355 0.8796
vn -0.4558 -0.1418 0.8787
vn -0.2103 -0.1418 0.9673
vn 0.6496 -0.0792 0.7562
vn 0.6488 -0.0880 0.7559
vn 0.8229 -0.0880 0.5614
vn 0.9741 -0.0138 -0.2256
vn 0.9749 0.0170 -0.2219
vn 0.8842 0.0170 -0.4667
vn -0.5598 0.2145 -0.8004
vn -0.3278 0.2145 -0.9201
vn -0.3317 0.2634 -0.9059
vn 0.7059 0.1485 -0.6926
vn 0.8625 0.1485 -0.4838
vn 0.8621 0.1517 -0.4835
vn -0.9411 -0.1104 0.3195
vn -0.9471 -0.0665 0.3139
vn -0.8333 -0.0665 0.5488
vn -0.8687 -0.1199 0.4805
vn -0.8741 -0.0846 0.4784
vn -0.7199 -0.0846 0.6889
vn 0.9470 -0.2659 0.1801
vn 0.9593 -0.1990 0.2003
vn 0.9782 -0.1990 -0.0600
vn 0.1649 0.1207 0.9789
vn 0.1232 0.0232 0.9921
vn 0.3758 0.0232 0.9264
vn 0.0681 -0.0404 -0.9969
vn 0.0682 -0.0401 -0.9969
vn -0.0627 -0.0401 -0.9972
vn 0.5405 -0.4165 0.7310
vn 0.5457 -0.3936 0.7398
vn 0.7317 -0.3936 0.5566
vn -0.9880 -0.1378 -0.0699
vn -0.9881 -0.1369 -0.0699
vn -0.9887 -0.1369 0.0609
vn 0.9887 0.1369 -0.0609
vn 0.9881 0.1369 0.0699
vn 0.9880 0.1378 0.0699
vn -0.6364 -0.4981 0.5890
vn -0.6529 -0.4628 0.5996
vn -0.4499 -0.4628 0.7638
vn 0.1812 -0.1773 -0.9673
vn 0.1812 -0.1808 -0.9667
vn -0.0795 -0.1808 -0.9803
vn 0.9551 -0.0992 0.2790
vn 0.9558 -0.0915 0.2794
vn 0.9956 -0.0915 0.0214
vn -0.5861 -0.2284 0.7774
vn -0.5972 -0.1841 0.7806
vn -0.3707 -0.1841 0.9103
vn 0.9861 -0.1562 -0.0562
vn 0.9855 -0.1600 -0.0561
vn 0.9364 -0.1600 -0.3124
vn 0.2769 -0.0878 -0.9569
vn 0.2826 -0.0505 -0.9579
vn 0.0247 -0.0505 -0.9984
vn -0.7790 -0.0690 -0.6232
vn -0.7744 -0.1002 -0.6248
vn -0.9102 -0.1001 -0.4019
vn -0.0026 -1.0000 -0.0084
vn -0.7588 -0.1662 0.6297
vn -0.7581 -0.1732 0.6287
vn -0.5664 -0.1731 0.8057
vn 0.0627 0.0401 0.9972
vn -0.0682 0.0401 0.9969
vn -0.0681 0.0404 0.9969
vn -0.4423 -0.1117 -0.8899
vn -0.4403 -0.0793 -0.8943
vn -0.6574 -0.0793 -0.7494
vn 0.8127 0.1678 -0.5580
vn 0.9307 0.1678 -0.3251
vn 0.9157 0.2250 -0.3328
vn 0.4116 -0.2002 0.8891
vn 0.4111 -0.2041 0.8884
vn 0.6313 -0.2041 0.7482
vn 0.3465 0.1206 -0.9303
vn 0.3893 0.0232 -0.9208
vn 0.1377 0.0232 -0.9902
vn 0.6864 -0.1030 0.7199
vn 0.6824 -0.1277 0.7197
vn 0.8465 -0.1277 0.5168
vn -0.6662 -0.2488 -0.7030
vn -0.6657 -0.1896 -0.7217
vn -0.8324 -0.1896 -0.5208
vn -0.0222 -0.9953 -0.0946
vn -0.0225 -0.9952 -0.0951
vn -0.0134 -0.9876 -0.1564
vn -0.1836 0.8658 0.4656
vn -0.1869 0.8653 0.4651
vn -0.1869 0.8076 0.5594
vn -0.0168 0.3060 0.9519
vn 0.0094 0.3123 0.9499
vn -0.0001 0.2886 0.9575
vn -0.0201 0.2327 0.9723
vn 0.0286 0.4498 0.8927
vn 0.0500 0.4479 0.8927
vn 0.0237 -0.0854 -0.9961
vn -0.0019 -0.0919 -0.9958
vn -0.0051 -0.0267 -0.9996
vn 0.0005 -0.7092 0.7050
vn 0.0340 -0.5251 0.8504
vn 0.0507 -0.5248 0.8497
vn 0.9359 -0.1370 -0.3247
vn 0.9360 0.0499 -0.3485
vn 0.9361 0.0463 -0.3486
vn 0.9945 0.0462 -0.0941
vn 0.5662 -0.0415 -0.8232
vn 0.3336 -0.0415 -0.9418
vn 0.3336 -0.0452 -0.9416
vn -0.5358 0.0438 -0.8432
vn -0.5359 0.0421 -0.8432
vn -0.2992 0.0421 -0.9533
vn 0.3894 0.0221 0.9208
vn 0.3894 0.0259 0.9207
vn 0.1378 0.0259 0.9901
vn -0.7817 -0.0045 0.6237
vn -0.7808 -0.0218 0.6245
vn -0.9158 -0.0218 0.4010
vn 0.6507 0.0370 -0.7584
vn 0.8250 0.0370 -0.5640
vn 0.8247 0.0433 -0.5639
vn 0.0132 -0.7418 -0.6705
vn 0.0232 -0.7312 -0.6818
vn 0.0144 -0.7793 -0.6265
vn -0.9959 0.0067 -0.0901
vn -0.9926 -0.0256 -0.1188
vn -0.9897 0.0204 -0.1415
vn 0.1645 0.9593 0.2294
vn 0.1645 0.9790 0.1206
vn 0.1680 0.9784 0.1206
vn -0.0243 0.8776 0.4788
vn -0.0100 0.8782 0.4782
vn 0.0233 0.7439 0.6679
vn 0.0467 -0.5418 0.8392
vn 0.0691 -0.5355 0.8417
vn 0.1397 -0.7090 0.6913
vn -0.3348 0.0203 0.9421
vn -0.3340 0.0048 0.9426
vn -0.5666 0.0048 0.8240
vn -0.0079 -0.9981 -0.0607
vn -0.0007 -0.9921 -0.1255
vn -0.0000 -1.0000 0.0002
vn -0.8528 0.0359 -0.5210
vn -0.6887 0.0359 -0.7241
vn -0.6887 0.0456 -0.7236
vn -0.0161 -0.9978 0.0643
vn -0.0107 -0.9981 -0.0614
vn -0.0163 -0.9999 0.0037
vn -0.0071 0.9716 -0.2365
vn -0.0011 0.9716 -0.2365
vn -0.0030 0.9947 -0.1025
vn 0.6631 -0.1356 -0.7362
vn 0.7144 -0.0908 -0.6938
vn 0.4941 -0.0908 -0.8647
vn 0.9933 -0.0050 0.1158
vn 0.9933 -0.0041 0.1158
vn 1.0000 -0.0012 0.0072
vn 0.9922 0.0043 0.1243
vn 0.9999 0.0072 0.0157
vn 1.0000 0.0014 0.0013
vn 0.9939 0.0022 0.1100
vn 0.9939 -0.0093 0.1099
vn 1.0000 0.0012 0.0017
vn 1.0000 0.0018 0.0011
vn 0.9940 -0.0164 0.1083
vn -0.0038 -0.8543 -0.5198
vn -0.0034 -0.8543 -0.5198
vn -0.0026 -0.6906 -0.7232
vn 0.0151 0.6967 -0.7172
vn 0.0071 0.4875 -0.8731
vn 0.0055 0.4876 -0.8731
vn -0.0235 -0.9974 0.0681
vn -0.0234 -0.9974 0.0681
vn -0.0263 -0.9996 0.0076
vn 0.0309 0.9978 0.0579
vn 0.0266 0.9975 -0.0660
vn 0.0359 0.9994 -0.0013
vn 0.0601 0.4688 0.8813
vn 0.0601 0.5633 0.8240
vn 0.0276 0.5553 0.8312
vn -0.0116 -0.2179 -0.9759
vn -0.0123 -0.2179 -0.9759
vn -0.0133 -0.1536 -0.9880
vn 0.0134 -0.9876 -0.1564
vn 0.0225 -0.9952 -0.0951
vn 0.0222 -0.9953 -0.0946
vn -0.0030 1.0000 -0.0022
vn 0.0084 0.2799 0.9600
vn -0.0004 0.3035 0.9528
vn 0.0233 0.2984 0.9542
vn 0.2284 0.7367 0.6365
vn 0.2284 0.8041 0.5489
vn 0.2309 0.8036 0.5486
vn 0.4609 0.0870 -0.8832
vn 0.4638 0.0352 -0.8852
vn 0.5895 0.0264 -0.8073
vn 0.0478 -0.6917 -0.7206
vn 0.0012 -0.7034 -0.7108
vn 0.0568 0.1230 -0.9908
vn -0.0307 0.0643 -0.9975
vn 0.1258 0.0852 -0.9884
vn -0.0661 -0.0001 0.9978
vn -0.0008 -0.0001 1.0000
vn 0.9898 0.0200 -0.1414
vn 0.9926 -0.0259 -0.1186
vn 0.9959 0.0063 -0.0899
vn -0.4358 -0.0217 -0.8998
vn -0.6662 -0.0214 -0.7455
vn -0.5771 -0.0299 -0.8161
vn 0.0075 -0.9602 -0.2792
vn 0.0053 -0.9602 -0.2792
vn 0.0073 -0.9602 -0.2792
vn -0.0488 -0.7540 -0.6551
vn -0.0637 -0.7480 -0.6606
vn 0.1362 -0.6620 -0.7370
vn -0.1421 0.2390 -0.9606
vn -0.1696 0.2383 -0.9563
vn -0.1675 -0.0061 -0.9859
vn 0.0114 0.9859 0.1672
vn 0.0062 0.9858 0.1677
vn 0.0055 0.9818 0.1897
vn 0.0051 -0.1861 -0.9825
vn 0.0033 -0.1700 -0.9854
vn 0.0048 -0.1700 -0.9854
vn -0.7249 -0.0204 -0.6886
vn -0.8784 -0.0204 -0.4775
vn -0.8781 -0.0290 -0.4776
vn 0.0189 -0.9801 -0.1974
vn 0.0156 -0.9802 -0.1974
vn 0.0172 -0.9910 -0.1329
vn -0.0787 0.9968 -0.0133
vn -0.0635 0.9950 -0.0769
vn -0.0728 0.9963 0.0458
vn -0.9999 0.0069 0.0145
vn -0.9924 0.0043 0.1231
vn -0.9939 0.0026 0.1102
vn -0.9933 -0.0008 0.1158
vn -0.9933 -0.0023 0.1158
vn -1.0000 -0.0007 0.0071
vn -1.0000 0.0013 0.0021
vn -0.9939 -0.0106 0.1102
vn 0.8785 -0.0023 0.4778
vn 0.8786 0.0058 0.4776
vn 0.7250 0.0058 0.6887
vn -0.0155 -0.1147 -0.9933
vn -0.0234 -0.1116 -0.9935
vn 0.0046 -0.0527 -0.9986
vn 0.4186 0.1314 -0.8986
vn 0.4339 0.0920 -0.8963
vn 0.5474 0.0688 -0.8340
vn -0.0232 0.7279 0.6853
vn -0.0117 0.7232 0.6905
vn 0.0615 0.8563 0.5127
vn 0.0032 -0.9816 -0.1908
vn 0.0010 -0.9816 -0.1908
vn 0.0011 -0.9984 -0.0558
vn 0.0661 0.0010 0.9978
vn 0.0009 0.0010 1.0000
vn 0.0013 -0.0527 -0.9986
vn -0.0033 -0.0529 -0.9986
vn -0.0125 0.0701 -0.9975
vn -0.0014 0.9278 -0.3730
vn 0.0013 0.7997 -0.6004
vn 0.0023 0.7997 -0.6004
vn 0.0120 0.9956 0.0933
vn 0.0036 0.9967 0.0812
vn 0.0041 1.0000 0.0022
vn -0.0271 -0.8277 0.5606
vn -0.0000 -0.8693 0.4943
vn 0.0035 -0.8712 0.4910
vn -0.1512 0.9885 0.0082
vn -0.3324 0.9401 -0.0750
vn -0.4415 0.8459 0.2992
vn -0.1036 0.0500 0.9934
vn -0.0873 0.4180 0.9042
vn -0.2022 0.4144 0.8874
vn -0.9341 -0.0562 0.3526
vn -0.9950 0.0221 0.0977
vn -0.9953 0.0199 0.0948
vn -0.9565 -0.0577 -0.2860
vn -0.9992 -0.0366 -0.0168
vn -0.9993 -0.0342 -0.0145
vn -0.4124 -0.6790 0.6074
vn -0.3111 -0.9052 0.2896
vn -0.1191 -0.9149 0.3858
vn -0.2956 0.5083 -0.8089
vn -0.4297 0.4589 -0.7777
vn -0.4423 0.7493 -0.4928
vn -0.8485 -0.3903 -0.3574
vn -0.9835 -0.1804 -0.0113
vn -0.9916 -0.0290 -0.1260
vn -0.0679 -0.6041 -0.7940
vn -0.1773 -0.5913 -0.7867
vn -0.1358 -0.2459 -0.9597
vn -0.1389 -0.9856 0.0969
vn -0.3421 -0.9294 0.1384
vn -0.3824 -0.8894 -0.2504
vn 0.0478 0.4079 0.9118
vn -0.0573 0.7064 0.7055
vn -0.1863 0.6414 0.7443
vn -0.4685 -0.0435 0.8824
vn -0.4012 -0.4420 0.8023
vn -0.2277 -0.4069 0.8847
vn -0.7815 0.4318 0.4503
vn -0.7853 0.6072 0.1206
vn -0.9458 0.3170 0.0704
vn -0.9460 0.0895 -0.3115
vn -0.9963 -0.0408 -0.0758
vn -0.9966 -0.0388 -0.0728
vn -0.1986 -0.7428 0.6394
vn -0.3808 -0.6767 0.6302
vn -0.3991 -0.8739 0.2775
vn -0.2531 0.6629 -0.7046
vn -0.4019 0.6080 -0.6846
vn -0.3965 0.8512 -0.3438
vn -0.9472 -0.0831 0.3097
vn -0.9350 0.0644 0.3487
vn -0.9948 0.0609 0.0815
vn -0.2198 -0.3164 -0.9228
vn -0.3487 -0.3002 -0.8879
vn -0.3093 0.0861 -0.9470
vn -0.8204 0.5658 -0.0825
vn -0.9315 0.1896 -0.3103
vn -0.9686 0.1705 -0.1807
vn -0.5188 -0.8376 0.1711
vn -0.5264 -0.8333 0.1688
vn -0.5121 -0.8247 0.2400
vn -0.2037 -0.0450 0.9780
vn -0.1815 0.3338 0.9250
vn -0.2994 0.3334 0.8940
vn -0.9274 -0.1641 0.3362
vn -0.9934 -0.0207 0.1124
vn -0.9938 -0.0224 0.1092
vn 0.0705 -0.8860 0.4583
vn -0.0538 -0.9907 0.1250
vn 0.0464 -0.9951 0.0869
vn 0.0236 -0.0468 -0.9986
vn -0.0807 -0.0250 -0.9964
vn -0.0058 0.3375 -0.9413
vn -0.2601 0.7057 -0.6590
vn -0.4238 0.6349 -0.6460
vn -0.4433 0.8472 -0.2927
vn -0.3045 -0.8888 -0.3425
vn -0.4761 -0.8403 -0.2594
vn -0.5297 -0.6104 -0.5889
vn -0.8826 0.4696 -0.0223
vn -0.9796 0.0775 -0.1853
vn -0.9993 0.0371 -0.0013
vn -0.9490 0.0329 -0.3137
vn -0.9447 -0.0911 -0.3150
vn -0.9980 -0.0338 -0.0527
vn 0.8417 0.0609 -0.5364
vn 0.3214 0.6606 0.6784
vn 0.3734 0.8594 0.3493
vn 0.2490 0.9010 0.3551
vn 0.1769 -0.2722 0.9458
vn 0.3531 -0.3339 0.8740
vn 0.4586 0.0532 0.8871
vn 0.3110 -0.9189 0.2429
vn 0.4383 -0.8728 0.2147
vn 0.4313 -0.6943 0.5762
vn -0.0536 0.6803 -0.7309
vn 0.0219 0.8997 -0.4360
vn 0.1478 0.8655 -0.4787
vn 0.2832 0.9589 0.0150
vn 0.4261 0.9045 0.0163
vn 0.4036 0.8382 -0.3667
vn 0.9991 -0.0333 -0.0270
vn 0.9990 -0.0364 -0.0263
vn 0.9500 -0.2921 -0.1102
vn 0.1038 -0.4543 -0.8848
vn 0.1896 -0.7467 -0.6375
vn 0.0773 -0.7702 -0.6331
vn 0.6067 0.6659 -0.4342
vn 0.6468 0.6339 -0.4240
vn 0.6189 0.6905 -0.3743
vn 0.1021 0.7133 0.6933
vn 0.2885 0.6183 0.7311
vn 0.3966 0.8307 0.3908
vn 0.8204 0.5658 0.0824
vn 0.9315 0.1897 0.3103
vn 0.9686 0.1705 0.1807
vn 0.3332 -0.3111 0.8901
vn 0.4690 -0.3050 0.8289
vn 0.4607 0.0902 0.8829
vn -0.1333 -0.8532 0.5042
vn -0.1262 -0.9799 0.1548
vn -0.0144 -0.9854 0.1694
vn 0.8185 0.4148 -0.3974
vn 0.7901 0.6087 -0.0726
vn 0.9479 0.3184 -0.0037
vn 0.3198 0.3463 -0.8819
vn 0.4764 0.3392 -0.8111
vn 0.4743 -0.0516 -0.8789
vn 0.0225 0.7247 -0.6887
vn -0.0048 0.9280 -0.3727
vn 0.1047 0.9255 -0.3639
vn 0.8928 -0.2490 -0.3754
vn 0.9806 -0.0792 -0.1793
vn 0.9811 -0.0815 -0.1758
vn 0.1890 -0.7071 -0.6814
vn 0.3584 -0.6189 -0.6989
vn 0.4327 -0.8345 -0.3411
vn 0.9476 0.0903 0.3065
vn 0.9962 -0.0461 0.0742
vn 0.9965 -0.0443 0.0711
vn 0.8287 -0.5547 0.0743
vn 0.8380 -0.5401 0.0776
vn 0.8349 -0.5504 0.0081
vn 0.2408 0.2732 0.9313
vn 0.4063 0.1568 0.9002
vn 0.5369 0.4853 0.6901
vn 0.7987 0.5947 -0.0916
vn 0.8142 0.5722 -0.0986
vn 0.8101 0.5856 -0.0267
vn 0.3558 0.9041 0.2366
vn 0.2001 0.9738 -0.1078
vn -0.0009 1.0000 0.0051
vn -0.2456 0.0555 0.9678
vn -0.1973 -0.3064 0.9312
vn -0.0852 -0.2730 0.9582
vn 0.3332 -0.8367 0.4346
vn 0.4781 -0.7883 0.3874
vn 0.4693 -0.5341 0.7032
vn 0.2197 -0.0396 -0.9748
vn 0.3387 -0.0396 -0.9401
vn 0.2981 -0.4249 -0.8548
vn 0.9440 -0.1542 0.2918
vn 0.9977 -0.0070 0.0675
vn 0.9978 -0.0043 0.0665
vn 0.2149 -0.9114 -0.3510
vn 0.2966 -0.9549 0.0156
vn 0.1816 -0.9825 0.0404
vn -0.9349 -0.1368 -0.3274
vt 0.379415 0.638006
vt 0.379931 0.624028
vt 0.380452 0.638006
vt 0.397084 0.624028
vt 0.399378 0.624028
vt 0.399378 0.638006
vt 0.343677 0.609469
vt 0.345290 0.609469
vt 0.345290 0.623447
vt 0.342152 0.667125
vt 0.343394 0.653147
vt 0.343394 0.667125
vt 0.343619 0.652565
vt 0.342461 0.638587
vt 0.343619 0.638587
vt 0.377308 0.638587
vt 0.378664 0.638587
vt 0.378664 0.652565
vt 0.259838 0.305711
vt 0.269198 0.379814
vt 0.257252 0.297374
vt 0.015869 0.207876
vt 0.015869 0.217716
vt 0.009999 0.020236
vt 0.159177 0.149674
vt 0.136880 0.121187
vt 0.164909 0.093237
vt 0.015869 0.136841
vt 0.015869 0.128333
vt 0.290230 0.390977
vt 0.278482 0.360373
vt 0.373865 0.696243
vt 0.370004 0.682264
vt 0.373865 0.682264
vt 0.267451 0.329084
vt 0.338572 0.265850
vt 0.338572 0.260305
vt 0.393837 0.638587
vt 0.393837 0.652565
vt 0.359921 0.638007
vt 0.343863 0.638007
vt 0.343863 0.624029
vt 0.322744 0.019927
vt 0.344437 0.020190
vt 0.336079 0.030090
vt 0.196520 0.019926
vt 0.184325 0.016979
vt 0.191734 0.010397
vt 0.342199 0.682264
vt 0.339900 0.696243
vt 0.339900 0.682264
vt 0.338572 0.333436
vt 0.338572 0.327048
vt 0.362576 0.638006
vt 0.460126 0.201345
vt 0.354431 0.200815
vt 0.460126 0.187431
vt 0.015870 0.094726
vt 0.015870 0.102948
vt 0.338572 0.373862
vt 0.303077 0.421855
vt 0.338572 0.366898
vt 0.407179 0.701425
vt 0.401456 0.687447
vt 0.407179 0.687447
vt 0.358113 0.682264
vt 0.355159 0.696243
vt 0.355159 0.682264
vt 0.015870 0.086731
vt 0.015870 0.078578
vt 0.326582 0.667125
vt 0.342152 0.653147
vt 0.326582 0.638587
vt 0.342461 0.652565
vt 0.050994 0.422715
vt 0.070393 0.411196
vt 0.038742 0.450041
vt 0.384209 0.696243
vt 0.384209 0.682264
vt 0.225314 0.167527
vt 0.230954 0.195754
vt 0.213729 0.175387
vt 0.187870 0.078510
vt 0.213319 0.089322
vt 0.216984 0.117163
vt 0.376094 0.667125
vt 0.377795 0.653147
vt 0.377795 0.667125
vt 0.363857 0.623447
vt 0.362237 0.609469
vt 0.363857 0.609469
vt 0.128374 0.171544
vt 0.140712 0.175387
vt 0.124901 0.189025
vt 0.143202 0.070742
vt 0.144017 0.062611
vt 0.039699 0.033785
vt 0.146186 0.019926
vt 0.140319 0.030089
vt 0.170048 0.166296
vt 0.166182 0.185970
vt 0.156211 0.181783
vt 0.582635 0.944160
vt 0.581576 0.970384
vt 0.579723 0.944160
vt 0.015869 0.264002
vt 0.087706 0.326960
vt 0.086283 0.331184
vt 0.015870 0.050416
vt 0.024230 0.040253
vt 0.015869 0.154967
vt 0.015869 0.146232
vt 0.095029 0.304337
vt 0.122742 0.283103
vt 0.613523 0.970384
vt 0.614979 0.944160
vt 0.616435 0.970384
vt 0.015870 0.062612
vt 0.397084 0.638006
vt 0.190653 0.030089
vt 0.052871 0.418365
vt 0.123207 0.197094
vt 0.015869 0.237723
vt 0.338572 0.119581
vt 0.338572 0.111242
vt 0.011111 0.509528
vt 0.015870 0.370381
vt 0.015870 0.417149
vt 0.015871 0.496689
vt 0.036692 0.454439
vt 0.460127 0.396007
vt 0.354432 0.423222
vt 0.354432 0.292183
vt 0.015869 0.185624
vt 0.015869 0.195012
vt 0.338572 0.090672
vt 0.338572 0.074642
vt 0.342766 0.638007
vt 0.326582 0.638007
vt 0.342766 0.624029
vt 0.414487 0.699944
vt 0.417140 0.676046
vt 0.417140 0.699944
vt 0.103551 0.275871
vt 0.338572 0.242923
vt 0.205243 0.196642
vt 0.205448 0.183701
vt 0.338572 0.297855
vt 0.610612 0.944160
vt 0.610612 0.970384
vt 0.164013 0.010915
vt 0.160855 0.025008
vt 0.338976 0.012500
vt 0.407615 0.686866
vt 0.397605 0.672888
vt 0.407615 0.672888
vt 0.396262 0.652565
vt 0.396262 0.638587
vt 0.619347 0.944160
vt 0.619347 0.970384
vt 0.396633 0.653483
vt 0.396632 0.638588
vt 0.410611 0.653482
vt 0.015870 0.329178
vt 0.318476 0.040253
vt 0.330211 0.040253
vt 0.338572 0.050416
vt 0.388283 0.701425
vt 0.396240 0.687447
vt 0.396240 0.701425
vt 0.607700 0.970384
vt 0.184418 0.163808
vt 0.206172 0.162862
vt 0.191046 0.169357
vt 0.396632 0.672307
vt 0.410610 0.669791
vt 0.410610 0.672308
vt 0.591370 0.944160
vt 0.594282 0.970384
vt 0.591370 0.970384
vt 0.396633 0.654988
vt 0.396632 0.669791
vt 0.361242 0.667125
vt 0.358885 0.653147
vt 0.361242 0.653147
vt 0.359921 0.624029
vt 0.209306 0.050415
vt 0.210832 0.066672
vt 0.400404 0.609470
vt 0.383380 0.623448
vt 0.383902 0.609470
vt 0.015869 0.119581
vt 0.015870 0.111242
vt 0.129882 0.163501
vt 0.410611 0.654988
vt 0.374853 0.667705
vt 0.378302 0.667705
vt 0.374853 0.681683
vt 0.358885 0.667125
vt 0.588459 0.970384
vt 0.594282 0.944160
vt 0.597194 0.944160
vt 0.585547 0.970384
vt 0.586606 0.944160
vt 0.427278 0.418408
vt 0.398916 0.307777
vt 0.517468 0.395446
vt 0.740383 0.928240
vt 0.846078 0.937265
vt 0.740383 0.937920
vt 0.338572 0.062611
vt 0.394775 0.653147
vt 0.392142 0.667125
vt 0.392142 0.653147
vt 0.359047 0.681683
vt 0.356268 0.681683
vt 0.356268 0.667705
vt 0.566687 0.978875
vt 0.562832 0.944160
vt 0.566687 0.944160
vt 0.363031 0.667705
vt 0.359418 0.681683
vt 0.359418 0.667705
vt 0.112383 0.243233
vt 0.149681 0.196374
vt 0.362205 0.624029
vt 0.362205 0.638007
vt 0.366506 0.609470
vt 0.364227 0.623448
vt 0.364227 0.609470
vt 0.196520 0.040252
vt 0.359398 0.652565
vt 0.359398 0.638587
vt 0.141286 0.087977
vt 0.140301 0.096056
vt 0.338572 0.212796
vt 0.338572 0.190317
vt 0.354433 0.009763
vt 0.460127 0.065800
vt 0.354432 0.080621
vt 0.138035 0.113139
vt 0.195153 0.149906
vt 0.221351 0.145222
vt 0.400774 0.623882
vt 0.414752 0.619457
vt 0.414752 0.623882
vt 0.340555 0.667705
vt 0.326582 0.681683
vt 0.326582 0.667705
vt 0.015869 0.174241
vt 0.015869 0.165217
vt 0.604788 0.944160
vt 0.607700 0.944160
vt 0.063929 0.391687
vt 0.065645 0.387378
vt 0.571943 0.944160
vt 0.570541 0.978875
vt 0.460126 0.268251
vt 0.119238 0.214997
vt 0.342199 0.696243
vt 0.377308 0.652565
vt 0.382844 0.609470
vt 0.460128 0.009765
vt 0.414752 0.609470
vt 0.400774 0.619457
vt 0.400774 0.609470
vt 0.208255 0.040252
vt 0.312609 0.030090
vt 0.400774 0.632265
vt 0.414752 0.632265
vt 0.146186 0.040252
vt 0.354431 0.158547
vt 0.460126 0.138115
vt 0.460126 0.156096
vt 0.412825 0.672888
vt 0.326582 0.696243
vt 0.361666 0.652565
vt 0.361666 0.638587
vt 0.144169 0.163952
vt 0.132860 0.146613
vt 0.362237 0.623447
vt 0.170350 0.017550
vt 0.338572 0.291932
vt 0.015870 0.296671
vt 0.326582 0.624029
vt 0.343677 0.623447
vt 0.326582 0.623447
vt 0.338572 0.102948
vt 0.337991 0.509746
vt 0.317347 0.453575
vt 0.343049 0.509809
vt 0.241635 0.241590
vt 0.224333 0.260340
vt 0.235838 0.217710
vt 0.243741 0.249762
vt 0.248940 0.268985
vt 0.251276 0.277233
vt 0.359047 0.667705
vt 0.338571 0.420995
vt 0.338571 0.413302
vt 0.338572 0.232524
vt 0.338572 0.172436
vt 0.338572 0.128333
vt 0.338572 0.154966
vt 0.338572 0.146232
vt 0.419841 0.676046
vt 0.338572 0.136841
vt 0.601876 0.970384
vt 0.601876 0.944160
vt 0.015870 0.070742
vt 0.342513 0.681683
vt 0.342513 0.667705
vt 0.361612 0.653147
vt 0.361612 0.667125
vt 0.024230 0.019927
vt 0.018362 0.030090
vt 0.354433 0.544198
vt 0.460128 0.546672
vt 0.354433 0.546670
vt 0.362059 0.638587
vt 0.134244 0.138260
vt 0.208255 0.019926
vt 0.145135 0.050416
vt 0.157922 0.040252
vt 0.401456 0.701425
vt 0.227635 0.394723
vt 0.122786 0.393630
vt 0.111067 0.351280
vt 0.111287 0.402971
vt 0.874883 0.384026
vt 0.788214 0.361440
vt 0.874883 0.361440
vt 0.242893 0.351113
vt 0.110710 0.430729
vt 0.117615 0.414751
vt 0.133136 0.402391
vt 0.221109 0.406252
vt 0.243196 0.430919
vt 0.241043 0.410402
vt 0.240949 0.397078
vt 0.468423 0.615419
vt 0.423543 0.749392
vt 0.423847 0.574703
vt 0.228353 0.414955
vt 0.129199 0.413030
vt 0.677381 0.121183
vt 0.673826 0.120983
vt 0.675461 0.107926
vt 0.673770 0.090139
vt 0.677315 0.093862
vt 0.640370 0.068088
vt 0.647292 0.068950
vt 0.645347 0.083327
vt 0.161418 0.233480
vt 0.169792 0.228566
vt 0.167970 0.243020
vt 0.637247 0.084468
vt 0.644729 0.100119
vt 0.636598 0.100288
vt 0.159589 0.247372
vt 0.167573 0.261954
vt 0.159449 0.261078
vt 0.200153 0.266931
vt 0.196540 0.257775
vt 0.200134 0.253381
vt 0.197436 0.230066
vt 0.204802 0.235518
vt 0.199591 0.240149
vt 0.150563 0.288892
vt 0.163648 0.291282
vt 0.153228 0.299770
vt 0.931922 0.300721
vt 0.884648 0.146221
vt 0.931922 0.146221
vt 0.674853 0.070761
vt 0.682083 0.078880
vt 0.677386 0.080048
vt 0.645308 0.114641
vt 0.647321 0.129771
vt 0.200222 0.283210
vt 0.204565 0.290524
vt 0.197758 0.290210
vt 0.292851 0.812474
vt 0.206183 0.881026
vt 0.206183 0.812474
vt 0.185173 0.881026
vt 0.098505 0.812474
vt 0.185173 0.812474
vt 0.628650 0.135118
vt 0.637959 0.119067
vt 0.641395 0.134493
vt 0.204861 0.247375
vt 0.625205 0.082609
vt 0.624550 0.097092
vt 0.150187 0.225485
vt 0.147929 0.240840
vt 0.681878 0.106419
vt 0.204707 0.260969
vt 0.319098 0.748934
vt 0.318726 0.574924
vt 0.319358 0.574305
vt 0.424089 0.574665
vt 0.318849 0.748960
vt 0.674862 0.131057
vt 0.199577 0.275453
vt 0.168477 0.276230
vt 0.160753 0.277829
vt 0.170421 0.289390
vt 0.164316 0.223071
vt 0.653642 0.802135
vt 0.637594 0.887122
vt 0.638217 0.804434
vt 0.147356 0.259220
vt 0.148144 0.273950
vt 0.627127 0.069084
vt 0.629209 0.060034
vt 0.728001 0.921826
vt 0.683362 0.766903
vt 0.728001 0.769529
vt 0.681733 0.131213
vt 0.625470 0.116222
vt 0.167977 0.892257
vt 0.013476 0.939530
vt 0.013476 0.892257
vt 0.424352 0.748533
vt 0.204861 0.276754
vt 0.292851 0.791464
vt 0.206183 0.791464
vt 0.642687 0.915024
vt 0.657572 0.908085
vt 0.683362 0.924452
vt 0.607155 0.921845
vt 0.629224 0.901406
vt 0.658849 0.787976
vt 0.647760 0.776269
vt 0.607206 0.769509
vt 0.630965 0.786271
vt 0.654846 0.891672
vt 0.827608 0.105639
vt 0.874882 0.105639
vt 0.827609 0.179175
vt 0.874882 0.226448
vt 0.785588 0.179175
vt 0.782962 0.229074
vt 0.468423 0.765699
vt 0.313861 0.881026
vt 0.292851 0.881026
vt 0.305677 0.561401
vt 0.305677 0.762236
vt 0.468423 0.557938
vt 0.842637 0.057033
vt 0.842637 0.009760
vt 0.884658 0.057033
vt 0.931931 0.009760
vt 0.884658 0.130569
vt 0.931931 0.130569
vt 0.874882 0.340429
vt 0.788214 0.340429
vt 0.782962 0.381400
vt 0.211212 0.615678
vt 0.187189 0.623037
vt 0.187107 0.617586
vt 0.909736 0.427634
vt 0.890448 0.368164
vt 0.909736 0.369889
vt 0.890448 0.482090
vt 0.890448 0.421570
vt 0.890448 0.643477
vt 0.909735 0.619909
vt 0.909735 0.644621
vt 0.113556 0.623036
vt 0.173259 0.508565
vt 0.173260 0.579691
vt 0.944700 0.036355
vt 0.963987 0.015065
vt 0.963987 0.037783
vt 0.729185 0.096993
vt 0.704260 0.095024
vt 0.713728 0.087899
vt 0.704723 0.060671
vt 0.729185 0.058924
vt 0.710973 0.066731
vt 0.899758 0.898442
vt 0.863546 0.912216
vt 0.892685 0.884648
vt 0.733720 0.689675
vt 0.725246 0.753539
vt 0.714676 0.619340
vt 0.186199 0.508562
vt 0.541987 0.877987
vt 0.437690 0.864604
vt 0.541987 0.864034
vt 0.541987 0.900255
vt 0.437690 0.889900
vt 0.758361 0.203704
vt 0.770523 0.226317
vt 0.752486 0.227875
vt 0.242409 0.653900
vt 0.254845 0.716402
vt 0.233638 0.727351
vt 0.259096 0.657650
vt 0.266778 0.644796
vt 0.269060 0.779088
vt 0.218459 0.730094
vt 0.208141 0.762997
vt 0.902683 0.789426
vt 0.908201 0.878879
vt 0.941724 0.613078
vt 0.922436 0.594440
vt 0.941724 0.594031
vt 0.787869 0.117096
vt 0.779772 0.049061
vt 0.787869 0.030598
vt 0.249555 0.951257
vt 0.230061 0.970542
vt 0.228632 0.951257
vt 0.943886 0.254962
vt 0.610561 0.019390
vt 0.632464 0.009766
vt 0.765966 0.009766
vt 0.783697 0.117096
vt 0.619948 0.046578
vt 0.618658 0.049060
vt 0.941776 0.912654
vt 0.011334 0.971825
vt 0.010348 0.951257
vt 0.921487 0.645690
vt 0.922436 0.613228
vt 0.783948 0.169245
vt 0.912370 0.893358
vt 0.323623 0.936342
vt 0.427920 0.925811
vt 0.427920 0.937908
vt 0.772618 0.151417
vt 0.742959 0.129763
vt 0.761654 0.131159
vt 0.941724 0.393305
vt 0.922436 0.342115
vt 0.941725 0.347126
vt 0.863530 0.753730
vt 0.905215 0.768227
vt 0.892194 0.778584
vt 0.187101 0.465218
vt 0.173258 0.470669
vt 0.112198 0.465220
vt 0.932374 0.696947
vt 0.921494 0.663636
vt 0.946015 0.698604
vt 0.932668 0.753608
vt 0.211212 0.472577
vt 0.187180 0.470669
vt 0.913313 0.781514
vt 0.941770 0.752933
vt 0.323623 0.884256
vt 0.427920 0.872590
vt 0.427921 0.890987
vt 0.941724 0.542702
vt 0.199625 0.629591
vt 0.210155 0.624837
vt 0.253602 0.633505
vt 0.224352 0.597297
vt 0.211609 0.505956
vt 0.770521 0.272307
vt 0.757724 0.294794
vt 0.752921 0.271817
vt 0.614733 0.117096
vt 0.610561 0.117096
vt 0.982414 0.647545
vt 0.968260 0.710236
vt 0.932687 0.912261
vt 0.989772 0.309708
vt 0.973086 0.310325
vt 0.964493 0.288470
vt 0.835705 0.091335
vt 0.825545 0.079274
vt 0.833736 0.066410
vt 0.799383 0.066874
vt 0.806488 0.070931
vt 0.797636 0.091335
vt 0.812694 0.083864
vt 0.989754 0.287178
vt 0.972170 0.264207
vt 0.989770 0.263718
vt 0.225608 0.486700
vt 0.254517 0.454749
vt 0.815973 0.055412
vt 0.821377 0.063801
vt 0.721605 0.074628
vt 0.955701 0.772673
vt 0.323623 0.906726
vt 0.427921 0.906635
vt 0.941725 0.320358
vt 0.922436 0.317731
vt 0.770505 0.248847
vt 0.744390 0.251882
vt 0.778482 0.046861
vt 0.094896 0.623037
vt 0.095701 0.465220
vt 0.890448 0.553876
vt 0.909736 0.566308
vt 0.275368 0.633489
vt 0.272931 0.454762
vt 0.922436 0.494854
vt 0.941724 0.464995
vt 0.700498 0.077582
vt 0.909736 0.505577
vt 0.889042 0.316031
vt 0.909736 0.350845
vt 0.890449 0.349243
vt 0.723060 0.605266
vt 0.845837 0.546175
vt 0.843770 0.612941
vt 0.210155 0.463417
vt 0.770551 0.297641
vt 0.972385 0.769004
vt 0.980131 0.781837
vt 0.977026 0.241192
vt 0.989800 0.238384
vt 0.976423 0.331066
vt 0.989800 0.334516
vt 0.173260 0.617586
vt 0.922436 0.425305
vt 0.055421 0.465222
vt 0.055427 0.623038
vt 0.286305 0.454771
vt 0.292434 0.476851
vt 0.292434 0.611403
vt 0.770551 0.201509
vt 0.199622 0.458649
vt 0.740383 0.778662
vt 0.740383 0.768623
vt 0.846078 0.768668
vt 0.293258 0.964856
vt 0.302955 0.959674
vt 0.302961 0.970935
vt 0.294561 0.959008
vt 0.283238 0.960886
vt 0.291983 0.970656
vt 0.287707 0.947928
vt 0.291129 0.952613
vt 0.274883 0.968237
vt 0.310078 0.958913
vt 0.296334 0.981376
vt 0.292210 0.976139
vt 0.293258 0.964856
vt 0.295652 0.958540
vt 0.301321 0.965810
vt 0.288274 0.955432
vt 0.289601 0.969675
vt 0.300217 0.954540
vt 0.297189 0.946785
vt 0.277586 0.954506
vt 0.311846 0.962156
vt 0.306104 0.967804
vt 0.295385 0.976683
vt 0.302533 0.980966
vt 0.280412 0.977234
vt 0.284976 0.973067
vt 0.280379 0.962059
vt 0.293733 0.958156
vt 0.301849 0.958352
vt 0.282567 0.963677
vt 0.294492 0.970788
vt 0.305972 0.977300
vt 0.306104 0.967804
vt 0.308981 0.954715
vt 0.287707 0.947929
vt 0.288988 0.953022
vt 0.279102 0.973588
vt 0.297465 0.975870
vt 0.286134 0.974868
vt 0.293278 0.964766
vt 0.303832 0.965213
vt 0.299773 0.955085
vt 0.289621 0.953717
vt 0.287051 0.962398
vt 0.281393 0.964377
vt 0.290885 0.971083
vt 0.277071 0.961440
vt 0.300436 0.948473
vt 0.311730 0.968228
vt 0.293651 0.982571
vt 0.300251 0.974647
vt 0.290350 0.977347
vt 0.293258 0.964856
vt 0.300981 0.967333
vt 0.291259 0.959154
vt 0.290117 0.948500
vt 0.300234 0.954968
vt 0.311272 0.965169
vt 0.296065 0.975222
vt 0.284414 0.965909
vt 0.286320 0.975083
vt 0.280363 0.961951
vt 0.289276 0.953812
vt 0.292857 0.982474
vt 0.306165 0.967713
vt 0.274762 0.968082
vt 0.303887 0.960482
vt 0.295652 0.958538
vt 0.283176 0.959821
vt 0.293438 0.952623
vt 0.303566 0.969907
vt 0.282872 0.970163
vt 0.294840 0.977006
vt 0.295924 0.981522
vt 0.307336 0.956053
vt 0.275486 0.972490
vt 0.280338 0.952437
vt 0.750366 0.195573
vt 0.732511 0.254942
vt 0.410610 0.638587
vt 0.340555 0.681683
vt 0.370004 0.696243
vt 0.397605 0.686866
vt 0.391376 0.686866
vt 0.362576 0.624028
vt 0.559113 0.944160
vt 0.560506 0.978875
vt 0.574396 0.978875
vt 0.363031 0.681683
vt 0.358113 0.696243
vt 0.326582 0.653147
vt 0.846078 0.926807
vt 0.376094 0.653147
vt 0.016006 0.510467
vt 0.035965 0.019927
vt 0.163395 0.169357
vt 0.155114 0.161043
vt 0.117344 0.223109
vt 0.075650 0.361218
vt 0.077215 0.356954
vt 0.414487 0.676046
vt 0.414752 0.636084
vt 0.400774 0.636084
vt 0.354431 0.180653
vt 0.460126 0.172176
vt 0.015466 0.012514
vt 0.387913 0.682264
vt 0.387913 0.696243
vt 0.326582 0.682264
vt 0.378302 0.681683
vt 0.326582 0.609469
vt 0.391005 0.667705
vt 0.391005 0.681683
vt 0.388283 0.687447
vt 0.419841 0.699944
vt 0.194106 0.180686
vt 0.183992 0.179030
vt 0.193249 0.190421
vt 0.358484 0.682264
vt 0.391376 0.672888
vt 0.411139 0.687447
vt 0.400404 0.623448
vt 0.846078 0.778687
vt 0.469903 0.009763
vt 0.575623 0.009763
vt 0.575324 0.497968
vt 0.394775 0.667125
vt 0.366506 0.623448
vt 0.411139 0.701425
vt 0.604788 0.970384
vt 0.214123 0.030089
vt 0.354431 0.137847
vt 0.412825 0.686866
vt 0.358484 0.696243
vt 0.460107 0.543453
vt 0.326582 0.652565
vt 0.362059 0.652565
vt 0.597194 0.970384
vt 0.468423 0.587717
vt 0.884648 0.300721
vt 0.204087 0.226926
vt 0.681453 0.067633
vt 0.098505 0.881026
vt 0.681922 0.092994
vt 0.167977 0.939530
vt 0.682127 0.120170
vt 0.313861 0.812474
vt 0.890448 0.619657
vt 0.944700 0.013956
vt 0.725445 0.446822
vt 0.753269 0.476968
vt 0.711532 0.447074
vt 0.754563 0.495936
vt 0.728633 0.541771
vt 0.585008 0.505958
vt 0.624986 0.469623
vt 0.580852 0.562051
vt 0.569625 0.576966
vt 0.569099 0.590012
vt 0.755301 0.727714
vt 0.747295 0.748695
vt 0.437690 0.910342
vt 0.541987 0.919583
vt 0.437690 0.931680
vt 0.437690 0.874177
vt 0.323623 0.866464
vt 0.209541 0.580940
vt 0.251989 0.970542
vt 0.323623 0.925852
vt 0.188051 0.579694
vt 0.693262 0.077261
vt 0.963987 0.256094
vt 0.787869 0.016358
vt 0.531972 0.695774
vt 0.547291 0.634310
vt 0.592406 0.639580
vt 0.594792 0.848819
vt 0.389907 0.852775
vt 0.450530 0.787003
vt 0.389086 0.820442
vt 0.400485 0.804647
vt 0.574372 0.623652
vt 0.498023 0.753889
vt 0.287837 0.633481
vt 0.941724 0.646643
vt 0.922436 0.546682
vt 0.196409 0.653533
vt 0.196364 0.792313
vt 0.009889 0.653374
vt 0.614497 0.169245
vt 0.541987 0.934198
vt 0.909736 0.315167
vt 0.854608 0.658341
vt 0.879017 0.703661
vt 0.874617 0.729024
vt 0.843182 0.754909
vt 0.822473 0.456203
vt 0.877060 0.474409
vt 0.850057 0.440083
vt 0.009831 0.793963
vt 0.470201 0.498400
vt 0.502997 0.404873
vt 0.443379 0.371278
vt 0.502252 0.299198
vt 0.280416 0.969543
vt 0.743627 0.333197
vt 0.771861 0.385226
vt 0.740147 0.436443
vt 0.642689 0.413648
vt 0.602718 0.377302
vt 0.599034 0.322015
vt 0.771474 0.404212
vt 0.586561 0.303945
vt 0.587219 0.291723
s 0
f 1/1/1 2/2/1 3/3/1
f 91/4/2 5/5/2 6/6/2
f 7/7/3 8/8/3 9/9/3
f 14/10/3 15/11/3 16/12/3
f 21/13/3 22/14/3 23/15/3
f 24/16/3 20/17/3 25/18/3
f 26/19/4 45/20/4 27/21/4
f 28/22/5 29/23/5 124/24/5
f 94/25/5 39/26/5 106/27/5
f 14/28/5 124/24/5 21/29/5
f 40/30/4 45/20/4 41/31/4
f 42/32/3 43/33/3 44/34/3
f 41/31/4 45/20/4 46/35/4
f 51/36/4 46/35/4 34/37/4
f 25/18/6 52/38/6 53/39/6
f 54/40/7 55/41/7 13/42/7
f 56/43/4 57/44/4 58/45/4
f 59/46/4 60/47/4 61/48/4
f 34/49/3 64/50/3 33/51/3
f 66/52/4 40/30/4 44/53/4
f 6/54/8 2/2/8 1/1/8
f 141/55/9 100/56/10 126/57/11
f 17/58/5 68/59/5 124/24/5
f 70/60/4 71/61/4 72/62/4
f 70/60/12 72/62/12 57/44/12
f 73/63/13 74/64/13 63/65/13
f 26/66/14 79/67/14 46/68/14
f 80/69/5 124/24/5 3/70/5
f 81/71/15 82/72/15 14/10/15
f 11/73/16 22/14/17 69/74/18
f 84/75/19 111/76/19 73/77/19
f 87/78/20 44/34/20 40/79/20
f 89/80/4 83/81/4 90/82/4
f 30/83/4 91/84/4 92/85/4
f 96/86/3 97/87/3 28/88/3
f 98/89/21 5/90/21 99/91/21
f 81/92/5 104/93/5 105/94/5
f 6/95/5 115/96/5 106/27/5
f 108/97/5 109/98/5 110/99/5
f 101/100/5 93/101/5 75/102/5
f 48/103/22 108/104/22 47/105/22
f 117/106/5 79/107/5 118/108/5
f 119/109/5 120/110/5 108/97/5
f 121/111/5 124/24/5 16/112/5
f 122/113/5 86/114/5 79/107/5
f 59/115/23 107/116/23 123/117/23
f 9/118/5 124/24/5 119/109/5
f 6/6/24 125/119/24 91/4/24
f 123/120/4 30/83/4 60/47/4
f 84/75/25 127/121/25 111/76/25
f 121/111/5 105/94/5 128/122/5
f 86/114/5 118/108/5 79/107/5
f 64/123/5 124/24/5 29/23/5
f 22/124/4 13/125/4 57/44/4
f 65/126/5 130/127/5 88/128/5
f 111/76/19 62/129/19 131/130/19
f 45/131/26 111/132/27 86/133/28
f 134/134/5 96/135/5 124/24/5
f 18/136/4 91/84/4 2/137/4
f 68/138/29 39/139/29 12/140/29
f 136/141/30 104/142/30 90/143/30
f 133/144/5 29/23/5 28/22/5
f 27/21/4 33/145/4 26/19/4
f 141/146/4 136/147/4 83/81/4
f 43/148/4 57/44/4 44/53/4
f 109/149/31 59/115/31 139/150/31
f 129/151/5 107/152/5 109/98/5
f 61/48/4 31/153/4 56/43/4
f 102/154/3 62/155/3 88/156/3
f 128/157/32 53/39/32 83/158/32
f 123/117/33 142/159/33 113/160/33
f 143/161/34 19/162/34 20/163/34
f 79/67/35 34/49/35 46/68/35
f 65/126/5 42/164/5 130/127/5
f 47/165/4 145/166/4 7/167/4
f 84/168/36 70/169/36 130/170/36
f 139/150/37 146/171/37 109/149/37
f 66/52/4 44/53/4 57/44/4
f 147/172/4 49/173/4 148/174/4
f 19/175/38 150/176/38 52/177/38
f 58/178/39 120/179/39 151/180/39
f 134/181/40 150/176/40 85/182/40
f 81/183/41 83/184/41 89/185/41
f 54/40/42 13/42/42 11/186/42
f 89/80/4 90/82/4 49/173/4
f 30/83/4 99/187/4 5/188/4
f 137/189/43 18/190/43 80/191/43
f 69/192/5 124/24/5 55/193/5
f 14/28/5 10/194/5 81/92/5
f 20/163/3 144/195/3 134/181/3
f 140/196/3 117/197/3 77/198/3
f 105/199/44 15/11/44 83/184/44
f 132/200/37 58/178/37 151/180/37
f 145/201/45 47/202/45 120/179/45
f 152/203/46 56/204/46 132/200/46
f 111/205/47 45/206/48 4/207/49
f 129/208/50 60/209/51 103/210/52
f 5/188/4 8/211/4 2/137/4
f 35/212/53 133/213/53 36/214/53
f 133/215/54 122/216/54 27/217/54
f 62/129/5 65/126/5 88/128/5
f 148/218/55 95/219/55 149/220/55
f 78/221/56 46/222/56 118/223/56
f 66/52/4 57/44/4 72/62/4
f 133/144/5 85/224/5 86/114/5
f 85/224/5 100/225/5 86/114/5
f 48/103/57 56/204/57 152/203/57
f 54/40/58 92/226/58 39/227/58
f 138/228/59 91/229/59 137/230/59
f 113/231/4 99/187/4 30/83/4
f 10/232/60 23/15/60 89/233/60
f 125/234/5 106/27/5 137/235/5
f 124/24/5 80/69/5 17/58/5
f 57/44/4 97/236/4 144/237/4
f 124/24/5 69/192/5 21/29/5
f 103/238/61 30/239/62 106/240/63
f 39/26/5 138/241/5 106/27/5
f 38/242/4 92/85/4 11/243/4
f 130/244/3 66/245/3 72/246/3
f 97/247/64 133/248/64 154/249/64
f 77/198/65 78/221/65 140/196/65
f 10/194/5 104/93/5 81/92/5
f 143/250/5 124/24/5 25/251/5
f 152/203/66 108/104/66 48/103/66
f 146/171/39 155/252/39 110/253/39
f 97/87/67 36/214/67 28/88/67
f 156/254/25 87/255/25 111/76/25
f 130/127/5 127/121/5 84/75/5
f 6/95/5 106/27/5 125/234/5
f 149/220/68 75/256/68 76/257/68
f 134/181/3 143/161/3 20/163/3
f 153/258/69 100/56/69 141/55/69
f 53/259/5 143/250/5 25/251/5
f 79/67/70 117/260/70 34/49/70
f 55/41/3 12/140/3 13/42/3
f 25/18/3 121/261/3 24/16/3
f 18/190/71 138/228/71 17/262/71
f 30/239/72 103/238/73 60/263/74
f 40/264/75 42/265/75 156/266/75
f 114/267/4 48/268/4 47/165/4
f 127/269/76 72/246/76 71/270/76
f 155/271/5 108/97/5 110/99/5
f 101/272/77 38/273/78 147/274/79
f 11/243/4 89/80/4 49/173/4
f 131/275/80 102/154/80 88/156/80
f 38/273/81 106/240/82 30/239/82
f 64/50/83 122/276/83 33/51/83
f 112/277/84 10/232/84 11/278/84
f 94/25/5 67/279/5 112/280/5
f 8/8/45 115/281/45 9/9/45
f 129/151/5 103/282/5 107/152/5
f 77/283/12 57/44/12 43/148/12
f 140/284/5 65/126/5 124/24/5
f 12/140/85 39/139/85 92/285/85
f 119/286/31 98/287/31 7/7/31
f 12/288/4 57/44/4 13/125/4
f 4/289/86 71/61/86 63/290/86
f 157/291/87 4/289/87 63/290/87
f 150/292/4 153/293/4 52/294/4
f 35/295/4 153/293/4 150/292/4
f 36/296/4 153/293/4 35/295/4
f 154/297/4 153/293/4 36/296/4
f 27/21/4 153/293/4 154/297/4
f 27/217/88 154/298/88 133/215/88
f 102/299/4 74/300/4 157/291/4
f 70/60/4 157/291/4 74/300/4
f 57/44/4 37/301/4 97/236/4
f 37/301/4 57/44/4 33/145/4
f 34/37/4 57/44/4 51/36/4
f 20/302/4 57/44/4 144/237/4
f 22/124/4 57/44/4 23/303/4
f 24/304/4 57/44/4 20/302/4
f 24/304/4 15/305/4 57/44/4
f 104/142/89 67/306/89 90/143/89
f 82/307/4 57/44/4 15/305/4
f 82/307/4 23/303/4 57/44/4
f 18/136/4 57/44/4 12/288/4
f 2/137/4 8/211/4 57/44/4
f 18/136/4 2/137/4 57/44/4
f 112/280/5 67/279/5 10/194/5
f 155/252/45 113/308/45 142/309/45
f 42/164/5 87/255/5 156/254/5
f 1/310/5 124/24/5 9/118/5
f 9/9/3 119/286/3 7/7/3
f 27/217/90 64/311/90 37/312/90
f 85/224/5 96/135/5 134/134/5
f 35/313/91 96/86/91 85/314/91
f 80/69/5 125/234/5 137/235/5
f 124/24/5 132/315/5 151/316/5
f 124/24/5 14/28/5 16/112/5
f 153/258/92 86/133/93 100/56/94
f 124/24/5 120/110/5 119/109/5
f 50/317/95 157/318/96 65/319/97
f 124/24/5 121/111/5 25/251/5
f 124/24/5 1/310/5 3/70/5
f 121/261/98 83/320/98 24/16/98
f 112/280/5 54/321/5 94/25/5
f 28/22/5 124/24/5 96/135/5
f 68/59/5 138/241/5 39/26/5
f 145/166/4 57/44/4 7/167/4
f 48/268/4 139/322/4 56/43/4
f 30/83/4 5/188/4 91/84/4
f 98/323/5 142/324/5 106/27/5
f 88/325/3 70/169/3 74/64/3
f 69/192/5 54/321/5 112/280/5
f 159/326/99 160/327/99 158/328/99
f 160/327/99 161/329/99 158/328/99
f 164/330/45 165/331/45 166/332/45
f 158/328/99 168/333/99 159/326/99
f 158/328/99 161/329/99 171/334/99
f 161/329/99 172/335/99 171/334/99
f 173/336/99 159/326/99 174/337/99
f 163/338/99 167/339/99 168/333/99
f 167/339/99 177/340/99 168/333/99
f 177/340/99 159/326/99 168/333/99
f 178/341/99 230/342/99 179/343/99
f 167/339/99 163/338/99 162/344/99
f 172/335/99 180/345/99 171/334/99
f 174/337/99 180/345/99 173/336/99
f 163/338/99 171/334/99 162/344/99
f 171/334/99 180/345/99 162/344/99
f 182/346/99 183/347/99 188/348/99
f 188/348/99 187/349/99 186/350/99
f 196/351/3 214/352/3 212/353/3
f 197/354/3 192/355/3 199/356/3
f 231/357/3 232/358/3 221/359/3
f 200/360/3 201/361/3 202/362/3
f 190/363/99 193/364/99 198/365/99
f 203/366/100 180/367/101 181/368/102
f 207/369/103 191/370/104 208/371/105
f 176/372/106 170/373/106 210/374/106
f 195/375/107 159/376/108 194/377/109
f 216/378/110 183/347/111 214/379/112
f 216/378/113 188/348/114 183/347/115
f 192/355/116 203/366/117 199/356/118
f 204/380/119 173/381/120 203/382/121
f 218/383/4 165/384/4 219/385/4
f 214/352/122 195/375/123 212/353/124
f 223/386/5 224/387/5 225/388/5
f 217/389/125 222/390/126 196/391/127
f 181/368/128 172/392/129 198/365/130
f 226/393/131 231/357/132 220/394/133
f 208/395/134 197/354/135 169/396/136
f 188/348/137 167/397/138 182/346/139
f 161/398/140 198/365/141 172/392/142
f 194/377/143 159/376/144 186/350/145
f 163/399/146 209/400/147 171/401/148
f 171/401/149 179/343/150 158/402/151
f 163/399/152 230/342/153 175/403/154
f 214/379/155 183/347/156 195/404/157
f 201/361/158 189/405/159 185/406/160
f 212/353/161 187/349/162 232/358/163
f 198/365/164 161/398/165 190/363/166
f 222/390/3 214/379/3 196/391/3
f 196/351/3 212/353/3 231/357/3
f 222/390/3 216/378/3 214/379/3
f 222/390/3 232/358/3 216/378/3
f 184/407/3 185/406/3 192/408/3
f 202/362/3 185/406/3 184/407/3
f 191/409/3 192/355/3 197/354/3
f 197/354/3 199/356/3 200/360/3
f 215/410/3 208/411/3 217/412/3
f 185/406/167 189/405/168 192/408/169
f 219/385/3 223/386/3 225/388/3
f 213/413/170 202/362/171 227/414/172
f 186/350/173 167/397/174 188/348/175
f 227/414/176 184/407/177 207/369/178
f 215/415/179 231/357/180 226/393/181
f 217/416/182 196/351/183 215/415/184
f 205/417/31 233/418/31 228/419/31
f 182/346/185 174/420/186 195/404/187
f 222/390/188 211/421/189 221/359/190
f 228/422/191 206/423/191 205/424/191
f 168/425/192 179/343/193 230/342/194
f 189/405/195 160/426/196 204/380/197
f 224/427/45 219/385/45 225/428/45
f 190/363/198 160/426/199 189/405/200
f 169/396/201 200/360/202 213/413/203
f 213/429/3 227/430/3 235/431/3
f 170/432/3 169/433/3 213/429/3
f 226/434/3 220/435/3 233/418/3
f 170/432/3 213/429/3 235/431/3
f 170/432/3 234/436/3 211/437/3
f 211/437/3 217/412/3 170/432/3
f 227/430/3 207/438/3 235/431/3
f 226/434/3 233/418/3 215/410/3
f 233/418/3 235/431/3 215/410/3
f 235/431/3 207/438/3 215/410/3
f 233/418/3 220/435/3 234/436/3
f 234/436/3 220/435/3 211/437/3
f 208/411/3 169/433/3 217/412/3
f 217/412/3 169/433/3 170/432/3
f 234/439/204 176/440/204 233/441/204
f 176/440/205 236/442/205 233/441/205
f 233/441/206 236/442/206 228/443/206
f 236/442/207 229/444/207 228/443/207
f 230/342/99 178/341/99 236/445/99
f 218/383/99 178/446/99 166/447/99
f 210/448/99 209/400/99 176/449/99
f 209/400/99 175/403/99 176/449/99
f 175/403/99 230/342/99 176/449/99
f 176/449/99 230/342/99 236/445/99
f 164/450/99 179/343/99 210/448/99
f 179/343/99 209/400/99 210/448/99
f 205/451/208 206/452/208 235/453/208
f 206/452/209 164/454/209 235/453/209
f 235/453/210 164/454/210 170/455/210
f 164/454/211 210/456/211 170/455/211
f 229/444/45 236/442/45 178/457/45
f 178/457/45 223/458/45 229/444/45
f 229/444/45 223/458/45 206/459/45
f 223/458/45 165/331/45 206/459/45
f 199/356/212 193/364/213 201/361/214
f 296/460/215 287/461/216 288/462/217
f 239/463/218 243/464/219 244/465/220
f 239/463/221 245/466/222 240/467/223
f 248/468/224 246/469/225 247/470/226
f 298/471/227 254/472/228 255/473/228
f 251/474/229 247/475/230 252/476/231
f 257/477/232 258/478/232 259/479/232
f 261/480/233 254/481/233 262/482/233
f 275/483/99 274/484/99 303/485/99
f 253/486/4 309/487/4 329/488/4
f 254/472/234 270/489/235 255/473/234
f 282/490/236 281/491/237 276/492/238
f 277/493/239 279/494/240 282/490/241
f 270/495/242 261/496/243 260/497/244
f 287/498/245 294/499/246 298/500/245
f 324/501/247 287/498/248 295/502/249
f 293/503/250 298/500/251 294/499/252
f 297/504/5 298/500/5 299/505/5
f 299/505/253 298/500/253 293/503/254
f 276/506/99 263/507/99 303/485/99
f 271/508/255 301/509/256 302/510/257
f 305/511/258 284/512/259 306/513/260
f 307/514/261 308/515/262 309/516/263
f 252/476/264 264/517/265 251/474/266
f 266/518/267 265/519/268 315/520/269
f 273/521/270 284/512/271 305/511/272
f 313/522/273 293/523/274 266/518/275
f 316/524/276 263/507/276 276/506/276
f 309/516/277 292/525/278 291/526/279
f 271/508/280 315/527/281 272/528/282
f 317/529/283 273/521/284 305/511/285
f 316/524/286 321/530/286 263/507/286
f 262/531/287 303/532/288 263/533/289
f 246/534/5 252/535/5 247/536/5
f 253/537/290 268/538/291 267/539/292
f 313/522/293 266/518/294 306/513/295
f 299/540/99 277/541/99 282/542/99
f 323/543/296 257/544/297 300/545/298
f 256/546/4 274/547/4 300/548/4
f 299/540/99 293/549/99 277/541/99
f 323/543/299 319/550/300 289/551/301
f 316/524/302 280/552/302 313/553/302
f 282/542/99 274/484/99 299/540/99
f 290/554/303 263/555/304 321/556/305
f 280/552/306 277/541/306 313/553/306
f 313/553/307 277/541/307 293/549/307
f 301/509/308 286/557/309 302/510/310
f 324/558/311 295/559/312 322/560/313
f 295/559/314 296/460/315 322/560/316
f 296/460/317 326/561/317 322/560/318
f 322/560/319 326/561/320 260/562/320
f 258/563/321 289/564/322 319/565/323
f 294/566/324 327/567/325 293/523/326
f 327/567/327 266/518/328 293/523/329
f 284/568/330 273/569/331 300/548/332
f 274/484/99 275/483/99 284/570/99
f 330/571/333 331/572/334 326/573/335
f 334/574/336 279/575/336 332/576/336
f 330/577/337 281/578/337 255/579/337
f 255/579/3 281/578/3 283/580/3
f 255/579/3 283/580/3 334/574/3
f 283/580/3 279/575/3 334/574/3
f 333/581/338 296/582/339 332/583/340
f 275/483/99 321/530/99 284/570/99
f 322/560/341 249/584/342 250/585/343
f 281/578/344 333/586/344 278/587/344
f 254/481/3 257/477/3 304/588/3
f 273/569/345 323/589/346 300/548/346
f 259/590/347 275/591/348 303/532/349
f 267/539/350 268/538/351 307/592/352
f 307/592/353 268/538/354 311/593/355
f 254/481/3 304/588/3 262/482/3
f 312/594/356 319/565/357 249/595/358
f 284/512/359 316/596/360 306/513/361
f 300/545/362 297/597/363 256/598/364
f 246/469/365 336/599/366 241/600/367
f 337/601/368 250/585/369 320/602/370
f 328/603/371 329/604/372 286/557/373
f 290/605/374 261/480/374 262/482/374
f 241/600/375 336/599/376 242/606/377
f 289/551/378 257/544/379 323/543/380
f 316/524/381 284/570/381 321/530/381
f 259/479/232 258/478/232 290/605/232
f 242/606/382 245/466/383 239/463/384
f 326/573/385 333/581/386 330/571/387
f 265/607/388 238/608/389 237/609/390
f 292/610/391 335/611/392 328/612/392
f 274/547/393 284/568/394 300/548/393
f 257/544/395 254/472/395 300/545/396
f 314/613/397 250/585/398 319/550/399
f 289/564/400 258/563/401 257/614/400
f 317/615/402 314/616/403 323/589/404
f 275/591/405 259/590/406 321/556/407
f 288/617/408 334/618/408 332/583/409
f 332/583/410 296/582/411 288/617/412
f 269/619/413 331/572/414 330/571/415
f 330/571/416 255/620/417 269/619/417
f 288/462/418 287/461/419 334/621/420
f 287/461/421 298/471/422 334/621/423
f 334/621/228 298/471/424 255/473/228
f 244/465/425 243/464/426 238/608/427
f 319/550/428 250/585/429 249/584/428
f 335/622/430 253/537/431 329/604/432
f 274/623/433 297/597/434 299/624/433
f 291/625/435 292/626/436 264/627/437
f 261/496/438 270/495/439 254/628/439
f 317/629/440 250/585/441 314/613/442
f 257/477/3 259/479/3 304/588/3
f 32/630/443 124/631/444 57/632/445
f 339/633/446 343/634/447 340/635/448
f 339/633/449 338/636/449 343/634/449
f 339/633/450 342/637/450 338/636/450
f 339/633/451 340/635/451 344/638/451
f 339/633/452 344/638/452 342/637/452
f 346/639/453 343/634/454 341/640/455
f 342/637/456 350/641/457 346/639/458
f 343/634/459 338/636/460 341/640/461
f 340/635/462 345/642/463 349/643/464
f 342/637/465 344/638/466 348/644/467
f 350/641/468 348/644/469 349/643/470
f 353/645/471 351/646/471 352/647/471
f 353/645/472 356/648/472 351/646/472
f 353/645/473 352/647/473 358/649/473
f 353/645/474 358/649/475 356/648/476
f 352/647/477 351/646/478 354/650/479
f 357/651/480 356/648/481 364/652/482
f 360/653/483 359/654/484 354/650/485
f 362/655/486 363/656/487 365/657/488
f 361/658/489 358/649/490 362/655/491
f 359/654/492 360/653/493 363/656/494
f 355/659/495 356/648/496 361/658/497
f 356/648/498 358/649/499 361/658/500
f 365/657/501 355/659/502 361/658/503
f 364/652/504 355/659/505 365/657/506
f 367/633/507 368/660/507 366/661/507
f 367/633/508 372/662/508 368/660/508
f 367/633/509 371/663/509 372/662/509
f 374/664/510 373/665/511 370/666/512
f 375/667/513 366/661/514 369/668/515
f 370/666/516 373/665/517 366/661/518
f 369/668/519 378/669/520 375/667/521
f 371/663/522 366/661/523 377/670/524
f 366/661/525 368/660/526 369/668/527
f 378/669/528 377/670/529 374/664/530
f 372/662/531 371/663/532 376/671/533
f 379/672/534 385/673/534 380/674/534
f 379/672/535 383/675/535 381/676/535
f 382/677/536 381/676/537 383/675/538
f 379/672/539 386/678/539 385/673/539
f 379/672/540 381/676/540 386/678/540
f 388/679/541 383/675/542 384/680/543
f 380/674/544 387/681/545 384/680/546
f 390/682/547 389/683/548 391/684/549
f 389/683/550 385/673/551 386/678/552
f 391/684/553 386/678/554 382/677/555
f 391/684/556 388/679/557 390/682/558
f 389/683/559 386/678/560 391/684/561
f 393/685/562 392/686/562 395/687/562
f 399/688/563 394/689/564 400/690/565
f 393/685/566 401/691/566 392/686/566
f 393/685/567 402/692/567 401/691/567
f 403/693/568 402/692/569 396/694/570
f 402/692/571 395/687/572 397/695/573
f 399/688/574 396/694/575 397/695/576
f 404/696/577 398/697/578 401/691/579
f 397/695/580 395/687/581 394/689/582
f 404/696/583 403/693/584 405/698/585
f 396/694/586 402/692/587 397/695/588
f 408/685/589 407/699/589 406/700/589
f 408/685/590 406/700/590 410/701/590
f 410/701/591 406/700/592 409/702/593
f 408/685/594 412/638/594 413/703/594
f 408/685/595 415/704/595 412/638/595
f 416/705/596 413/703/597 412/638/598
f 417/706/599 413/703/600 416/705/601
f 411/707/602 413/703/603 417/706/604
f 415/704/605 418/708/606 417/706/607
f 415/704/608 414/709/609 418/708/610
f 416/705/611 412/638/612 415/704/613
f 252/535/5 241/710/5 242/711/5
f 10/232/614 89/233/614 11/278/614
f 14/10/3 82/72/3 15/11/3
f 17/262/615 80/191/615 18/190/615
f 19/162/616 52/712/616 20/163/616
f 21/13/3 69/74/3 22/14/3
f 29/713/3 97/247/3 37/312/3
f 94/25/5 54/321/5 39/26/5
f 42/32/3 140/714/3 43/33/3
f 25/18/617 20/17/617 52/38/617
f 56/43/4 31/153/4 57/44/4
f 62/155/618 157/715/618 63/716/618
f 34/49/3 117/260/3 64/50/3
f 6/54/619 5/717/619 2/2/619
f 67/718/620 95/219/620 49/719/620
f 75/256/621 136/720/621 76/257/621
f 77/198/622 41/721/622 78/221/622
f 41/31/4 77/283/4 43/148/4
f 26/66/623 122/722/623 79/67/623
f 81/71/624 89/723/624 82/72/624
f 83/158/625 53/39/625 52/38/625
f 61/724/626 60/209/627 129/208/628
f 87/78/629 42/32/629 44/34/629
f 73/77/5 131/130/5 88/128/5
f 96/86/3 144/725/3 97/87/3
f 98/89/630 115/281/630 5/90/630
f 65/126/5 62/129/5 50/726/5
f 63/290/4 74/300/4 102/299/4
f 102/154/631 157/715/631 62/155/631
f 103/282/5 106/27/5 107/152/5
f 106/27/5 142/324/5 107/152/5
f 108/97/5 152/727/5 109/98/5
f 75/102/5 149/728/5 101/100/5
f 149/728/5 95/729/5 101/100/5
f 95/729/5 94/25/5 101/100/5
f 35/313/632 144/725/632 96/86/632
f 155/271/5 98/323/5 108/97/5
f 98/323/5 119/109/5 108/97/5
f 123/120/4 113/231/4 30/83/4
f 59/46/4 123/120/4 60/47/4
f 121/111/5 16/112/5 105/94/5
f 86/114/633 111/76/633 118/108/633
f 64/123/5 117/106/5 124/24/5
f 57/44/4 77/283/4 51/36/4
f 19/730/5 53/259/5 100/225/5
f 111/76/634 50/726/634 62/129/634
f 135/731/25 78/732/25 111/76/25
f 136/141/635 75/733/635 104/142/635
f 40/734/636 156/735/636 127/269/636
f 27/21/4 37/301/4 33/145/4
f 136/147/4 90/82/4 83/81/4
f 122/113/5 133/144/5 86/114/5
f 36/214/637 133/213/637 28/88/637
f 93/736/638 101/272/639 116/737/640
f 109/98/5 152/727/5 129/151/5
f 152/727/5 132/315/5 32/738/5
f 129/151/5 152/727/5 32/738/5
f 41/739/641 135/740/641 87/78/641
f 56/43/4 139/322/4 61/48/4
f 139/322/4 59/46/4 61/48/4
f 122/276/642 26/741/642 33/51/642
f 77/198/3 117/197/3 51/742/3
f 73/63/643 88/325/643 74/64/643
f 109/149/644 107/116/644 59/115/644
f 123/117/645 107/116/645 142/159/645
f 128/122/5 105/94/5 100/225/5
f 105/94/5 104/93/5 75/102/5
f 75/102/5 100/225/5 105/94/5
f 98/287/31 99/743/31 7/7/31
f 118/744/646 46/745/646 51/742/646
f 51/742/647 117/197/647 118/744/647
f 83/81/4 52/294/4 141/146/4
f 141/146/4 52/294/4 153/293/4
f 53/259/5 128/122/5 100/225/5
f 106/27/5 138/241/5 137/235/5
f 7/167/4 99/187/4 47/165/4
f 99/187/4 114/267/4 47/165/4
f 84/168/648 71/746/648 70/169/648
f 91/4/649 3/3/649 2/2/649
f 90/143/650 67/306/650 49/747/650
f 148/174/4 76/748/4 116/749/4
f 116/749/4 147/172/4 148/174/4
f 147/172/4 38/242/4 49/173/4
f 76/257/651 148/218/651 149/220/651
f 76/748/4 136/147/4 126/750/4
f 141/146/4 126/750/4 136/147/4
f 126/750/4 116/749/4 76/748/4
f 43/33/652 140/714/652 41/751/652
f 19/175/653 85/182/653 150/176/653
f 58/178/39 145/201/39 120/179/39
f 134/181/654 144/195/654 150/176/654
f 97/236/4 154/297/4 36/296/4
f 144/237/4 35/295/4 150/292/4
f 81/183/655 105/199/655 83/184/655
f 63/716/656 131/752/656 62/155/656
f 127/269/657 71/270/657 40/734/657
f 8/211/4 7/167/4 57/44/4
f 73/63/658 63/65/658 71/753/658
f 137/189/659 91/754/659 18/190/659
f 61/724/660 32/630/661 31/755/662
f 109/149/37 146/171/37 110/253/37
f 14/28/5 21/29/5 10/194/5
f 45/20/4 40/30/4 71/61/4
f 57/756/663 124/757/663 65/758/663
f 105/199/664 16/12/664 15/11/664
f 132/200/665 56/204/665 58/178/665
f 89/80/4 23/303/4 82/307/4
f 35/212/666 85/759/666 133/213/666
f 148/218/667 49/719/667 95/219/667
f 78/221/668 41/721/668 46/222/668
f 85/224/5 19/730/5 100/225/5
f 68/59/5 55/193/5 124/24/5
f 54/40/669 11/186/669 92/226/669
f 138/228/670 92/760/670 91/229/670
f 113/231/4 114/267/4 99/187/4
f 10/232/671 21/13/671 23/15/671
f 153/258/672 45/131/673 86/133/674
f 71/753/675 84/761/675 73/63/675
f 38/242/4 30/83/4 92/85/4
f 130/244/3 42/265/3 66/245/3
f 97/247/676 29/713/676 133/248/676
f 10/194/5 67/279/5 104/93/5
f 38/242/4 11/243/4 49/173/4
f 146/171/39 114/762/39 155/252/39
f 101/272/677 147/274/678 116/737/679
f 91/4/680 125/119/680 3/3/680
f 78/732/681 118/108/681 111/76/681
f 131/130/19 73/77/19 111/76/19
f 53/259/5 19/730/5 143/250/5
f 100/56/682 93/736/683 126/57/684
f 55/41/3 68/138/3 12/140/3
f 18/190/685 92/760/685 138/228/685
f 40/264/686 66/245/686 42/265/686
f 83/81/4 15/305/4 24/304/4
f 114/267/4 146/763/4 48/268/4
f 78/732/5 135/731/5 140/284/5
f 101/272/687 94/764/688 38/273/689
f 131/275/690 63/765/690 102/154/690
f 38/273/691 94/764/692 106/240/693
f 135/766/694 41/751/694 140/714/694
f 94/25/5 95/729/5 67/279/5
f 8/8/695 5/90/695 115/281/695
f 157/318/696 50/317/697 4/767/698
f 126/57/699 93/736/700 116/737/701
f 140/284/5 42/164/5 65/126/5
f 4/289/702 45/20/702 71/61/702
f 27/21/4 45/20/4 153/293/4
f 26/19/4 46/35/4 45/20/4
f 87/78/703 40/79/703 41/739/703
f 70/60/4 57/44/4 157/291/4
f 117/106/5 140/284/5 124/24/5
f 57/44/4 34/37/4 33/145/4
f 92/85/4 18/136/4 12/288/4
f 11/243/4 13/125/4 22/124/4
f 155/252/45 114/762/45 113/308/45
f 27/217/704 122/216/704 64/311/704
f 87/255/25 135/731/25 111/76/25
f 1/310/5 9/118/5 115/96/5
f 80/69/5 3/70/5 125/234/5
f 124/24/5 32/738/5 132/315/5
f 127/121/25 156/254/25 111/76/25
f 143/250/5 134/134/5 124/24/5
f 124/24/5 151/316/5 120/110/5
f 69/74/705 112/768/706 11/73/707
f 127/269/708 130/244/708 72/246/708
f 121/261/709 128/769/709 83/320/709
f 47/202/710 108/770/710 120/179/710
f 93/101/5 100/225/5 75/102/5
f 1/310/5 115/96/5 6/95/5
f 68/59/5 17/58/5 138/241/5
f 145/166/4 58/45/4 57/44/4
f 48/268/4 146/763/4 139/322/4
f 98/323/5 155/271/5 142/324/5
f 37/312/3 64/311/3 29/713/3
f 88/325/3 130/170/3 70/169/3
f 69/192/5 55/193/5 54/321/5
f 106/27/5 115/96/5 98/323/5
f 164/330/45 206/459/45 165/331/45
f 173/336/99 160/327/99 159/326/99
f 179/343/99 164/450/99 166/771/99
f 166/771/99 178/341/99 179/343/99
f 174/337/99 162/344/99 180/345/99
f 182/346/99 195/404/99 183/347/99
f 194/377/99 186/350/99 187/349/99
f 194/377/99 187/349/99 195/375/99
f 231/357/3 212/353/3 232/358/3
f 198/365/99 193/364/99 181/368/99
f 200/360/3 199/356/3 201/361/3
f 204/380/99 203/382/99 189/405/99
f 190/363/99 189/405/99 193/364/99
f 199/356/711 203/366/712 181/368/713
f 176/372/714 234/772/714 170/373/714
f 212/353/715 195/375/716 187/349/717
f 192/408/718 189/405/719 203/382/720
f 203/366/721 173/773/722 180/367/723
f 217/389/724 211/421/725 222/390/726
f 216/378/727 232/358/728 188/348/729
f 218/383/4 166/447/4 165/384/4
f 195/375/730 174/774/731 159/376/732
f 223/386/5 178/775/5 224/387/5
f 201/361/733 193/364/734 189/405/735
f 186/350/736 177/776/737 167/397/738
f 186/350/739 159/376/740 177/776/741
f 163/399/742 175/403/743 209/400/744
f 204/380/745 160/426/746 173/381/747
f 171/401/748 209/400/749 179/343/750
f 163/399/751 168/425/752 230/342/753
f 190/363/754 161/398/755 160/426/756
f 222/390/3 221/359/3 232/358/3
f 202/362/3 201/361/3 185/406/3
f 191/370/3 184/407/3 192/408/3
f 215/410/3 207/438/3 208/411/3
f 169/396/757 197/354/758 200/360/759
f 219/385/3 165/384/3 223/386/3
f 232/358/760 187/349/761 188/348/762
f 215/415/763 196/351/764 231/357/765
f 208/395/766 191/409/767 197/354/768
f 205/417/31 235/431/31 233/418/31
f 181/368/769 180/367/770 172/392/771
f 213/413/772 200/360/773 202/362/774
f 228/422/775 229/777/775 206/423/775
f 227/414/776 202/362/777 184/407/778
f 168/425/779 158/402/780 179/343/781
f 199/356/782 181/368/783 193/364/784
f 224/427/45 218/383/45 219/385/45
f 211/421/785 220/394/786 221/359/787
f 207/369/788 184/407/789 191/370/790
f 182/346/791 167/397/792 162/778/793
f 220/394/794 231/357/795 221/359/796
f 218/383/99 224/779/99 178/446/99
f 182/346/797 162/778/798 174/420/799
f 296/460/800 295/559/801 287/461/802
f 242/606/803 336/599/804 245/466/805
f 239/463/806 240/467/807 243/464/808
f 248/468/809 310/780/810 246/469/811
f 298/471/812 300/545/813 254/472/814
f 251/474/815 248/781/816 247/475/817
f 318/782/4 271/783/4 306/784/4
f 306/784/4 302/785/4 286/786/4
f 302/785/4 306/784/4 271/783/4
f 317/787/818 305/788/818 250/789/818
f 305/788/4 306/784/4 286/786/4
f 250/789/4 305/788/4 286/786/4
f 329/488/4 250/789/4 286/786/4
f 320/790/4 250/789/4 291/791/4
f 250/789/4 329/488/4 291/791/4
f 309/487/4 291/791/4 329/488/4
f 253/486/4 267/792/4 309/487/4
f 307/793/4 309/487/4 267/792/4
f 277/493/819 278/794/820 279/494/821
f 277/493/822 280/795/823 278/794/824
f 280/795/825 281/796/826 278/794/827
f 282/490/828 279/494/829 283/797/830
f 282/490/831 283/797/832 281/491/833
f 290/554/834 262/798/835 263/555/836
f 260/562/837 326/561/838 331/799/839
f 287/498/840 324/501/841 294/499/842
f 335/622/843 268/538/844 253/537/845
f 271/508/846 272/528/847 301/509/848
f 307/514/849 311/800/850 308/515/851
f 303/532/852 304/801/853 259/590/854
f 260/562/855 331/799/855 269/802/856
f 258/478/857 312/803/857 290/605/857
f 259/590/858 290/554/859 321/556/860
f 252/476/861 325/804/862 264/517/863
f 318/805/864 266/518/865 315/520/866
f 260/497/867 261/496/868 312/594/869
f 336/806/4 310/807/4 251/808/4
f 264/809/870 265/810/871 240/811/872
f 265/810/873 237/812/874 240/811/874
f 243/813/4 240/811/4 237/812/4
f 251/808/875 264/809/876 336/806/875
f 310/807/4 248/814/4 251/808/4
f 264/809/877 240/811/878 245/815/878
f 245/815/879 336/806/879 264/809/880
f 291/625/881 325/816/882 337/601/883
f 318/805/884 306/513/885 266/518/886
f 309/516/887 308/515/888 292/525/889
f 271/508/890 318/817/891 315/527/892
f 285/818/893 328/603/894 286/557/895
f 270/489/896 269/802/897 255/473/898
f 281/578/337 330/577/337 333/586/337
f 323/543/899 314/613/900 319/550/901
f 316/524/902 276/506/902 280/552/902
f 282/542/99 276/506/99 274/484/99
f 301/509/903 285/818/904 286/557/905
f 312/803/857 261/480/857 290/605/857
f 328/603/906 335/622/907 329/604/908
f 279/575/336 278/587/336 332/576/336
f 333/581/909 326/573/910 296/582/911
f 322/560/912 260/562/913 249/584/913
f 278/587/857 333/586/857 332/576/857
f 316/596/914 313/522/915 306/513/916
f 315/819/917 265/820/918 292/821/918
f 273/569/919 317/615/920 323/589/921
f 312/594/922 258/563/923 319/565/924
f 300/545/925 298/471/926 297/597/927
f 291/625/928 337/601/929 320/602/930
f 327/567/931 294/566/932 324/822/933
f 246/469/934 310/780/935 336/599/936
f 337/601/937 322/560/938 250/585/939
f 274/484/99 276/506/99 303/485/99
f 280/795/940 276/823/941 281/796/942
f 269/802/943 270/489/944 260/562/945
f 265/607/946 266/824/947 238/608/948
f 285/825/5 301/826/5 272/827/5
f 272/827/949 315/828/950 285/825/949
f 292/610/951 308/829/392 335/611/392
f 335/611/5 308/829/5 268/830/5
f 311/831/5 268/830/5 308/829/5
f 315/828/952 292/610/953 285/825/954
f 328/612/955 285/825/955 292/610/956
f 303/532/957 262/531/958 304/801/959
f 256/598/960 297/597/961 274/623/962
f 312/594/963 249/595/964 260/497/965
f 238/608/966 243/464/967 237/609/968
f 325/816/969 291/625/970 264/627/971
f 264/832/972 292/821/973 265/820/973
f 61/724/974 129/208/975 32/630/976
f 57/632/977 31/755/978 32/630/979
f 65/758/980 157/833/981 57/756/982
f 50/834/983 111/835/984 4/836/985
f 345/642/986 340/635/987 343/634/988
f 346/639/989 345/642/990 343/634/991
f 341/640/992 338/636/993 342/637/994
f 348/644/995 344/638/996 340/635/997
f 341/640/998 342/637/999 346/639/1000
f 349/643/1001 348/644/1002 340/635/1003
f 347/837/1004 342/637/1005 348/644/1006
f 350/641/1007 347/837/1008 348/644/1009
f 350/641/1010 342/637/1011 347/837/1012
f 357/651/1013 360/653/1014 354/650/1015
f 354/650/1016 356/648/1017 357/651/1018
f 354/650/1019 359/654/1020 352/647/1021
f 362/655/1022 358/649/1023 352/647/1024
f 364/652/1025 356/648/1026 355/659/1027
f 363/656/1028 362/655/1029 359/654/1030
f 356/648/1031 354/650/1032 351/646/1033
f 365/657/1034 361/658/1035 362/655/1036
f 359/654/1037 362/655/1038 352/647/1039
f 367/633/1040 366/661/1041 371/663/1042
f 375/667/1043 370/666/1044 366/661/1045
f 369/668/1046 368/660/1047 372/662/1048
f 369/668/1049 372/662/1050 378/669/1051
f 378/669/1052 376/671/1053 377/670/1054
f 374/664/1055 377/670/1056 373/665/1057
f 378/669/1058 372/662/1059 376/671/1060
f 373/665/1061 377/670/1062 366/661/1063
f 377/670/1064 376/671/1065 371/663/1066
f 380/674/1067 383/675/1067 379/672/1067
f 380/674/1068 385/673/1069 387/681/1070
f 384/680/1071 383/675/1072 380/674/1073
f 388/679/1074 382/677/1075 383/675/1076
f 390/682/1077 387/681/1078 389/683/1079
f 387/681/1080 385/673/1081 389/683/1082
f 386/678/1083 381/676/1084 382/677/1085
f 391/684/1086 382/677/1087 388/679/1088
f 393/685/1089 395/687/1090 402/692/1091
f 400/690/1092 394/689/1093 398/697/1094
f 398/697/1095 394/689/1096 392/686/1097
f 399/688/1098 397/695/1099 394/689/1100
f 399/688/1101 405/698/1102 396/694/1103
f 401/691/1104 398/697/1105 392/686/1106
f 404/696/1107 401/691/1108 403/693/1109
f 404/696/1110 400/690/1111 398/697/1112
f 403/693/1113 401/691/1114 402/692/1115
f 405/698/1116 403/693/1117 396/694/1118
f 394/689/1119 395/687/1120 392/686/1121
f 408/685/1122 413/703/1123 407/699/1124
f 411/707/1125 409/702/1126 407/699/1127
f 408/685/1128 410/701/1129 415/704/1130
f 407/699/1131 413/703/1132 411/707/1133
f 411/707/1134 414/709/1135 409/702/1136
f 414/709/1137 410/701/1138 409/702/1139
f 417/706/1140 416/705/1141 415/704/1142
f 409/702/1143 406/700/1144 407/699/1145
f 415/704/1146 410/701/1147 414/709/1148
f 239/838/5 244/839/5 266/840/5
f 266/840/5 327/841/5 239/838/5
f 327/841/1149 324/842/1149 322/843/1149
f 327/841/5 322/843/5 239/838/5
f 238/844/5 266/840/5 244/839/5
f 322/843/5 337/845/5 325/846/5
f 242/711/5 322/843/5 325/846/5
f 325/846/5 252/535/5 242/711/5
f 252/535/5 246/534/5 241/710/5
f 322/843/5 242/711/5 239/838/5
